<?xml version="1.0" encoding="UTF-8"?><svg xmlns="http://www.w3.org/2000/svg" viewBox="0 0 166.03 37.41"><defs><style>.cls-1{fill:#7f22ea;}.cls-2{fill:#4d4d4d;}.cls-3{fill:#f8f8f8;}.cls-3,.cls-4,.cls-5,.cls-6,.cls-7,.cls-8,.cls-9,.cls-10,.cls-11,.cls-12,.cls-13,.cls-14,.cls-15,.cls-16,.cls-17,.cls-18,.cls-19,.cls-20,.cls-21,.cls-22,.cls-23,.cls-24,.cls-25,.cls-26,.cls-27,.cls-28,.cls-29,.cls-30,.cls-31,.cls-32,.cls-33,.cls-34,.cls-35,.cls-36,.cls-37,.cls-38,.cls-39,.cls-40,.cls-41,.cls-42,.cls-43,.cls-44,.cls-45,.cls-46,.cls-47,.cls-48,.cls-49,.cls-50,.cls-51,.cls-52,.cls-53,.cls-54,.cls-55,.cls-56,.cls-57,.cls-58,.cls-59,.cls-60,.cls-61,.cls-62,.cls-63,.cls-64,.cls-65,.cls-66,.cls-67,.cls-68,.cls-69,.cls-70,.cls-71,.cls-72,.cls-73,.cls-74,.cls-75,.cls-76,.cls-77,.cls-78,.cls-79,.cls-80,.cls-81,.cls-82,.cls-83,.cls-84,.cls-85,.cls-86,.cls-87,.cls-88,.cls-89,.cls-90,.cls-91,.cls-92,.cls-93,.cls-94,.cls-95{fill-rule:evenodd;}.cls-4{fill:#f6f6f6;}.cls-5{fill:#474847;}.cls-6{fill:#4a4b4b;}.cls-7{fill:#39393a;}.cls-8{fill:#5a5c5b;}.cls-9{fill:#3c3c3c;}.cls-10{fill:#838282;}.cls-11{fill:#2c2d2c;}.cls-12{fill:#595758;}.cls-13{fill:#292828;}.cls-14{fill:#616161;}.cls-15{fill:#5d5d5e;}.cls-16{fill:#797979;}.cls-17{fill:#777776;}.cls-18{fill:#505051;}.cls-19{fill:#555656;}.cls-20{fill:#525252;}.cls-21{fill:#646565;}.cls-22{fill:#7b7b7b;}.cls-23{fill:#4d4c4d;}.cls-24{fill:gray;}.cls-25{fill:#888;}.cls-26{fill:#6e6f6f;}.cls-27{fill:#959596;}.cls-28{fill:#a2a2a3;}.cls-29{fill:#717171;}.cls-30{fill:#1a1a1a;}.cls-31{fill:#0a0a0a;}.cls-32{fill:#454544;}.cls-33{fill:#363636;}.cls-34{fill:#424242;}.cls-35{fill:#0f1010;}.cls-36{fill:#1d1d1d;}.cls-37{fill:#403f3f;}.cls-38{fill:#131314;}.cls-39{fill:#212221;}.cls-40{fill:#242525;}.cls-41{fill:#c5c4c4;}.cls-42{fill:#dbdad9;}.cls-43{fill:#d4d4d4;}.cls-44{fill:#d9d9d9;}.cls-45{fill:#adadad;}.cls-46{fill:#c7c7c8;}.cls-47{fill:#dedfe0;}.cls-48{fill:#d0cfcf;}.cls-49{fill:#d2d2d1;}.cls-50{fill:#cbcbcb;}.cls-51{fill:#dddcdc;}.cls-52{fill:#cececf;}.cls-53{fill:#ababab;}.cls-54{fill:#bdbdbd;}.cls-55{fill:#a6a6a6;}.cls-56{fill:#a6a7a7;}.cls-57{fill:#b1b1b2;}.cls-58{fill:#bcbbbb;}.cls-59{fill:#b2b3b3;}.cls-60{fill:#6b6b6c;}.cls-61{fill:#7e7e7f;}.cls-62{fill:#747474;}.cls-63{fill:#999898;}.cls-64{fill:#303030;}.cls-65{fill:#333;}.cls-66{fill:#8e8d8d;}.cls-67{fill:#858584;}.cls-68{fill:#939394;}.cls-69{fill:#8b8a8a;}.cls-70{fill:#a1a1a0;}.cls-71{fill:#9c9d9d;}.cls-72{fill:#9c9b9c;}.cls-73{fill:#b8b7b8;}.cls-74{fill:#c2c2c1;}.cls-75{fill:#8f9090;}.cls-76{fill:#b6b6b7;}.cls-77{fill:#c1c1c1;}.cls-78{fill:#666565;}.cls-79{fill:#ebebec;}.cls-80{fill:#f1f2f1;}.cls-81{fill:#edeeee;}.cls-82{fill:#fff;}.cls-83{fill:#f4f3f3;}.cls-84{fill:#fafbfc;}.cls-85{fill:#fcfcfc;}.cls-86{fill:#e9e9e9;}.cls-87{fill:#e6e6e5;}.cls-88{fill:#e2e2e3;}.cls-89{fill:#e5e3e4;}.cls-90{fill:#010003;}.cls-91{fill:#050403;}.cls-92{fill:#6a6969;}.cls-93{fill:#000003;}.cls-94{fill:#000002;}.cls-95{fill:#000001;}.cls-96{isolation:isolate;}.cls-97{mix-blend-mode:multiply;opacity:.3;}</style></defs><g class="cls-96"><g id="Layer_4"><g><g><path class="cls-2" d="M56.82,25.54h-2.23v-1.42c-.2,.14-.47,.32-.81,.57-.34,.24-.67,.44-.98,.58-.37,.18-.8,.34-1.29,.46-.49,.12-1.05,.18-1.71,.18-1.2,0-2.22-.4-3.05-1.19-.84-.8-1.25-1.81-1.25-3.04,0-1.01,.22-1.83,.65-2.45,.43-.62,1.05-1.12,1.86-1.47,.81-.36,1.79-.6,2.92-.73,1.14-.13,2.36-.22,3.66-.29v-.35c0-.51-.09-.93-.27-1.26-.18-.33-.44-.6-.77-.79-.32-.18-.7-.31-1.15-.37-.45-.06-.91-.1-1.4-.1-.59,0-1.24,.08-1.97,.23-.72,.15-1.47,.38-2.24,.67h-.12v-2.28c.44-.12,1.07-.25,1.9-.39,.83-.14,1.64-.21,2.45-.21,.94,0,1.76,.08,2.45,.23,.7,.16,1.3,.42,1.81,.79,.5,.37,.88,.84,1.15,1.42,.26,.58,.39,1.3,.39,2.16v9.04Zm-2.23-3.28v-3.71c-.68,.04-1.49,.1-2.42,.18-.93,.08-1.66,.2-2.2,.35-.64,.18-1.17,.47-1.56,.85-.4,.39-.6,.92-.6,1.59,0,.76,.23,1.34,.69,1.72,.46,.39,1.17,.58,2.11,.58,.79,0,1.51-.15,2.16-.46,.65-.31,1.26-.67,1.81-1.1Z"/><path class="cls-2" d="M71.95,25.54h-2.24v-1.4c-.64,.56-1.32,.99-2.02,1.3-.7,.31-1.46,.47-2.28,.47-1.59,0-2.85-.61-3.79-1.84-.93-1.22-1.4-2.92-1.4-5.09,0-1.13,.16-2.14,.48-3.02,.32-.88,.76-1.63,1.31-2.25,.54-.6,1.17-1.07,1.89-1.38,.72-.32,1.47-.48,2.24-.48,.7,0,1.32,.07,1.86,.22,.54,.15,1.11,.38,1.71,.69V6.97h2.24V25.54Zm-2.24-3.28v-7.65c-.6-.27-1.15-.46-1.62-.56-.48-.1-1-.15-1.56-.15-1.26,0-2.24,.44-2.93,1.31-.7,.88-1.05,2.12-1.05,3.72s.27,2.79,.81,3.61c.54,.82,1.41,1.23,2.6,1.23,.64,0,1.28-.14,1.93-.42,.65-.28,1.26-.65,1.83-1.09Z"/><path class="cls-2" d="M87.72,18.88c0,2.17-.56,3.89-1.67,5.14-1.11,1.26-2.61,1.88-4.47,1.88s-3.38-.63-4.49-1.88c-1.11-1.26-1.66-2.97-1.66-5.14s.55-3.89,1.66-5.15c1.11-1.26,2.61-1.89,4.49-1.89s3.36,.63,4.47,1.89c1.11,1.26,1.67,2.98,1.67,5.15Zm-2.31,0c0-1.73-.34-3.01-1.01-3.85-.68-.84-1.61-1.26-2.82-1.26s-2.16,.42-2.83,1.26c-.67,.84-1.01,2.12-1.01,3.85s.34,2.94,1.01,3.8c.68,.86,1.62,1.29,2.83,1.29s2.13-.43,2.81-1.28c.68-.85,1.02-2.13,1.02-3.81Z"/><path class="cls-2" d="M102.66,21.29c0,1.38-.62,2.5-1.86,3.35-1.24,.85-2.94,1.27-5.09,1.27-1.19,0-2.27-.11-3.25-.33-.97-.22-1.75-.47-2.34-.74v-3.53h.39c.21,.15,.46,.32,.75,.5,.28,.18,.68,.37,1.2,.58,.45,.18,.95,.34,1.52,.47,.56,.13,1.17,.2,1.81,.2,.84,0,1.47-.09,1.87-.28,.41-.19,.61-.46,.61-.83,0-.33-.12-.56-.36-.71s-.69-.29-1.36-.42c-.32-.07-.75-.15-1.29-.23-.54-.08-1.04-.18-1.49-.3-1.22-.32-2.12-.81-2.71-1.49-.59-.67-.88-1.51-.88-2.51,0-1.29,.61-2.36,1.83-3.22,1.22-.85,2.89-1.28,5-1.28,1,0,1.96,.1,2.88,.3,.92,.2,1.64,.42,2.15,.65v3.39h-.37c-.64-.44-1.36-.79-2.18-1.07-.82-.27-1.64-.41-2.48-.41-.69,0-1.27,.1-1.75,.29-.47,.19-.71,.46-.71,.81,0,.32,.11,.56,.32,.73,.21,.17,.72,.33,1.52,.5,.44,.09,.91,.17,1.41,.26,.51,.08,1.01,.19,1.52,.32,1.13,.29,1.96,.76,2.51,1.39,.54,.63,.81,1.42,.81,2.37Z"/><path class="cls-2" d="M112.49,25.89c-1.17,0-2.24-.14-3.2-.42s-1.81-.71-2.52-1.29c-.71-.58-1.26-1.31-1.65-2.2-.39-.88-.58-1.92-.58-3.1,0-1.25,.21-2.33,.63-3.23s1-1.66,1.75-2.25c.72-.56,1.56-.98,2.51-1.24,.95-.26,1.93-.39,2.95-.39,.91,0,1.76,.1,2.53,.3,.77,.2,1.49,.46,2.16,.78v3.66h-.61c-.17-.14-.37-.31-.6-.5-.23-.19-.52-.38-.86-.56-.33-.18-.68-.32-1.07-.44-.39-.12-.84-.17-1.36-.17-1.14,0-2.02,.36-2.64,1.09-.62,.73-.92,1.72-.92,2.96s.32,2.27,.95,2.93c.63,.67,1.53,1,2.69,1,.54,0,1.03-.06,1.46-.18s.79-.27,1.08-.44c.27-.16,.51-.33,.71-.5s.4-.35,.57-.51h.61v3.66c-.68,.32-1.38,.57-2.12,.76-.74,.19-1.55,.28-2.44,.28Z"/><path class="cls-2" d="M129.6,16.23h-.38c-.18-.06-.48-.11-.88-.14-.41-.03-.74-.05-1.01-.05-.61,0-1.15,.04-1.62,.12-.47,.08-.97,.21-1.51,.41v8.97h-4.31V12.14h4.31v1.97c.94-.81,1.77-1.35,2.46-1.62,.7-.27,1.34-.4,1.93-.4,.15,0,.32,0,.51,.01s.36,.02,.5,.04v4.09Z"/><path class="cls-2" d="M136.46,10.23h-4.55v-3.26h4.55v3.26Zm-.12,15.31h-4.31V12.14h4.31v13.4Z"/><path class="cls-2" d="M154.36,18.65c0,1.11-.17,2.11-.51,3.02-.34,.91-.78,1.65-1.33,2.24-.57,.62-1.22,1.09-1.94,1.41s-1.5,.48-2.32,.48c-.76,0-1.41-.08-1.94-.24-.53-.16-1.08-.39-1.63-.69v5.58h-4.31V12.14h4.31v1.4c.66-.53,1.33-.95,2.02-1.28,.69-.33,1.48-.49,2.38-.49,1.67,0,2.96,.61,3.89,1.84,.93,1.22,1.39,2.91,1.39,5.05Zm-4.43,.09c0-1.3-.22-2.25-.67-2.84-.44-.59-1.15-.88-2.11-.88-.4,0-.82,.06-1.25,.18-.43,.12-.84,.3-1.23,.53v6.73c.29,.11,.59,.18,.92,.21,.33,.03,.65,.05,.96,.05,1.13,0,1.98-.33,2.54-.99,.56-.66,.83-1.66,.83-3Z"/><path class="cls-2" d="M166.03,25.42c-.46,.12-.95,.21-1.47,.28-.52,.07-1.15,.1-1.9,.1-1.67,0-2.91-.34-3.73-1.01s-1.22-1.83-1.22-3.47v-6.26h-1.77v-2.91h1.77v-3.83h4.31v3.83h4.01v2.91h-4.01v4.76c0,.47,0,.88,.01,1.23s.07,.67,.19,.94c.11,.28,.31,.5,.59,.66,.28,.16,.69,.24,1.23,.24,.22,0,.51-.05,.87-.14,.36-.1,.61-.18,.76-.26h.36v2.94Z"/></g><g><circle class="cls-1" cx="18.71" cy="18.71" r="18.71"/><g><path class="cls-82" d="M18.7,22.25c4.64,0,8.74,2.34,11.18,5.9l-2.9,1.31c-1.91-2.49-4.91-4.09-8.28-4.09s-6.38,1.61-8.29,4.1l-2.87-1.33c2.44-3.57,6.51-5.89,11.16-5.89Z"/><g class="cls-97"><path class="cls-85" d="M13.94,26.51l1.84-3.95c-2.3,.5-4.37,1.59-6.07,3.1h0l-.08,.08c-.78,.71-1.49,1.52-2.09,2.39l2.87,1.33s.06-.08,.09-.11h0s.06-.08,.09-.12h0s.06-.08,.09-.11h0s.06-.08,.09-.11h0s.06-.08,.09-.11h0l.09-.11h.01s.06-.08,.09-.11l.02-.02s.06-.06,.08-.09l.02-.02s.06-.06,.08-.09l.02-.02s.05-.05,.08-.08l.02-.02s.05-.05,.08-.08l.02-.02s.05-.05,.08-.08l.03-.03,.08-.07,.03-.03s.05-.04,.07-.07l.04-.03s.05-.04,.07-.06l.04-.03,.07-.06,.04-.04s.04-.04,.07-.05l.05-.04s.04-.03,.06-.05c.02-.01,.03-.03,.05-.04l.06-.05,.06-.05,.06-.04s.05-.04,.07-.05l.04-.03s.06-.04,.08-.06l.03-.02s.06-.04,.09-.06l.03-.02s.07-.05,.11-.07h0s.08-.06,.11-.08h0s.08-.05,.12-.08h0s.08-.05,.12-.08h0s.08-.05,.12-.07h0c.08-.05,.17-.1,.25-.14h0c.09-.05,.17-.09,.26-.14h0Z"/><path class="cls-84" d="M13.91,26.53l1.85-3.96c-2.29,.51-4.35,1.59-6.05,3.09l-.02,.02-.07,.06c-.79,.71-1.49,1.52-2.09,2.4l2.87,1.33s.06-.08,.09-.11h0s.06-.08,.09-.11h0s.06-.08,.09-.11h0s.06-.08,.09-.11h.01s.06-.08,.08-.11h.01s.06-.08,.09-.11h.01s.06-.07,.08-.11l.02-.02s.05-.06,.08-.09l.02-.02s.05-.06,.08-.08l.02-.02s.05-.05,.08-.08l.02-.02s.05-.05,.08-.08l.03-.02s.05-.05,.08-.07l.03-.03s.05-.05,.08-.07l.03-.03,.07-.07,.04-.03,.07-.06,.04-.03,.07-.06,.05-.04s.04-.03,.06-.05c.02-.01,.03-.03,.05-.04l.06-.05,.06-.05,.05-.04s.05-.04,.07-.06l.04-.03,.07-.06,.04-.03s.05-.04,.08-.06l.03-.02,.09-.06,.03-.02s.06-.04,.09-.06l.03-.02,.09-.06,.03-.02s.06-.04,.09-.06l.03-.02s.07-.04,.1-.06h.02s.07-.05,.11-.08h.02s.07-.05,.11-.07h.02s.07-.05,.11-.07h0s.08-.05,.12-.07h0s.08-.05,.12-.07Z"/><path class="cls-3" d="M13.88,26.54l1.85-3.97c-2.28,.51-4.34,1.59-6.02,3.09l-.02,.02-.06,.06c-.79,.71-1.49,1.52-2.09,2.4l2.87,1.33s.06-.08,.09-.11h0s.06-.08,.09-.11h0s.06-.08,.09-.11h0s.06-.08,.09-.11h.01s.06-.08,.09-.11h.01s.06-.08,.09-.11h.01s.06-.08,.09-.11l.02-.02s.06-.06,.08-.09v-.02s.07-.06,.1-.09l.02-.02s.06-.06,.09-.09l.02-.02,.09-.09,.02-.02s.06-.06,.09-.08l.02-.02s.06-.05,.09-.08l.02-.02s.06-.05,.09-.08l.02-.02s.06-.05,.09-.08l.02-.02s.06-.05,.09-.08l.03-.02s.06-.05,.09-.07l.02-.02s.06-.05,.09-.07l.03-.02s.06-.05,.09-.07l.03-.02s.06-.05,.09-.07l.03-.02s.06-.05,.09-.07l.03-.02s.06-.04,.09-.06l.03-.02s.06-.04,.09-.06l.03-.02,.09-.06,.03-.02s.06-.04,.09-.06l.03-.02s.06-.04,.09-.06l.04-.02s.06-.04,.09-.05l.04-.02s.06-.04,.09-.05l.03-.02,.09-.05,.03-.02s.06-.03,.09-.05l.04-.02,.1-.05,.03-.02h0Z"/><path class="cls-4" d="M13.85,26.56l1.86-3.98c-2.28,.51-4.33,1.6-6.02,3.1h0l-.07,.06c-.78,.71-1.48,1.51-2.08,2.39l2.87,1.33s.06-.08,.09-.11h0s.06-.08,.09-.11h0l.09-.11h0l.08-.11h.01s.06-.08,.09-.11h0s.06-.08,.09-.11h.01s.06-.08,.09-.11v-.02s.07-.06,.1-.09h.01s.06-.07,.09-.1v-.02s.07-.06,.1-.09h.01s.06-.07,.09-.1h.01l.09-.1h.01l.1-.1h.01s.06-.07,.1-.1l.02-.02s.06-.05,.09-.08h.02s.06-.07,.09-.09l.03-.02s.06-.05,.09-.07l.02-.02s.06-.05,.09-.07l.03-.02s.06-.04,.08-.06l.03-.02s.06-.04,.08-.06l.03-.02,.08-.06,.03-.02,.08-.06,.03-.02s.06-.04,.09-.06l.03-.02,.09-.06,.04-.02,.09-.06,.04-.03s.05-.03,.08-.05l.05-.03,.08-.05,.05-.03,.07-.04,.06-.03,.07-.04,.05-.03,.08-.04,.05-.03s.06-.03,.09-.05Z"/><path class="cls-83" d="M13.82,26.57l1.86-3.99c-2.3,.52-4.38,1.63-6.07,3.16-.78,.71-1.48,1.51-2.08,2.39l2.87,1.33s.06-.08,.09-.11h0l.09-.11h0s.06-.08,.09-.11h.01s.05-.08,.08-.11v-.02l.1-.09h.01s.06-.08,.08-.11h.01l.08-.1,.02-.02,.08-.09,.02-.02s.05-.06,.08-.08l.02-.02s.06-.06,.08-.08l.02-.02s.06-.06,.09-.08l.02-.02,.08-.07,.04-.03s.05-.05,.07-.07l.04-.03,.07-.06,.04-.04,.07-.06,.04-.03s.05-.04,.07-.06l.05-.04,.07-.05,.05-.04,.07-.05s.03-.03,.05-.04l.06-.05s.05-.04,.07-.05l.04-.03,.08-.06,.04-.03,.08-.06,.04-.02s.06-.04,.09-.06l.03-.02s.06-.04,.09-.06h.02s.07-.06,.1-.08h.02l.1-.08h.02c.22-.15,.44-.27,.66-.39Z"/><path class="cls-80" d="M13.8,26.59l1.86-4c-2.29,.52-4.36,1.63-6.04,3.15-.78,.71-1.48,1.51-2.08,2.39l2.87,1.33s.06-.08,.09-.11h0s.06-.08,.09-.11h0s.06-.08,.08-.11h0l.08-.11v-.02s.07-.06,.1-.09v-.02s.07-.06,.1-.09v-.02s.07-.06,.1-.09l.02-.02,.08-.09,.02-.02s.06-.06,.09-.09l.02-.02s.06-.06,.09-.09l.02-.02s.06-.06,.08-.08l.02-.02,.08-.08,.03-.03s.05-.05,.07-.07l.03-.03s.05-.04,.07-.06l.04-.03s.05-.04,.07-.06l.04-.03,.07-.06,.05-.04,.06-.05,.06-.05,.04-.04s.05-.04,.08-.06l.04-.03s.05-.04,.08-.06l.03-.03s.06-.04,.08-.06l.03-.02s.06-.04,.09-.06l.02-.02s.06-.04,.09-.07h.02c.21-.16,.42-.29,.63-.42h0c.08-.05,.16-.09,.24-.14h0s.08-.05,.12-.07Z"/><path class="cls-81" d="M13.77,26.6l1.87-4.01c-2.28,.53-4.34,1.63-6.02,3.15-.78,.71-1.48,1.51-2.08,2.39l2.87,1.33s.06-.08,.09-.11h0s.06-.08,.09-.11h0s.06-.08,.08-.11h.01s.05-.08,.08-.11v-.02s.07-.06,.1-.09h.01s.06-.08,.09-.11h.01s.06-.07,.09-.11h.01s.06-.08,.09-.11h0s.06-.07,.09-.11h.01s.06-.07,.09-.1l.02-.02s.06-.06,.09-.08l.02-.02s.06-.05,.08-.08l.03-.02s.05-.05,.08-.07l.03-.03,.08-.07,.03-.03s.05-.04,.08-.07l.03-.03,.07-.06,.05-.04s.04-.03,.06-.05l.05-.04s.04-.03,.06-.05l.05-.04,.06-.05,.06-.04,.07-.05,.05-.04,.07-.05,.05-.04,.07-.05s.03-.02,.05-.03c.02-.02,.05-.03,.07-.05,.02-.02,.05-.03,.07-.05l.05-.03,.08-.05,.04-.03,.08-.05,.04-.02s.06-.03,.08-.05l.04-.02,.09-.05,.04-.02,.09-.05,.04-.03,.08-.04,.06-.03s.05-.02,.07-.04Z"/><path class="cls-79" d="M13.74,26.62l1.87-4.02c-2.27,.53-4.32,1.63-5.99,3.14-.78,.71-1.48,1.51-2.08,2.39l2.87,1.33s.06-.08,.09-.11h0s.06-.08,.09-.11h0s.06-.08,.08-.11h.01s.05-.08,.08-.11h.01s.06-.08,.08-.11h0s.06-.08,.09-.11h0s.06-.07,.09-.11h0s.06-.08,.1-.11h0s.06-.07,.1-.1h0s.06-.07,.09-.1h.01s.06-.07,.09-.1h.01s.06-.07,.09-.1h.01s.06-.07,.09-.1h.01s.07-.07,.1-.1h0s.07-.07,.11-.1h0s.07-.06,.11-.09h.01s.06-.07,.1-.09h.01s.07-.06,.1-.09h.02s.06-.06,.1-.09h.02s.07-.06,.1-.09h.01s.07-.06,.1-.09h.02s.07-.06,.11-.09h0s.08-.06,.12-.09h0s.07-.06,.11-.08h.01s.07-.06,.11-.08h.01l.11-.08h.02s.07-.05,.11-.08h.02s.07-.05,.11-.07h.02s.08-.05,.12-.08h0s.08-.05,.12-.07h0Z"/><path class="cls-86" d="M13.71,26.63l1.88-4.03c-2.26,.53-4.3,1.63-5.97,3.13-.78,.71-1.48,1.51-2.08,2.39l2.87,1.33s.06-.08,.09-.11h0l.08-.11h0s.06-.08,.08-.11h.01s.05-.08,.08-.11v-.02s.07-.06,.1-.1h.01s.06-.08,.09-.11h0s.06-.07,.09-.11h0s.06-.07,.09-.1v-.02s.07-.06,.1-.09l.02-.02s.06-.06,.09-.08l.02-.02s.06-.06,.09-.08l.02-.02,.09-.08,.02-.02s.06-.05,.09-.08l.03-.03s.05-.05,.08-.07l.03-.03,.08-.07,.03-.02,.08-.07,.04-.03s.05-.04,.08-.06l.04-.03,.07-.06,.04-.03,.07-.06,.05-.04,.06-.05s.04-.03,.05-.04l.06-.05,.06-.04s.04-.03,.07-.05l.06-.04,.07-.05,.05-.03s.05-.03,.07-.05l.06-.04,.06-.04,.07-.04,.05-.03s.05-.03,.08-.05l.04-.03s.06-.03,.08-.05l.04-.02s.06-.03,.08-.05l.04-.02s.05-.03,.08-.05l.06-.04h0Z"/><path class="cls-87" d="M13.68,26.65l1.88-4.04c-2.25,.53-4.27,1.62-5.93,3.12-.79,.71-1.49,1.52-2.09,2.4l2.87,1.33s.06-.08,.09-.11h0s.05-.08,.08-.11h0s.05-.08,.08-.11h.01s.05-.08,.08-.11v-.02s.07-.06,.1-.1h.01s.06-.08,.09-.11h0s.06-.07,.09-.11v-.02s.07-.06,.1-.09l.02-.02s.05-.06,.08-.08l.02-.02s.05-.05,.08-.08l.02-.02s.05-.05,.08-.08l.02-.02,.08-.08,.04-.03s.05-.05,.07-.07l.04-.03s.05-.04,.07-.06l.04-.03,.07-.06,.04-.03,.07-.06s.03-.03,.05-.04l.06-.05,.06-.05,.05-.04,.07-.06,.04-.03s.05-.04,.07-.06l.04-.03s.05-.04,.08-.06l.03-.02s.06-.04,.08-.06l.06-.04h0s.07-.05,.1-.07h.02s.06-.06,.1-.08h.02s.07-.06,.1-.08h.01s.07-.05,.11-.08h0c.17-.11,.35-.21,.52-.31h0Zm-1.12,.71s.06-.04,.08-.06l-.08,.06Z"/><path class="cls-89" d="M13.65,26.67l1.89-4.05c-2.23,.53-4.24,1.62-5.89,3.1-.79,.72-1.5,1.53-2.11,2.42l2.87,1.33s.06-.08,.09-.11h0s.05-.08,.08-.11h.01s.05-.08,.08-.11h.01s.05-.08,.08-.11h.01s.06-.08,.09-.11h0s.06-.08,.09-.11h0s.06-.07,.09-.1l.02-.02s.05-.06,.08-.09l.02-.02s.05-.05,.08-.08l.02-.02s.05-.05,.08-.08l.02-.02s.06-.06,.09-.08l.02-.02s.06-.05,.08-.08l.03-.03s.05-.05,.08-.07l.03-.03,.07-.06,.03-.03s.05-.04,.07-.06l.03-.03s.05-.04,.07-.06l.05-.04,.06-.05,.06-.05,.06-.05,.05-.04,.06-.05,.05-.04s.04-.03,.06-.05l.06-.05,.05-.04s.05-.04,.08-.05l.04-.03s.05-.04,.08-.06l.04-.02s.05-.04,.08-.06l.03-.02s.06-.04,.09-.06l.06-.04,.1-.06h.02l.1-.07h.02s.07-.05,.1-.07h.01s.07-.05,.11-.07h0s.07-.05,.11-.07h0Zm-.73,.44s.06-.04,.09-.06l-.09,.06Z"/><path class="cls-47" d="M13.59,26.7l1.9-4.07c-2.21,.54-4.21,1.62-5.85,3.09-.79,.72-1.5,1.52-2.1,2.41l2.87,1.33,.09-.11h0s.06-.08,.08-.11h0l.08-.11h0s.06-.08,.09-.11h0s.06-.08,.09-.12h0s.06-.07,.09-.11h0l.09-.11h.01l.09-.11h.01l.09-.11h0s.07-.07,.1-.11h.01s.06-.07,.09-.1h.02s.06-.07,.09-.1l.02-.02s.06-.06,.09-.08h.02s.06-.07,.09-.1l.02-.02s.06-.05,.09-.08l.02-.02s.06-.05,.09-.07l.03-.02s.06-.05,.09-.07l.02-.02s.06-.05,.09-.07l.03-.02s.06-.05,.09-.07l.03-.02s.06-.04,.09-.07l.03-.02s.06-.04,.09-.06l.03-.02,.09-.06,.03-.02s.06-.04,.09-.06l.04-.02s.06-.04,.09-.06l.03-.02s.06-.04,.09-.06l.03-.02s.06-.04,.09-.05l.04-.02s.06-.04,.09-.05l.04-.03,.08-.05,.05-.03,.09-.05Z"/><path class="cls-51" d="M13.56,26.72l1.9-4.08c-2.2,.54-4.2,1.62-5.83,3.09-.79,.71-1.5,1.52-2.1,2.41l2.87,1.33s.06-.08,.09-.11h0s.05-.08,.08-.11h0s.06-.08,.08-.11h0s.06-.08,.09-.11h0s.06-.08,.09-.11h0s.06-.07,.09-.11h.01s.06-.07,.08-.1l.02-.02s.06-.06,.08-.09v-.02s.08-.06,.11-.09l.02-.02s.06-.06,.08-.08l.02-.02s.05-.05,.08-.08l.03-.02s.05-.05,.08-.07l.03-.03s.05-.05,.08-.07l.04-.03s.05-.05,.08-.07l.04-.03s.05-.04,.07-.06l.04-.03,.07-.06,.05-.04,.06-.05,.06-.05,.05-.04,.06-.05,.05-.04,.06-.05,.06-.04s.05-.04,.07-.06l.04-.03s.05-.04,.08-.06l.03-.02s.05-.04,.08-.06l.03-.02,.09-.06,.05-.04s.06-.04,.1-.06h.02s.06-.05,.1-.07h.02s.07-.05,.1-.07h.01c.09-.06,.18-.12,.28-.17h0Zm-.76,.48l.09-.06-.09,.06Z"/><path class="cls-42" d="M13.54,26.73l1.91-4.09c-2.2,.54-4.18,1.62-5.81,3.09-.79,.71-1.49,1.52-2.1,2.4l2.87,1.33s.06-.08,.09-.11h0s.05-.08,.08-.11h.01s.06-.08,.08-.11h0s.06-.08,.09-.12h0s.06-.07,.09-.11h.01s.06-.08,.08-.11v-.02s.07-.06,.1-.09l.02-.02s.06-.06,.09-.09l.02-.02s.06-.06,.08-.09l.02-.02s.05-.05,.08-.08l.02-.02s.05-.05,.08-.08l.03-.03,.08-.07,.03-.03s.05-.05,.08-.07l.03-.03s.05-.04,.07-.06l.04-.03s.04-.04,.07-.06c.02-.02,.03-.03,.05-.05l.05-.05,.06-.05,.05-.04s.04-.03,.06-.05l.05-.04,.07-.06,.04-.03,.08-.06,.03-.02,.08-.06,.03-.02s.06-.04,.09-.06h0s.1-.07,.15-.11h0s.07-.05,.1-.07h.01s.07-.05,.1-.08h0c.16-.11,.33-.21,.5-.31Z"/><path class="cls-44" d="M13.51,26.75l1.91-4.1c-2.19,.54-4.16,1.62-5.79,3.08-.79,.71-1.49,1.52-2.1,2.4l2.87,1.33s.06-.08,.09-.11h0s.05-.08,.08-.11h0s.06-.08,.08-.11h0s.06-.08,.09-.12h0s.06-.08,.09-.11h0s.06-.08,.09-.11h0s.06-.07,.09-.11h.01s.06-.08,.09-.11h.01s.06-.07,.09-.1l.02-.02s.06-.06,.09-.09l.02-.02s.06-.06,.09-.09l.02-.02s.06-.06,.09-.08l.02-.02s.05-.05,.08-.07l.03-.02,.08-.07,.03-.02s.06-.05,.08-.07l.03-.03s.05-.04,.08-.07l.04-.03,.07-.06,.04-.03,.07-.06,.05-.04,.07-.05,.05-.04,.07-.05,.04-.03,.07-.05,.06-.04,.06-.04,.06-.04,.06-.04s.04-.03,.06-.04c.02-.02,.05-.03,.07-.05l.05-.03,.07-.04,.07-.04,.05-.03,.07-.04,.05-.03,.07-.04,.07-.04,.05-.03Z"/><path class="cls-43" d="M13.48,26.77l1.92-4.11c-2.13,.54-4.07,1.58-5.67,2.99h0s-.06,.06-.09,.09c-.79,.71-1.49,1.52-2.09,2.4l2.87,1.33s.06-.07,.09-.11h0s.05-.08,.08-.11h0s.06-.08,.08-.11h0s.06-.08,.09-.11h0s.06-.08,.09-.11h0s.06-.08,.09-.11h0s.06-.08,.1-.11h0s.06-.07,.09-.1h.01s.06-.07,.09-.1h.01s.06-.08,.1-.11h0l.1-.1h0s.06-.07,.1-.1h.01s.06-.07,.09-.1h0s.07-.07,.1-.1h.01s.07-.07,.1-.1h.01l.1-.09,.02-.02,.1-.08h0s.07-.06,.11-.09h.02l.1-.09h.02s.06-.06,.1-.09h.02s.07-.07,.11-.09h0s.07-.06,.11-.08h.02s.07-.06,.1-.08h.02l.1-.08h.02s.07-.06,.11-.08h.02l.1-.08h.02s.07-.05,.1-.08h.02s.07-.06,.11-.08h0Z"/><path class="cls-49" d="M13.45,26.78h0l1.92-4.12c-2.13,.54-4.05,1.58-5.65,2.99h0s-.06,.06-.08,.08c-.79,.71-1.49,1.52-2.09,2.4l2.87,1.33s.06-.08,.09-.11h0s.05-.08,.08-.11h0s.06-.08,.09-.12h0s.06-.08,.09-.11h.01s.05-.08,.08-.11h.01s.06-.08,.09-.11h0s.06-.08,.09-.11v-.02s.07-.06,.1-.09l.02-.02s.06-.06,.08-.09l.02-.02s.06-.06,.09-.09l.02-.02s.06-.05,.08-.08l.02-.02s.05-.05,.08-.07l.03-.02s.05-.05,.08-.07l.04-.03s.05-.05,.08-.07l.04-.03s.05-.04,.07-.06l.04-.03,.07-.06,.06-.05,.06-.05s.04-.03,.06-.05c.02-.02,.04-.03,.06-.05l.05-.04,.06-.04,.07-.05,.04-.03,.07-.05,.05-.04,.06-.05,.06-.04s.05-.04,.08-.05l.04-.02,.08-.06,.03-.02,.09-.06,.05-.03h0s.06-.04,.09-.06h.02s.06-.05,.09-.07h.02s.06-.05,.1-.07l.06-.03h0Zm-.52,.33l.09-.06-.09,.06h0Zm.37-.24s.06-.04,.1-.06l-.1,.06Z"/><path class="cls-48" d="M13.42,26.8l1.93-4.13c-2.12,.54-4.03,1.58-5.62,2.98l-.02,.02-.07,.06c-.79,.71-1.49,1.52-2.09,2.4l2.87,1.33s.06-.08,.09-.11h0s.05-.08,.08-.11h0s.06-.08,.09-.12h0s.06-.07,.09-.11h.01s.06-.08,.08-.11h.01s.06-.08,.09-.11h0s.06-.07,.09-.11l.02-.02s.05-.06,.08-.09l.02-.02s.06-.06,.08-.08l.02-.02s.06-.06,.09-.09l.02-.02s.05-.05,.08-.08l.03-.03,.08-.07,.04-.04s.05-.04,.07-.07l.04-.03s.05-.04,.07-.06l.04-.03s.04-.04,.07-.06l.06-.05,.05-.04,.06-.05,.06-.05s.04-.04,.07-.05l.04-.03s.05-.04,.08-.06l.03-.02s.05-.04,.08-.06l.03-.02s.08-.06,.12-.09h.01s.06-.06,.09-.08h.02s.06-.06,.09-.08h0c.09-.06,.17-.12,.26-.17h0c.12-.08,.25-.16,.37-.23Z"/><path class="cls-52" d="M13.39,26.82l1.93-4.15c-2.11,.54-4.02,1.58-5.6,2.98l-.03,.02s-.04,.04-.06,.06c-.79,.71-1.49,1.52-2.09,2.4l2.87,1.33s.06-.07,.09-.11h0s.06-.08,.08-.11h0s.06-.08,.09-.12h0s.06-.07,.09-.11v-.02s.07-.06,.1-.09h.01s.06-.08,.09-.11h0s.06-.07,.09-.1l.02-.02s.06-.06,.08-.09v-.02s.07-.06,.11-.09l.02-.02s.05-.05,.08-.08l.02-.02,.08-.08,.02-.02s.06-.06,.09-.09l.03-.02s.05-.05,.08-.07l.03-.03s.05-.04,.07-.07l.04-.04s.05-.04,.07-.06l.04-.03s.04-.04,.07-.06l.04-.04,.07-.05,.06-.05,.05-.04,.06-.05s.04-.03,.06-.05l.06-.05s.03-.03,.05-.04l.07-.05,.04-.03s.05-.04,.08-.06c.02-.01,.04-.03,.06-.04,.03-.02,.05-.04,.08-.05l.03-.02,.08-.06,.03-.02s.05-.04,.08-.05h0l.05-.03h0l.09-.06,.03-.02s.06-.04,.09-.06h.02s.06-.05,.1-.07Z"/><path class="cls-50" d="M13.36,26.84l1.94-4.16c-2.11,.54-4.01,1.58-5.59,2.98h-.01l-.07,.07c-.78,.71-1.49,1.52-2.09,2.4l2.87,1.33s.06-.07,.09-.11h0s.05-.08,.08-.11h0s.06-.08,.09-.12h0s.06-.07,.09-.11h.01s.06-.08,.09-.11h0s.06-.08,.09-.11h0s.06-.07,.09-.1h.01s.06-.08,.09-.11h0l.1-.1h.01s.06-.07,.09-.1h0s.07-.07,.1-.11h0s.06-.07,.1-.1h.01s.06-.07,.09-.1h.01s.07-.07,.1-.1h.01s.06-.07,.09-.09h.02s.06-.07,.09-.09h.02s.07-.07,.1-.1h.02s.06-.06,.09-.09l.02-.02s.07-.05,.1-.08h.02s.07-.06,.1-.09h.02s.06-.06,.1-.09h.02s.07-.06,.11-.09h.02s.07-.06,.1-.08h.02l.1-.08h.02s.07-.06,.11-.08h.02s.07-.06,.1-.08h.02s.07-.06,.1-.08h.02Z"/><path class="cls-46" d="M13.33,26.85l1.94-4.17c-2.1,.55-4,1.59-5.57,2.99h0s-.05,.05-.07,.07c-.78,.71-1.48,1.51-2.09,2.39l2.87,1.33s.06-.08,.09-.11h0s.06-.08,.08-.11h0s.06-.08,.09-.12h0s.06-.07,.08-.11h.01s.06-.08,.09-.11h0s.06-.07,.09-.11h.01s.06-.07,.08-.1l.02-.02s.06-.06,.09-.1h.01s.06-.07,.08-.1l.02-.02s.06-.06,.08-.08l.02-.02s.06-.06,.09-.09l.02-.02s.05-.05,.08-.07l.03-.03,.08-.07,.04-.03s.05-.05,.08-.07l.03-.03s.05-.04,.07-.06l.04-.04,.07-.06s.03-.03,.05-.04c.02-.02,.04-.04,.07-.05l.04-.03,.07-.06,.06-.05,.06-.04,.06-.04,.06-.05s.04-.03,.06-.05l.05-.04,.07-.05,.06-.04,.06-.04,.06-.04s.05-.03,.07-.05l.04-.03,.07-.05,.06-.04,.07-.05,.04-.03,.08-.05,.05-.03h.01Z"/><path class="cls-74" d="M13.27,26.89l1.95-4.19c-2.12,.56-4.03,1.62-5.6,3.04-.78,.71-1.48,1.51-2.08,2.39l2.87,1.33s.06-.07,.09-.11h0s.06-.08,.08-.12h0s.06-.08,.09-.11h0s.06-.08,.08-.11h0s.06-.08,.09-.11h0s.06-.07,.09-.11h.01s.06-.08,.09-.11l.02-.02s.06-.06,.08-.09l.02-.02s.05-.06,.08-.08l.02-.02s.06-.06,.09-.09l.02-.02s.05-.05,.08-.07l.02-.02s.06-.05,.08-.08l.03-.03,.07-.07,.03-.03s.05-.04,.07-.06l.05-.04s.04-.04,.07-.06l.04-.04s.04-.03,.06-.05c.02-.02,.04-.03,.06-.05l.05-.04,.06-.05s.04-.03,.06-.05l.07-.06,.03-.03s.05-.04,.08-.06l.04-.03s.06-.05,.09-.07l.03-.02,.08-.06h.02s.08-.07,.12-.1h.02l.09-.07h.02c.08-.06,.16-.12,.24-.17h.01s.06-.05,.1-.07Z"/><path class="cls-77" d="M13.24,26.91l1.96-4.2c-2.11,.56-4.01,1.62-5.58,3.04-.78,.71-1.48,1.51-2.08,2.39l2.87,1.33s.06-.07,.09-.11h0s.06-.08,.09-.12h0s.06-.07,.09-.11h0s.06-.08,.09-.11h0s.06-.08,.09-.11h0s.06-.08,.09-.11h0s.06-.07,.09-.11h0s.06-.07,.09-.1h.01s.06-.08,.1-.11h0s.06-.07,.09-.1h.01l.1-.11h0s.06-.07,.1-.1h.01s.06-.07,.09-.1h.01s.07-.07,.1-.1l.02-.02s.06-.05,.09-.08h.01s.07-.07,.1-.1l.02-.02s.06-.05,.09-.07l.02-.02,.1-.08,.02-.02,.09-.07,.02-.02s.06-.05,.1-.07l.02-.02s.06-.05,.09-.07l.03-.02s.06-.04,.09-.07l.03-.02s.06-.04,.1-.07l.03-.02s.06-.04,.09-.06l.03-.02s.07-.04,.1-.06l.02-.02s.06-.04,.1-.06l.03-.02h0Z"/><path class="cls-54" d="M13.21,26.93l1.97-4.22c-2.09,.56-3.99,1.62-5.55,3.03-.78,.71-1.48,1.51-2.09,2.39l2.87,1.33s.06-.07,.09-.11h0s.06-.08,.08-.12h0s.06-.08,.09-.11h0s.06-.08,.09-.11h0s.06-.08,.09-.11h0s.06-.08,.09-.11h0s.06-.07,.09-.11v-.02s.07-.06,.1-.09h.01s.06-.08,.09-.11l.02-.02s.06-.06,.09-.09l.02-.02s.06-.06,.09-.09l.02-.02,.08-.08,.02-.02s.06-.06,.09-.08l.02-.02s.05-.05,.08-.07l.03-.03,.08-.07,.03-.03,.08-.06,.03-.03,.08-.06,.04-.03s.05-.04,.07-.06l.04-.03,.07-.06,.05-.04,.07-.06,.04-.03,.07-.05,.05-.04s.05-.03,.07-.05l.04-.03s.05-.03,.07-.05l.05-.04,.08-.05,.05-.03s.05-.03,.07-.05l.06-.04,.07-.05h0Z"/><path class="cls-58" d="M13.18,26.95l1.97-4.23c-2.08,.56-3.96,1.61-5.52,3.02-.79,.71-1.49,1.52-2.09,2.4l2.87,1.33s.06-.07,.09-.11h0s.06-.08,.09-.12h0s.06-.07,.09-.11h0s.06-.08,.09-.11h0s.06-.08,.08-.11h.01s.06-.08,.09-.11h.01l.09-.1,.02-.02s.06-.06,.08-.09l.02-.02s.05-.06,.08-.08l.02-.03,.08-.08,.03-.03s.05-.05,.08-.08l.03-.03s.05-.05,.07-.07l.04-.04s.05-.04,.07-.06l.04-.03s.04-.04,.07-.06l.05-.05,.06-.06,.04-.04s.04-.03,.06-.05c.02-.02,.04-.04,.06-.05l.05-.04s.05-.04,.08-.06l.04-.03s.05-.04,.08-.06l.03-.03s.07-.05,.1-.08l.02-.02s.05-.04,.08-.06l.03-.02s.08-.05,.11-.08h.01l.09-.07h0c.08-.06,.16-.11,.24-.16h.01s.09-.06,.14-.09h0Z"/><path class="cls-73" d="M13.15,26.97l1.98-4.24c-2.07,.56-3.94,1.61-5.49,3-.79,.71-1.49,1.52-2.1,2.4l2.87,1.33s.06-.07,.09-.11h0s.06-.08,.09-.12h0s.06-.08,.09-.11h0s.06-.08,.09-.11h0s.06-.07,.09-.11h.01s.06-.08,.09-.11h0s.06-.07,.08-.1l.02-.02s.06-.06,.09-.09l.02-.02s.05-.06,.08-.08l.02-.02s.06-.06,.09-.09l.02-.02,.08-.07,.03-.03s.05-.05,.08-.08l.03-.03,.07-.06,.04-.04,.07-.06,.04-.04s.04-.04,.06-.06l.05-.04s.04-.03,.06-.05c.02-.02,.04-.03,.06-.05l.05-.05s.05-.04,.07-.06l.04-.03s.06-.04,.08-.07l.04-.03s.05-.04,.08-.06l.03-.02s.07-.05,.1-.08l.02-.02s.06-.04,.09-.06h.02s.08-.06,.11-.09l.02-.02s.06-.04,.09-.06h.02s.08-.06,.12-.09h.02l.09-.07h0Z"/><path class="cls-76" d="M13.12,26.98l1.98-4.25c-2.06,.57-3.92,1.61-5.47,3-.79,.71-1.49,1.52-2.1,2.4l2.87,1.33s.06-.07,.09-.11h0s.06-.08,.09-.12h0s.06-.08,.09-.11h0s.06-.08,.09-.11h0s.06-.08,.09-.11h0s.06-.08,.09-.11h0s.06-.07,.09-.1h.01s.06-.08,.09-.11h.01s.06-.07,.09-.11h0s.06-.07,.1-.1h.01s.06-.07,.09-.1h.01s.06-.07,.09-.1l.02-.02s.06-.06,.09-.09h.02s.06-.07,.09-.09l.02-.02s.06-.05,.09-.08l.02-.02,.08-.07,.03-.02s.06-.05,.09-.07l.03-.02s.06-.04,.08-.07l.03-.02,.09-.07,.03-.02,.08-.06,.03-.03s.06-.04,.09-.06l.03-.02,.09-.06,.04-.03s.06-.04,.08-.06l.03-.02s.06-.04,.09-.06l.04-.03s.05-.04,.08-.05l.03-.02Z"/><path class="cls-59" d="M13.09,27l1.99-4.27c-2.05,.57-3.9,1.6-5.44,2.99-.79,.71-1.5,1.52-2.1,2.41l2.87,1.33s.06-.07,.09-.11h0s.06-.08,.09-.12h0s.06-.08,.09-.11h0s.06-.08,.09-.11h0l.09-.11h0s.06-.08,.09-.11h0s.06-.08,.09-.11h0s.06-.07,.09-.1h.01s.06-.08,.09-.11h.01s.06-.07,.09-.1h.01s.06-.07,.09-.1h.01s.06-.07,.09-.1l.02-.02s.06-.06,.09-.08l.02-.02,.09-.08,.03-.02,.08-.07,.02-.02,.09-.07,.03-.03s.05-.04,.08-.07l.03-.02s.06-.05,.09-.07l.03-.02s.05-.04,.08-.06l.04-.03,.08-.06,.03-.02s.05-.04,.08-.06l.04-.03s.06-.04,.08-.06l.03-.02s.06-.04,.09-.06l.04-.02s.06-.04,.08-.06l.04-.03,.09-.06Z"/><path class="cls-57" d="M13.06,27.02l2-4.28c-2.04,.57-3.88,1.6-5.41,2.98-.79,.71-1.5,1.52-2.1,2.41l2.87,1.33s.06-.07,.09-.11h0s.06-.08,.09-.12h0s.06-.08,.09-.11h0s.06-.08,.09-.11h.01s.06-.08,.09-.11h0s.06-.07,.09-.11h.01l.09-.11,.02-.02s.05-.06,.08-.09l.02-.02s.06-.06,.09-.09l.02-.02,.08-.08,.02-.02,.08-.08,.03-.03s.05-.05,.08-.07l.04-.03,.07-.06,.04-.04,.06-.06,.04-.04s.04-.04,.06-.05l.06-.05s.04-.03,.06-.05l.06-.05,.05-.04,.06-.05,.05-.04s.05-.04,.07-.06l.03-.02s.06-.05,.09-.07l.03-.02s.05-.04,.08-.06l.02-.02s.07-.05,.11-.08h.02l.08-.07,.05-.03s.06-.04,.09-.06h0s.09-.06,.13-.09h0Zm-.37,.24l.08-.06-.08,.06Z"/><path class="cls-53" d="M12.99,27.06l2.01-4.3c-2.02,.57-3.85,1.6-5.37,2.97-.79,.71-1.49,1.52-2.1,2.4l2.87,1.33s.06-.07,.09-.11h0s.06-.08,.09-.12h0s.06-.08,.09-.12h0s.06-.07,.09-.11h0s.06-.08,.09-.11h0s.06-.08,.09-.11h0s.06-.07,.09-.1h.01s.06-.08,.09-.11h0s.06-.07,.09-.1h0s.06-.07,.09-.1h.01s.06-.07,.09-.1h.01s.06-.07,.09-.1h.01s.06-.07,.09-.1l.02-.02s.06-.05,.09-.08l.02-.02s.06-.05,.09-.08l.02-.02s.06-.05,.09-.08l.03-.02s.06-.05,.09-.07l.03-.02,.08-.07,.03-.02,.09-.07,.03-.02s.06-.04,.09-.06l.03-.02,.09-.06,.03-.02s.06-.05,.1-.07l.03-.02,.09-.06,.03-.02s.06-.04,.09-.06l.03-.02h0Z"/><path class="cls-56" d="M12.96,27.08l2.01-4.32c-1.97,.56-3.75,1.56-5.25,2.88h0s-.06,.06-.09,.09c-.79,.71-1.49,1.52-2.1,2.4l2.87,1.33s.06-.07,.09-.11h0s.06-.08,.09-.12h0s.06-.08,.09-.12h0s.06-.07,.09-.11h0s.06-.08,.09-.11h0s.06-.08,.09-.11h0s.06-.07,.09-.1h.01s.06-.08,.09-.11h.01s.06-.08,.09-.11h.01s.06-.07,.09-.1h.01s.06-.07,.09-.1l.02-.02s.06-.06,.09-.08l.02-.02s.06-.05,.08-.08l.02-.02s.06-.05,.09-.08l.03-.02s.06-.05,.09-.08l.02-.02s.05-.05,.08-.07l.04-.03,.08-.07,.03-.02,.08-.06,.04-.03s.05-.04,.08-.06l.04-.03s.05-.04,.08-.06l.03-.02s.06-.04,.08-.06l.04-.03s.05-.04,.08-.05l.04-.03,.08-.06,.04-.03s.06-.04,.08-.06h0Z"/><path class="cls-55" d="M12.93,27.11l2.02-4.33c-1.96,.56-3.74,1.56-5.22,2.87l-.02,.02s-.05,.05-.08,.07c-.79,.71-1.49,1.52-2.1,2.4l2.87,1.33s.06-.08,.09-.11h0s.06-.08,.09-.11h0s.06-.08,.09-.12h0s.06-.07,.09-.11h0s.06-.08,.09-.11h.01s.06-.08,.09-.11h.01s.06-.07,.08-.1l.02-.02s.05-.06,.08-.09l.02-.02,.08-.08,.02-.03s.05-.05,.08-.08l.03-.03s.05-.05,.07-.07l.04-.03s.05-.05,.07-.07l.03-.03,.07-.06,.05-.04s.04-.03,.06-.05c.02-.02,.04-.04,.06-.05l.05-.05s.04-.04,.06-.05l.04-.03,.08-.07,.03-.02s.05-.04,.08-.06h0l.04-.04s.05-.04,.08-.06h.01s.08-.07,.11-.1h.01c.11-.09,.23-.18,.35-.26h0s.09-.06,.13-.09Z"/><path class="cls-28" d="M12.9,27.13l2.03-4.35c-1.95,.56-3.72,1.56-5.2,2.87l-.03,.02-.07,.06c-.79,.71-1.49,1.52-2.1,2.4l2.87,1.33s.06-.08,.09-.11h0s.06-.08,.09-.11h0s.06-.08,.09-.12h0s.06-.08,.09-.11h0s.06-.08,.09-.11h0s.06-.08,.09-.11v-.02s.07-.06,.1-.09l.02-.02s.05-.06,.08-.08l.02-.02s.05-.06,.08-.08l.02-.02s.06-.06,.08-.08l.02-.02,.07-.07,.03-.03s.05-.04,.07-.06l.04-.04,.07-.06,.04-.04s.04-.04,.06-.05l.05-.04s.04-.03,.06-.05c.02-.02,.04-.03,.06-.05,.02-.01,.03-.03,.05-.04l.07-.06,.04-.03s.06-.05,.08-.07l.03-.02s.07-.05,.1-.08h.01s.06-.05,.08-.07l.04-.03s.05-.04,.08-.06h.02s.07-.07,.11-.09h.02s.08-.07,.12-.1h0s.06-.04,.09-.06h0Zm-.56,.41s.06-.04,.08-.06l-.08,.06Z"/><path class="cls-70" d="M12.87,27.15l2.03-4.36c-1.95,.57-3.71,1.56-5.19,2.87h-.01s-.05,.06-.07,.08c-.79,.71-1.49,1.52-2.09,2.4l2.87,1.33s.06-.08,.09-.11h0s.06-.08,.09-.11h0s.06-.08,.09-.12h0s.06-.08,.09-.11h0s.06-.08,.09-.11h0s.06-.07,.09-.11h0s.06-.07,.09-.11h.01s.06-.08,.09-.11h.01s.06-.07,.09-.1h.01s.06-.07,.09-.1h.01l.09-.1h.02s.06-.07,.09-.1l.02-.02s.06-.05,.09-.08l.02-.02s.06-.05,.09-.08l.02-.02s.06-.05,.09-.08l.02-.02s.06-.05,.09-.08l.02-.02,.09-.07,.03-.02s.06-.05,.08-.07l.03-.02,.09-.07,.03-.02s.06-.05,.09-.07l.03-.02,.09-.06,.03-.02s.06-.04,.09-.06l.03-.02s.06-.04,.09-.06l.03-.02h0Z"/><path class="cls-72" d="M12.81,27.19l2.05-4.39c-1.97,.58-3.75,1.6-5.23,2.94-.78,.71-1.48,1.51-2.08,2.39l2.87,1.33s.06-.08,.09-.11h0s.06-.08,.09-.11h0s.06-.08,.09-.11h0s.06-.08,.09-.11h0s.06-.08,.09-.11h0s.06-.08,.09-.11h.01s.06-.07,.08-.1l.02-.02s.06-.06,.08-.09l.02-.02s.06-.06,.08-.08l.02-.02s.05-.05,.08-.08l.03-.03,.07-.07,.03-.03s.04-.04,.07-.06l.04-.04,.06-.06s.03-.03,.05-.05l.06-.05,.06-.05,.05-.04s.04-.04,.07-.06l.04-.03,.08-.07,.03-.02s.05-.04,.07-.06l.04-.03h0c.07-.05,.13-.11,.2-.16h0s.08-.06,.12-.09h0c.08-.06,.17-.12,.25-.18h0Zm-.7,.52s.05-.04,.07-.06l-.07,.06Z"/><path class="cls-63" d="M12.77,27.21l2.05-4.4c-1.96,.58-3.73,1.6-5.21,2.93-.78,.71-1.48,1.51-2.08,2.39l2.87,1.33s.06-.08,.09-.11h0s.06-.08,.09-.11h0s.06-.08,.09-.11h0s.06-.08,.09-.11h.01s.06-.08,.09-.11h.01s.06-.08,.09-.11h.01s.06-.07,.08-.1l.02-.02s.05-.06,.08-.09l.02-.02,.08-.08,.02-.02s.05-.05,.08-.08l.02-.02s.05-.05,.08-.08l.03-.03,.08-.07,.03-.03,.07-.06,.04-.04s.04-.04,.06-.06l.05-.05,.06-.05,.06-.05,.05-.04,.06-.05,.04-.04,.07-.06,.03-.02s.06-.05,.09-.07l.03-.02,.1-.07,.02-.02s.06-.05,.09-.07l.03-.02s.06-.05,.1-.07l.03-.02s.05-.04,.08-.05h0Z"/><path class="cls-27" d="M12.74,27.23l2.06-4.42c-1.95,.58-3.71,1.6-5.18,2.92-.78,.71-1.48,1.51-2.08,2.39l2.87,1.33,.09-.11h0s.06-.08,.09-.11h0s.06-.08,.09-.11h0s.06-.08,.09-.11h0s.06-.08,.09-.11h0s.06-.08,.09-.11h0s.06-.07,.09-.11h0s.06-.08,.09-.11h0s.06-.07,.09-.11h0s.06-.07,.1-.1h0s.06-.07,.1-.1h0s.06-.07,.1-.1h.01s.06-.07,.09-.1h.01s.06-.07,.09-.1h.02s.06-.07,.09-.1h.02s.06-.07,.09-.09l.02-.02s.06-.05,.09-.08l.02-.02s.06-.05,.1-.08l.02-.02s.06-.05,.1-.07h.02s.06-.06,.09-.09l.02-.02s.06-.05,.1-.07h.02s.07-.06,.1-.08h.02Z"/><path class="cls-68" d="M12.71,27.26l2.07-4.43c-1.94,.59-3.69,1.59-5.15,2.91-.78,.71-1.49,1.52-2.09,2.4l2.87,1.33s.06-.08,.09-.11h0s.06-.08,.09-.12h0s.06-.08,.09-.11h0s.06-.07,.09-.11h.01s.06-.08,.09-.11h0s.06-.08,.09-.11h0s.06-.07,.09-.11l.02-.02s.06-.06,.08-.09l.02-.02s.06-.06,.08-.09l.02-.02s.06-.06,.08-.08l.02-.02,.08-.08,.02-.02s.05-.05,.08-.08l.03-.02s.05-.05,.08-.07l.04-.03,.07-.06,.04-.04s.05-.04,.07-.06l.04-.04,.06-.05,.05-.04s.04-.03,.06-.05l.05-.04s.04-.03,.06-.05c.02-.02,.04-.03,.06-.04,.02-.02,.04-.03,.06-.05,.02-.02,.04-.03,.06-.04l.06-.04,.06-.04,.06-.04,.06-.04,.06-.04h0Z"/><path class="cls-75" d="M12.68,27.28l2.07-4.45c-1.92,.59-3.67,1.59-5.12,2.9-.79,.71-1.49,1.52-2.09,2.4l2.87,1.33s.06-.08,.09-.11h0s.06-.08,.09-.12h0s.06-.08,.09-.11h0l.09-.11h.01s.06-.08,.09-.11h.01s.06-.08,.09-.11h.01s.06-.07,.08-.1l.02-.02s.05-.06,.08-.08l.02-.02,.08-.08,.03-.03s.05-.05,.07-.07l.03-.03s.05-.05,.07-.07l.04-.04,.06-.06,.05-.04,.06-.05,.05-.05,.05-.04,.07-.06,.03-.03s.05-.05,.08-.07l.02-.02s.06-.05,.1-.08h0s.07-.07,.11-.09h0c.15-.13,.31-.25,.47-.36Z"/><path class="cls-66" d="M12.65,27.3l2.08-4.46c-1.91,.59-3.64,1.58-5.09,2.89-.79,.71-1.49,1.52-2.1,2.4l2.87,1.33s.06-.08,.09-.12h0s.06-.08,.09-.11h0s.06-.08,.09-.11h0s.06-.07,.09-.11h0s.06-.08,.09-.11h0s.06-.07,.09-.11h0s.06-.07,.09-.1l.02-.02,.09-.09h.01s.06-.07,.09-.1l.02-.02s.05-.05,.08-.08l.02-.02s.05-.05,.08-.08l.03-.03,.08-.07,.04-.03,.07-.06,.04-.04s.04-.04,.07-.06l.05-.04,.06-.06s.03-.03,.05-.04l.06-.05s.04-.03,.06-.05l.05-.05,.06-.05,.05-.04,.06-.05,.05-.04,.06-.05,.05-.04,.06-.05,.05-.04,.07-.05Z"/><path class="cls-69" d="M12.61,27.32l2.09-4.48c-1.9,.59-3.63,1.58-5.07,2.88-.79,.71-1.49,1.52-2.1,2.4l2.87,1.33s.06-.08,.09-.11h0s.06-.08,.09-.12h0s.06-.08,.09-.11h0s.06-.08,.09-.11h0s.06-.08,.09-.11h0s.06-.07,.09-.11h0s.06-.07,.09-.11h0s.06-.07,.09-.11h0s.06-.07,.1-.11h0s.06-.07,.1-.1h0s.07-.07,.1-.1h0s.07-.07,.1-.1h0s.07-.07,.1-.1h0s.07-.07,.1-.1h0s.07-.07,.1-.1h0s.07-.06,.11-.09h0s.07-.06,.11-.09h0s.07-.06,.11-.09h0s.07-.06,.11-.09h0s.08-.06,.11-.09h0s.08-.06,.12-.09Z"/><path class="cls-25" d="M12.58,27.35l2.1-4.49c-1.89,.59-3.61,1.58-5.04,2.87-.79,.71-1.49,1.52-2.1,2.4l2.87,1.33s.06-.08,.09-.12h0l.09-.11h0s.06-.08,.09-.11h0l.09-.11h0l.09-.11h0s.06-.07,.09-.11h.01s.06-.08,.08-.11l.02-.02s.05-.06,.08-.09l.02-.02s.05-.06,.08-.08l.02-.02,.08-.08,.03-.03s.05-.05,.08-.07l.03-.03s.05-.04,.07-.07l.04-.04s.04-.04,.06-.06l.05-.04,.06-.05,.05-.05,.06-.05,.06-.05,.05-.04,.07-.06,.04-.03,.08-.06,.04-.03,.08-.06,.03-.03s.06-.04,.08-.06l.03-.02s.06-.04,.09-.06l.04-.03h0Z"/><path class="cls-67" d="M12.55,27.37l2.1-4.51c-1.88,.59-3.59,1.58-5.01,2.86-.79,.71-1.49,1.52-2.1,2.41l2.87,1.33s.06-.08,.09-.11h0s.06-.08,.09-.11h0s.06-.08,.09-.11h0s.06-.08,.09-.11h.01s.06-.08,.09-.11h0s.06-.08,.09-.11h.01l.08-.11,.02-.02s.05-.06,.08-.08l.03-.03s.05-.05,.08-.08l.03-.03s.05-.05,.07-.07l.03-.03,.07-.07,.03-.03s.05-.04,.07-.07l.04-.04,.06-.06,.05-.05,.05-.05,.06-.05,.05-.04s.04-.04,.07-.06c.01-.01,.03-.02,.04-.04,.03-.03,.06-.05,.09-.08h.01s.06-.06,.1-.09h.02s.07-.07,.1-.09h0s.07-.06,.11-.09h0s.07-.06,.11-.08h0Z"/><path class="cls-10" d="M12.52,27.4l2.11-4.52c-1.87,.59-3.57,1.57-4.99,2.86-.79,.71-1.49,1.52-2.1,2.41l2.87,1.33s.06-.08,.09-.11h0s.06-.08,.09-.11h0s.06-.08,.09-.11h0s.06-.08,.09-.11h0s.06-.08,.09-.11h0s.06-.08,.09-.11h0s.06-.07,.09-.1h.01s.06-.07,.09-.1l.02-.02s.06-.06,.08-.09l.02-.02s.06-.06,.09-.09l.02-.02s.06-.06,.09-.08l.02-.02s.06-.05,.08-.08l.03-.02,.08-.07,.03-.03s.05-.05,.08-.07l.03-.03s.05-.05,.08-.07l.03-.03s.05-.04,.08-.07l.04-.04,.07-.06,.04-.04,.07-.06,.04-.03,.07-.06,.04-.03s.05-.04,.08-.06l.04-.03h0Z"/><path class="cls-24" d="M12.48,27.42l2.12-4.54c-1.86,.59-3.55,1.57-4.97,2.85-.79,.71-1.49,1.52-2.1,2.4l2.87,1.33s.06-.08,.09-.11h0s.06-.08,.09-.11h0s.06-.08,.09-.11h0s.06-.08,.09-.11h0s.06-.08,.09-.11h0s.06-.08,.09-.11h0s.06-.07,.09-.1h.01s.06-.08,.09-.11h.01s.06-.07,.09-.1h.01s.06-.08,.09-.11h.01s.06-.07,.09-.1l.02-.02s.06-.06,.09-.08l.02-.02s.06-.05,.09-.08l.02-.02s.06-.05,.08-.07l.03-.03s.06-.05,.08-.07l.03-.02s.06-.05,.08-.07l.03-.02s.05-.05,.08-.07l.03-.03s.05-.04,.08-.06l.04-.03s.05-.04,.08-.06l.04-.03s.06-.04,.09-.06h0Z"/><path class="cls-61" d="M12.45,27.45l2.13-4.56c-1.81,.58-3.46,1.53-4.85,2.76h0s-.06,.06-.08,.08c-.79,.71-1.49,1.52-2.1,2.4l2.87,1.33s.06-.08,.09-.11h0s.06-.08,.09-.11h0l.09-.11h0s.06-.08,.09-.11h.01l.09-.11h.01s.06-.08,.09-.11h.01s.06-.07,.08-.1l.02-.02s.05-.06,.08-.08l.03-.03s.05-.05,.08-.08l.03-.03s.05-.05,.07-.07l.03-.03,.07-.07,.04-.04,.06-.06,.05-.05s.04-.03,.05-.05l.06-.06,.04-.04s.05-.04,.07-.06l.04-.04,.06-.05h0l.03-.03h0s.06-.05,.09-.08l.02-.02s.06-.05,.09-.07h.02c.08-.08,.16-.14,.24-.2h0Z"/><path class="cls-22" d="M12.42,27.47l2.13-4.58c-1.8,.58-3.44,1.53-4.83,2.75l-.02,.02-.07,.06c-.79,.71-1.49,1.52-2.1,2.4l2.87,1.33s.06-.08,.09-.11h0s.06-.08,.09-.11h0s.06-.08,.09-.11h0s.06-.08,.09-.11h.01s.06-.08,.08-.11h.01l.09-.11h.01s.06-.07,.08-.11l.02-.02,.08-.08,.02-.02,.08-.08,.03-.03s.05-.05,.08-.08l.03-.03s.05-.05,.07-.07l.03-.03s.05-.04,.07-.07l.04-.04,.06-.05,.05-.05,.05-.05,.06-.05,.05-.04,.07-.06,.04-.03,.07-.06,.04-.03s.05-.04,.08-.06l.03-.02,.09-.07,.02-.02s.06-.05,.09-.07Z"/><path class="cls-16" d="M12.38,27.5l2.14-4.59c-1.79,.58-3.43,1.53-4.81,2.75l-.02,.02-.06,.06c-.79,.71-1.49,1.52-2.1,2.4l2.87,1.33s.06-.08,.09-.11h0s.06-.08,.09-.12h0s.06-.08,.09-.11h0l.09-.11h0s.06-.08,.09-.11h0s.06-.07,.09-.11h0s.06-.07,.09-.11h0s.06-.07,.09-.11h0s.06-.07,.1-.11h0s.06-.07,.09-.1h0s.06-.07,.1-.1h.01s.06-.07,.1-.1h.01s.06-.07,.09-.1h.01l.1-.1h.01s.06-.07,.1-.1h.01l.1-.09h.02s.07-.07,.1-.1h.01s.06-.06,.1-.09h.02s.06-.06,.1-.09h.01Z"/><path class="cls-17" d="M12.35,27.52l2.15-4.61c-1.79,.58-3.42,1.53-4.79,2.75h0s-.05,.05-.07,.07c-.79,.71-1.49,1.52-2.09,2.4l2.87,1.33s.06-.08,.09-.11h0s.06-.08,.09-.11h0s.06-.08,.09-.11h0s.06-.08,.09-.11h0s.06-.08,.09-.11h.01s.06-.08,.09-.11h.01s.06-.07,.08-.1l.02-.02,.08-.09,.02-.02,.08-.08,.03-.03,.08-.08,.03-.03s.05-.05,.08-.07l.03-.03s.05-.04,.07-.07c.01-.01,.03-.03,.04-.04,.02-.02,.04-.04,.06-.06l.04-.04,.07-.06,.05-.04,.05-.05,.06-.05,.05-.04,.07-.06,.05-.04s.04-.03,.06-.05l.05-.04,.08-.06,.04-.03h.01Z"/><path class="cls-29" d="M12.28,27.57l2.17-4.64c-1.81,.6-3.45,1.56-4.83,2.81-.78,.71-1.48,1.51-2.08,2.39l2.87,1.33s.06-.08,.09-.11h0s.06-.08,.09-.12h0s.06-.08,.09-.11h0l.09-.11h0s.06-.08,.09-.11h0s.06-.08,.09-.11h0s.06-.07,.09-.1h.01s.06-.08,.09-.11h.01s.06-.07,.08-.1l.02-.02s.06-.06,.09-.09l.02-.02s.06-.05,.08-.08l.02-.02s.06-.05,.08-.08l.03-.02,.08-.07,.03-.03s.05-.04,.07-.06l.04-.03,.07-.06,.04-.03s.05-.04,.07-.06l.04-.04s.05-.04,.07-.06l.04-.04s.05-.04,.07-.05l.04-.03Z"/><path class="cls-26" d="M12.25,27.6l2.17-4.66c-1.8,.6-3.43,1.56-4.8,2.8-.78,.71-1.48,1.51-2.08,2.39l2.87,1.33s.06-.08,.09-.11h0l.09-.12h0s.06-.08,.09-.11h0s.06-.08,.09-.11h0s.06-.08,.09-.11h0s.06-.08,.09-.11h0s.06-.08,.09-.11h.01s.06-.07,.09-.1l.02-.02s.06-.06,.09-.09l.02-.02s.06-.06,.08-.08l.02-.02,.09-.09,.02-.02s.06-.05,.08-.08l.03-.02s.05-.05,.08-.08l.03-.02s.05-.05,.08-.07l.03-.03s.05-.05,.08-.07l.03-.03,.08-.06,.04-.03,.08-.06,.04-.03s.05-.04,.08-.06h0Z"/><path class="cls-60" d="M12.21,27.63l2.18-4.68c-1.79,.6-3.41,1.56-4.78,2.8-.78,.71-1.48,1.51-2.08,2.39l2.87,1.33s.06-.08,.09-.11h0s.06-.08,.09-.12h0s.06-.08,.09-.11h0s.06-.07,.09-.11h.01l.09-.11h.01s.05-.07,.08-.11l.02-.02s.05-.06,.08-.09l.02-.02s.05-.05,.07-.08l.03-.03s.05-.05,.07-.07l.04-.04,.06-.06,.04-.04,.06-.06,.05-.05,.05-.05s.04-.04,.06-.06l.04-.04s.05-.05,.08-.07h.02s.06-.07,.1-.1l.02-.02s.06-.05,.09-.07l.03-.03c.07-.06,.14-.12,.22-.18Z"/><path class="cls-92" d="M12.18,27.65l2.19-4.7c-1.78,.6-3.39,1.55-4.75,2.78-.79,.71-1.49,1.52-2.09,2.4l2.87,1.33s.06-.08,.09-.11h0s.06-.08,.09-.12h0s.06-.08,.09-.11h0s.06-.07,.09-.11h0s.06-.08,.09-.11h0s.06-.08,.09-.11h.01s.06-.07,.08-.1l.02-.02s.05-.06,.08-.09l.02-.02,.08-.08,.03-.03s.05-.05,.07-.07l.03-.03s.05-.05,.07-.07l.04-.03s.04-.04,.07-.06l.04-.04,.06-.06,.05-.05,.06-.05,.05-.05,.05-.04,.07-.06,.05-.04s.05-.04,.07-.06l.04-.03,.07-.05Z"/><path class="cls-78" d="M12.15,27.68l2.2-4.72c-1.76,.6-3.36,1.55-4.71,2.76-.79,.71-1.5,1.52-2.1,2.41l2.87,1.33s.06-.08,.09-.12h0s.06-.08,.09-.11h0s.06-.08,.09-.11h0s.06-.08,.09-.11h0s.06-.08,.09-.11h0s.06-.07,.1-.11h0s.06-.07,.1-.11h0s.06-.08,.1-.11h0s.07-.07,.1-.1h0s.07-.07,.1-.1h0s.07-.07,.1-.1h0s.07-.07,.1-.1h0s.07-.07,.1-.1h0s.07-.07,.1-.1h0s.07-.07,.1-.1h0s.07-.06,.1-.09h.01s.07-.07,.1-.1h0Z"/><path class="cls-21" d="M12.11,27.71h0l2.21-4.74c-1.75,.6-3.34,1.54-4.68,2.75-.79,.71-1.5,1.52-2.1,2.41l2.87,1.33s.06-.08,.09-.11h0s.06-.08,.09-.11h0s.06-.08,.09-.11h0s.06-.08,.09-.11h0s.06-.08,.09-.11h0l.08-.11,.02-.02s.05-.06,.08-.09l.02-.02s.05-.05,.08-.08l.03-.03,.07-.08,.03-.03s.05-.05,.07-.07l.04-.04,.06-.06,.04-.04,.06-.06,.06-.05,.05-.04s.05-.04,.07-.06l.03-.03,.07-.07,.04-.03s.05-.04,.08-.07h0l.03-.03h0s.06-.05,.08-.07h0l.03-.03Z"/><path class="cls-14" d="M12.08,27.74l2.22-4.76c-1.74,.6-3.32,1.54-4.65,2.74-.79,.72-1.5,1.52-2.1,2.41l2.87,1.33s.06-.08,.09-.12h0s.06-.07,.09-.11h0s.06-.08,.09-.11h0s.06-.08,.09-.11h0s.06-.08,.09-.11h.01s.06-.08,.08-.11l.02-.02s.05-.06,.08-.09l.02-.03s.05-.05,.07-.08l.03-.03,.07-.07,.04-.04,.06-.06,.04-.04s.04-.04,.06-.06l.05-.05,.05-.05,.06-.05,.05-.04,.07-.06,.04-.03s.06-.05,.09-.08h.01s.05-.06,.08-.08l.03-.02h0s.06-.05,.09-.07Z"/><path class="cls-15" d="M12.04,27.77l2.23-4.78c-1.73,.6-3.3,1.54-4.63,2.74-.79,.71-1.5,1.52-2.1,2.41l2.87,1.33s.06-.08,.09-.11h0s.06-.08,.09-.12h0s.06-.08,.09-.11h0s.06-.07,.09-.11h0s.06-.08,.09-.11h0s.06-.07,.09-.11h0s.06-.07,.09-.1h0s.06-.07,.09-.11h.01s.06-.07,.09-.11h.01s.06-.07,.09-.1h.01s.06-.07,.09-.1l.02-.02s.06-.06,.09-.08l.02-.02s.06-.06,.09-.08h.02s.06-.07,.09-.1l.02-.02s.06-.05,.09-.08h.02s.06-.07,.09-.09l.02-.02Z"/><path class="cls-8" d="M12.01,27.8l2.24-4.8c-1.72,.6-3.28,1.54-4.61,2.73-.79,.71-1.49,1.52-2.1,2.4l2.87,1.33s.06-.08,.09-.11h0s.06-.08,.09-.11h0s.06-.08,.09-.11h0s.06-.08,.09-.11h0s.06-.08,.09-.11h0s.06-.08,.09-.11h.01s.06-.08,.08-.11l.02-.02,.08-.09,.02-.02s.05-.06,.08-.08l.02-.03s.05-.05,.08-.08l.03-.03s.05-.05,.07-.07l.04-.04,.07-.06,.04-.04s.04-.04,.06-.06l.05-.04,.06-.05,.06-.05s.04-.03,.06-.05c.02-.02,.03-.03,.05-.05l.06-.05h0Z"/><path class="cls-12" d="M11.97,27.83l2.25-4.82c-1.71,.6-3.27,1.53-4.59,2.72-.79,.71-1.49,1.52-2.09,2.4l2.87,1.33s.06-.08,.09-.11h0s.06-.08,.09-.11h0s.06-.08,.09-.11h0l.09-.11h.01s.05-.08,.08-.11v-.02s.07-.06,.09-.09l.02-.02s.05-.05,.07-.08l.03-.03s.05-.05,.07-.07l.03-.03s.04-.05,.07-.07l.04-.04s.04-.04,.06-.06l.05-.05,.05-.05,.06-.06,.04-.04s.04-.04,.07-.06l.03-.02h0s.06-.06,.09-.09h.01s.06-.07,.1-.1h0s.07-.06,.1-.09Z"/><path class="cls-19" d="M11.94,27.86l2.26-4.84c-1.67,.59-3.18,1.49-4.48,2.64h0s-.05,.05-.08,.07c-.79,.71-1.49,1.52-2.09,2.4l2.87,1.33s.06-.08,.09-.11h0s.06-.08,.09-.12h0s.06-.08,.09-.11h0s.06-.08,.09-.11h0s.06-.08,.09-.11h0s.06-.07,.09-.11h0s.06-.07,.09-.11h.01l.09-.11h.01s.06-.07,.09-.11l.02-.02s.06-.06,.09-.09l.02-.02s.06-.06,.09-.08l.02-.02s.06-.05,.08-.08l.03-.02s.06-.05,.08-.08l.03-.02s.05-.05,.08-.07l.03-.02s.06-.05,.08-.07l.02-.02h0Z"/><path class="cls-20" d="M11.9,27.89l2.27-4.86c-1.66,.59-3.17,1.49-4.45,2.63h-.02s-.04,.05-.06,.07c-.79,.71-1.49,1.52-2.09,2.4l2.87,1.33s.06-.08,.09-.11h0s.06-.08,.09-.12h0s.06-.08,.09-.11h0s.06-.08,.09-.11h.01s.06-.08,.09-.11h0s.06-.07,.09-.11v-.02s.07-.06,.1-.09l.02-.02s.05-.06,.08-.09l.02-.02s.05-.05,.08-.08l.03-.03,.07-.07,.03-.03s.05-.05,.08-.07l.03-.03,.07-.07,.04-.04s.04-.04,.07-.06l.04-.04s.04-.04,.06-.06l.05-.04,.06-.06Z"/><path class="cls-18" d="M11.86,27.92l2.28-4.89c-1.65,.59-3.14,1.49-4.43,2.62l-.03,.03-.05,.05c-.79,.71-1.49,1.52-2.1,2.41l2.87,1.33s.06-.08,.09-.11h0s.06-.08,.09-.11h0s.06-.08,.09-.11h0s.06-.07,.08-.11h.01s.06-.08,.08-.11l.02-.02s.05-.06,.08-.09l.02-.02,.07-.08,.03-.03,.06-.07,.04-.04,.06-.06,.05-.05,.05-.05,.06-.06,.04-.04,.08-.07,.02-.02s.06-.05,.09-.08h0c.07-.07,.15-.14,.22-.2Z"/><path class="cls-23" d="M11.83,27.95l2.29-4.91c-1.67,.6-3.19,1.52-4.49,2.69-.79,.71-1.49,1.52-2.09,2.4l2.87,1.33s.06-.08,.09-.11h0s.06-.08,.09-.12h0s.06-.07,.09-.11h0l.09-.11h0s.06-.08,.09-.11h0s.06-.08,.09-.11h.01s.06-.07,.08-.1l.02-.02s.06-.06,.08-.09l.02-.02s.05-.06,.08-.08l.02-.02s.05-.05,.08-.08l.03-.03,.08-.08,.03-.03s.05-.05,.08-.07l.03-.03s.05-.05,.08-.07l.03-.03,.07-.06,.04-.03Z"/><path class="cls-6" d="M11.79,27.98l2.3-4.93c-1.66,.6-3.18,1.52-4.47,2.69-.78,.71-1.48,1.51-2.09,2.39l2.87,1.33,.09-.11h0s.06-.08,.09-.12h0s.06-.08,.09-.11h0s.06-.07,.09-.11h0s.06-.08,.09-.11h0s.06-.07,.09-.11h.01s.06-.08,.08-.11l.02-.02s.05-.05,.08-.08l.03-.03,.08-.08,.03-.03,.07-.07,.03-.03,.07-.07,.04-.04s.04-.04,.07-.06l.04-.04s.04-.04,.06-.06c.01-.01,.03-.03,.05-.04l.06-.06h0Z"/><path class="cls-5" d="M11.75,28.02l2.31-4.95c-1.66,.6-3.16,1.52-4.44,2.68-.78,.71-1.48,1.51-2.08,2.39l2.87,1.33s.06-.08,.09-.11h0s.06-.08,.09-.11h0s.06-.08,.09-.11h0s.06-.07,.08-.11v-.02s.07-.06,.09-.09l.02-.02s.05-.06,.08-.09l.02-.02,.07-.08,.03-.03,.07-.07,.04-.04s.04-.04,.06-.06l.05-.05,.05-.05,.06-.06,.04-.04s.05-.05,.07-.07h0l.02-.02h0s.06-.06,.08-.08h0l.02-.02s.06-.06,.09-.08Z"/><path class="cls-32" d="M11.72,28.05l2.32-4.98c-1.65,.6-3.14,1.52-4.42,2.67-.78,.71-1.48,1.51-2.08,2.39l2.87,1.33s.06-.08,.09-.11h0s.06-.08,.09-.11h0s.06-.08,.09-.11h0s.06-.08,.09-.11h0s.06-.08,.09-.11h0s.06-.08,.09-.11h0s.06-.07,.09-.1l.02-.02s.05-.06,.08-.09l.02-.02s.05-.06,.08-.08l.02-.02s.05-.05,.08-.08l.03-.03,.08-.08,.03-.03s.05-.05,.08-.07l.03-.03s.05-.05,.08-.07l.03-.03Z"/><path class="cls-34" d="M11.68,28.08l2.33-5c-1.63,.6-3.12,1.51-4.38,2.65-.79,.71-1.49,1.52-2.09,2.4l2.87,1.33s.06-.08,.09-.11h0s.06-.08,.09-.11h0s.06-.08,.09-.11h0s.06-.08,.09-.11h.01s.06-.08,.08-.11h.01l.08-.11,.02-.02s.05-.06,.08-.09l.02-.03,.07-.08,.03-.03,.07-.07,.03-.03,.07-.07,.04-.04,.07-.06s.03-.03,.04-.04l.06-.06,.05-.04s.04-.04,.06-.06h0Z"/><path class="cls-37" d="M11.64,28.12l2.34-5.03c-1.62,.6-3.09,1.5-4.35,2.64-.79,.71-1.49,1.52-2.1,2.41l2.87,1.33s.06-.08,.09-.12h0s.06-.08,.09-.11h0s.06-.07,.09-.11h0s.06-.08,.08-.11h.01l.08-.11,.02-.02s.05-.06,.08-.09l.02-.03s.05-.05,.07-.08l.04-.04s.04-.04,.06-.06l.05-.05,.05-.05,.06-.06,.04-.04s.05-.05,.07-.07l.03-.03,.08-.07h.01s.06-.07,.1-.1Z"/><path class="cls-9" d="M11.6,28.15l2.36-5.05c-1.56,.58-2.99,1.45-4.22,2.53l-.03,.02-.07,.07c-.79,.72-1.5,1.53-2.11,2.41l2.87,1.33s.06-.08,.09-.11h0s.06-.08,.09-.11h0s.06-.08,.09-.11h0s.06-.07,.09-.11h0s.06-.08,.09-.11h0s.06-.08,.09-.11h0s.06-.07,.09-.1h.01s.06-.08,.09-.11h.01s.06-.07,.09-.1h.01l.09-.1,.02-.02s.06-.06,.09-.08l.02-.02s.06-.05,.09-.08l.02-.02Z"/><path class="cls-7" d="M11.57,28.19l2.37-5.08c-1.56,.59-2.98,1.45-4.2,2.53h-.01s-.05,.06-.08,.08c-.79,.72-1.5,1.52-2.1,2.41l2.87,1.33s.06-.08,.09-.11h0s.06-.08,.09-.11h0s.06-.08,.09-.11h0l.09-.11h.01s.05-.08,.08-.11l.02-.02s.05-.06,.08-.09l.02-.02s.05-.05,.07-.08l.03-.03s.05-.05,.07-.07l.04-.04,.06-.06,.05-.05s.04-.04,.05-.05l.05-.05,.05-.05,.06-.05s.03-.03,.05-.05h0Z"/><path class="cls-33" d="M11.53,28.22l2.38-5.1c-1.55,.59-2.97,1.45-4.19,2.53h0s-.06,.05-.09,.08c-.79,.71-1.49,1.52-2.1,2.4l2.87,1.33s.06-.08,.09-.11h0s.06-.08,.09-.11h0s.06-.08,.08-.11h.01s.05-.08,.08-.11l.02-.02s.05-.06,.08-.09l.02-.03,.07-.08,.03-.03,.06-.06,.05-.05,.05-.05,.06-.06,.04-.04s.05-.05,.07-.07h0l.02-.02h0s.05-.05,.07-.08l.03-.03s.05-.05,.08-.08Z"/><path class="cls-65" d="M11.49,28.26l2.39-5.13c-1.58,.6-3.02,1.49-4.25,2.6-.79,.71-1.49,1.52-2.09,2.4l2.87,1.33s.06-.08,.09-.11h0s.06-.08,.09-.12h0s.06-.08,.09-.11h0l.09-.11h0s.06-.08,.09-.11h0s.06-.08,.09-.11h0s.06-.07,.09-.11h0s.06-.07,.1-.11h0s.06-.07,.1-.1h0s.07-.07,.1-.11h0s.07-.07,.1-.1h0Z"/><path class="cls-64" d="M11.45,28.3l2.41-5.16c-1.57,.6-3,1.49-4.23,2.6-.79,.71-1.49,1.52-2.09,2.4l2.87,1.33s.06-.08,.09-.12h0s.06-.08,.09-.11h0s.06-.07,.09-.11h.01s.05-.08,.08-.11l.02-.02s.05-.06,.08-.09l.02-.03s.05-.05,.07-.08l.03-.03s.04-.04,.06-.07l.05-.05,.05-.05,.06-.06,.04-.04s.05-.05,.08-.08l.02-.02s.05-.05,.08-.08l.02-.02h0Z"/><path class="cls-11" d="M11.41,28.34l2.42-5.19c-1.56,.6-2.98,1.49-4.2,2.59-.79,.71-1.49,1.52-2.09,2.4l2.87,1.33s.06-.08,.09-.12h0s.06-.08,.09-.11h0s.06-.08,.09-.11h0s.05-.08,.08-.11l.02-.02s.05-.06,.07-.09l.02-.03,.07-.08,.03-.03,.06-.07,.04-.04,.05-.06,.05-.06s.03-.03,.05-.05l.06-.06,.04-.04,.06-.06Z"/><path class="cls-13" d="M11.37,28.38l2.43-5.22c-1.55,.6-2.96,1.48-4.18,2.58-.79,.71-1.49,1.52-2.09,2.4l2.87,1.33s.06-.08,.09-.11h0s.06-.08,.09-.11h0s.06-.08,.09-.11h0s.06-.08,.09-.11h.01s.06-.08,.08-.11h.01s.06-.08,.08-.11l.02-.02,.08-.09,.02-.02s.05-.06,.08-.08l.02-.02s.05-.05,.08-.08l.02-.02s.05-.05,.08-.08h0Z"/><path class="cls-40" d="M11.33,28.42l2.45-5.25c-1.54,.6-2.94,1.47-4.15,2.56-.79,.71-1.49,1.52-2.09,2.4l2.87,1.33s.06-.08,.09-.12h0s.06-.08,.09-.11h0s.06-.08,.08-.11v-.02s.06-.06,.09-.09l.02-.03,.07-.08,.03-.04,.06-.07,.04-.05,.05-.05,.06-.06,.04-.04s.05-.05,.08-.08h0l.02-.02h0s.05-.05,.08-.08l.02-.02Z"/><path class="cls-39" d="M11.29,28.46h0l2.46-5.28c-1.53,.6-2.92,1.47-4.12,2.55-.79,.71-1.49,1.52-2.1,2.4l2.87,1.33s.06-.08,.09-.12h0s.06-.08,.09-.11h0s.06-.08,.09-.11h0s.06-.07,.09-.11h.01s.06-.08,.08-.11v-.02s.07-.06,.1-.09l.02-.02,.08-.09,.02-.02,.08-.08,.02-.03,.08-.08,.02-.03Z"/><path class="cls-36" d="M11.25,28.5l2.48-5.31c-1.52,.6-2.9,1.47-4.09,2.54-.79,.71-1.49,1.52-2.09,2.4l2.87,1.33s.06-.08,.09-.11h0s.06-.08,.09-.11h0s.06-.08,.08-.11v-.02s.06-.06,.09-.09l.02-.02s.05-.06,.07-.08l.03-.03s.05-.05,.07-.08l.04-.04s.04-.04,.06-.06l.05-.05,.05-.05s.04-.04,.06-.06l.04-.04Z"/><path class="cls-30" d="M11.21,28.54l2.49-5.34c-1.51,.6-2.89,1.46-4.07,2.54-.79,.71-1.49,1.52-2.09,2.4l2.87,1.33s.06-.08,.09-.12h0s.06-.08,.09-.11h0l.08-.11v-.02s.06-.06,.09-.09l.03-.03s.04-.05,.07-.08l.03-.04s.04-.05,.06-.07l.04-.05,.05-.05,.06-.06,.04-.04s.04-.05,.06-.07Z"/><path class="cls-38" d="M11.17,28.58l2.5-5.37c-1.5,.6-2.86,1.46-4.04,2.52-.79,.71-1.49,1.52-2.09,2.4l2.87,1.33s.06-.08,.09-.11h0s.06-.08,.09-.11h0s.06-.08,.09-.11h0s.06-.07,.09-.11h0s.06-.08,.09-.11h0s.06-.08,.09-.11h.01s.06-.07,.08-.1l.02-.02s.05-.06,.08-.09Z"/><path class="cls-35" d="M11.12,28.63l2.52-5.41c-1.48,.6-2.84,1.45-4.01,2.5-.79,.71-1.5,1.52-2.1,2.41l2.87,1.33s.06-.08,.09-.11h0s.06-.08,.09-.11h0s.05-.08,.08-.11l.02-.02s.05-.05,.07-.08l.03-.04s.04-.04,.06-.06l.05-.05,.05-.05s.04-.04,.06-.06h.01v-.03h.02l.07-.09h.01Z"/><path class="cls-91" d="M11.04,28.72l2.55-5.48c-1.43,.58-2.74,1.4-3.87,2.41h-.02l-.07,.07c-.79,.71-1.49,1.52-2.1,2.41l2.87,1.33s.06-.08,.09-.11h0s.06-.08,.08-.11h0s.05-.07,.08-.11l.02-.03s.04-.05,.07-.08l.04-.04,.05-.06,.05-.06,.04-.04s.04-.05,.06-.07h.01v-.02h.02Z"/><path class="cls-90" d="M10.99,28.77h0l-.04,.04,.04-.04h0Zm0,0l-.04,.04-.06,.07-.04,.04-.06,.07-.03,.03-.07,.08-.02,.02s-.05,.07-.08,.1h0s-.06,.08-.09,.12h0s-.06,.08-.09,.12l-2.87-1.33c.61-.89,1.31-1.69,2.1-2.41l.05-.05,.03-.03c1.13-1,2.43-1.82,3.84-2.4l-2.57,5.51Z"/><path class="cls-94" d="M10.95,28.82l2.59-5.55c-1.45,.6-2.76,1.44-3.91,2.47-.79,.71-1.49,1.52-2.09,2.4l2.87,1.33s.06-.08,.09-.11h0l.08-.11h.01s.05-.08,.07-.11l.03-.03s.04-.05,.06-.07l.04-.05s.03-.04,.05-.06l.05-.06,.05-.05Z"/><path class="cls-95" d="M10.9,28.87l2.61-5.59c-1.44,.6-2.75,1.43-3.89,2.46-.78,.71-1.49,1.52-2.09,2.4l2.87,1.33s.06-.08,.09-.11h0s.06-.07,.08-.11v-.02s.06-.06,.09-.09l.03-.03s.04-.05,.06-.07l.05-.05,.05-.05s.04-.04,.05-.06Z"/><path class="cls-95" d="M10.86,28.92l2.63-5.63c-1.43,.6-2.73,1.43-3.86,2.45-.78,.71-1.48,1.51-2.08,2.39l2.87,1.33s.06-.08,.09-.11h0s.06-.08,.08-.11h.01s.05-.08,.08-.11l.02-.03s.04-.05,.07-.08l.03-.04,.06-.07Z"/><path class="cls-94" d="M10.81,28.97l2.65-5.67c-1.42,.6-2.71,1.42-3.84,2.44-.78,.71-1.48,1.51-2.09,2.39l2.87,1.33s.06-.07,.09-.11h0s.05-.08,.08-.11l.02-.02h0s.04-.05,.06-.08l.05-.06,.04-.04s.04-.05,.06-.07Z"/><path class="cls-94" d="M10.77,29.03l2.67-5.72c-1.41,.59-2.69,1.42-3.8,2.43-.79,.71-1.49,1.52-2.09,2.4l2.87,1.33s.06-.08,.09-.11h0s.05-.07,.08-.11l.02-.02s.05-.06,.07-.09l.03-.03s.04-.05,.06-.07h0Z"/><path class="cls-94" d="M10.72,29.08l2.69-5.76c-1.39,.59-2.66,1.41-3.77,2.4-.79,.71-1.5,1.52-2.1,2.41l2.87,1.33s.06-.07,.09-.11h.01s.05-.07,.07-.1l.03-.04h0l.04-.06,.06-.07Z"/><path class="cls-94" d="M10.67,29.14l2.71-5.81c-1.34,.57-2.56,1.35-3.64,2.3l-.04,.03-.06,.05c-.79,.72-1.5,1.53-2.11,2.42l2.87,1.33s.06-.07,.09-.11h0l.08-.11,.02-.03h0l.06-.08Z"/><path class="cls-93" d="M10.62,29.2h0l2.73-5.86c-1.33,.57-2.56,1.36-3.63,2.31h0l-.08,.07c-.79,.71-1.5,1.52-2.1,2.41l2.87,1.33s.06-.07,.08-.11v-.02h.02s.04-.05,.06-.08h0l.04-.06h0Z"/><path class="cls-93" d="M10.57,29.26l2.75-5.91c-1.36,.59-2.61,1.4-3.69,2.37-.79,.71-1.49,1.52-2.09,2.4l2.87,1.33s.05-.07,.08-.1l.02-.03h0l.05-.07h0Z"/><path class="cls-93" d="M10.52,29.33l2.78-5.96c-1.35,.59-2.59,1.39-3.67,2.37-.79,.71-1.49,1.52-2.09,2.4l2.87,1.33s.05-.07,.08-.1h0l.02-.03h0Z"/><path class="cls-93" d="M10.41,29.47s.03-.04,.05-.06h0l2.81-6.02c-1.34,.59-2.57,1.39-3.65,2.36-.78,.71-1.48,1.51-2.09,2.39l2.87,1.33Z"/></g><polygon class="cls-82" points="20.45 7.94 10.41 29.47 7.54 28.13 16.95 7.94 20.45 7.94"/><g class="cls-97"><polygon class="cls-85" points="17.63 13.99 15.88 10.25 16.95 7.94 20.45 7.94 17.63 13.99"/><polygon class="cls-84" points="17.64 13.95 15.89 10.22 16.95 7.94 20.45 7.94 17.64 13.95"/><polygon class="cls-3" points="17.66 13.92 15.91 10.19 16.95 7.94 20.45 7.94 17.66 13.92"/><polygon class="cls-4" points="17.68 13.88 15.92 10.16 16.95 7.94 20.45 7.94 17.68 13.88"/><polygon class="cls-83" points="17.69 13.85 15.93 10.13 16.95 7.94 20.45 7.94 17.69 13.85"/><polygon class="cls-80" points="17.71 13.81 15.95 10.1 16.95 7.94 20.45 7.94 17.71 13.81"/><polygon class="cls-81" points="17.73 13.78 15.96 10.07 16.95 7.94 20.45 7.94 17.73 13.78"/><polygon class="cls-79" points="17.74 13.74 15.97 10.04 16.95 7.94 20.45 7.94 17.74 13.74"/><polygon class="cls-86" points="17.76 13.71 15.99 10.01 16.95 7.94 20.45 7.94 17.76 13.71"/><polygon class="cls-87" points="17.78 13.67 16 9.98 16.95 7.94 20.45 7.94 17.78 13.67"/><polygon class="cls-89" points="20.24 7.94 20.42 7.99 17.79 13.64 16.01 9.96 16.95 7.94 20.24 7.94"/><polygon class="cls-88" points="19.72 7.94 20.35 8.14 17.81 13.6 16.03 9.93 16.95 7.94 19.72 7.94"/><polygon class="cls-47" points="19.29 7.94 20.29 8.28 17.82 13.57 16.04 9.9 16.95 7.94 19.29 7.94"/><polygon class="cls-51" points="18.92 7.94 20.22 8.42 17.84 13.53 16.05 9.87 16.95 7.94 18.92 7.94"/><polygon class="cls-42" points="18.6 7.94 20.16 8.55 17.86 13.49 16.07 9.84 16.95 7.94 18.6 7.94"/><polygon class="cls-44" points="18.33 7.94 20.1 8.68 17.87 13.46 16.08 9.81 16.95 7.94 18.33 7.94"/><polygon class="cls-43" points="18.09 7.94 20.04 8.81 17.89 13.42 16.09 9.78 16.95 7.94 18.09 7.94"/><polygon class="cls-49" points="17.88 7.94 19.99 8.92 17.91 13.39 16.11 9.75 16.95 7.94 17.88 7.94"/><polygon class="cls-48" points="17.7 7.94 19.94 9.04 17.93 13.35 16.12 9.72 16.95 7.94 17.7 7.94"/><polygon class="cls-52" points="17.54 7.94 19.88 9.15 17.94 13.31 16.14 9.7 16.95 7.94 17.54 7.94"/><polygon class="cls-50" points="17.39 7.94 19.83 9.26 17.96 13.28 16.15 9.67 16.95 7.94 17.39 7.94"/><polygon class="cls-46" points="17.26 7.94 19.78 9.36 17.98 13.24 16.16 9.64 16.95 7.94 17.26 7.94"/><polygon class="cls-41" points="17.15 7.94 19.74 9.46 17.99 13.2 16.18 9.61 16.95 7.94 17.15 7.94"/><polygon class="cls-74" points="17.05 7.94 19.69 9.56 18.01 13.17 16.19 9.58 16.95 7.94 17.05 7.94"/><polygon class="cls-77" points="16.96 7.94 19.65 9.65 18.03 13.13 16.2 9.55 16.95 7.94 16.96 7.94"/><polygon class="cls-54" points="16.93 7.98 19.61 9.75 18.05 13.09 16.22 9.52 16.93 7.98"/><polygon class="cls-58" points="16.91 8.02 19.57 9.83 18.06 13.06 16.23 9.5 16.91 8.02"/><polygon class="cls-73" points="16.9 8.06 19.53 9.92 18.08 13.02 16.24 9.47 16.9 8.06"/><polygon class="cls-76" points="16.88 8.1 19.49 10 18.1 12.98 16.25 9.44 16.88 8.1"/><polygon class="cls-59" points="16.86 8.13 19.45 10.08 18.12 12.94 16.27 9.41 16.86 8.13"/><polygon class="cls-57" points="16.85 8.16 19.42 10.15 18.13 12.9 16.28 9.38 16.85 8.16"/><polygon class="cls-45" points="16.84 8.19 19.38 10.23 18.15 12.87 16.29 9.35 16.84 8.19"/><polygon class="cls-53" points="16.82 8.22 19.35 10.3 18.17 12.83 16.31 9.33 16.82 8.22"/><polygon class="cls-56" points="16.81 8.25 19.32 10.37 18.19 12.79 16.32 9.3 16.81 8.25"/><polygon class="cls-55" points="16.8 8.28 19.29 10.43 18.2 12.75 16.33 9.27 16.8 8.28"/><polygon class="cls-28" points="16.79 8.3 19.26 10.5 18.22 12.71 16.35 9.24 16.79 8.3"/><polygon class="cls-70" points="16.78 8.32 19.23 10.56 18.24 12.67 16.36 9.21 16.78 8.32"/><polygon class="cls-71" points="16.77 8.34 19.2 10.62 18.26 12.63 16.37 9.18 16.77 8.34"/><polygon class="cls-72" points="16.76 8.36 19.17 10.68 18.28 12.59 16.39 9.16 16.76 8.36"/><polygon class="cls-63" points="16.75 8.38 19.15 10.73 18.3 12.55 16.4 9.13 16.75 8.38"/><polygon class="cls-27" points="16.74 8.4 19.12 10.78 18.32 12.51 16.41 9.1 16.74 8.4"/><polygon class="cls-68" points="16.73 8.42 19.1 10.84 18.33 12.47 16.43 9.07 16.73 8.42"/><polygon class="cls-75" points="16.72 8.43 19.07 10.88 18.35 12.43 16.44 9.05 16.72 8.43"/><polygon class="cls-66" points="16.72 8.44 19.05 10.93 18.37 12.39 16.45 9.02 16.72 8.44"/><polygon class="cls-69" points="16.71 8.46 19.03 10.98 18.39 12.35 16.46 8.99 16.71 8.46"/><polygon class="cls-25" points="16.71 8.47 19.01 11.02 18.41 12.31 16.48 8.96 16.71 8.47"/><polygon class="cls-67" points="16.7 8.48 18.99 11.06 18.43 12.27 16.49 8.94 16.7 8.48"/><polygon class="cls-10" points="16.7 8.49 18.97 11.11 18.45 12.22 16.5 8.91 16.7 8.49"/><polygon class="cls-24" points="16.69 8.5 18.95 11.14 18.47 12.18 16.51 8.88 16.69 8.5"/><polygon class="cls-61" points="16.69 8.5 18.94 11.18 18.49 12.14 16.53 8.85 16.69 8.5"/><polygon class="cls-22" points="16.69 8.51 18.92 11.22 18.51 12.1 16.54 8.83 16.69 8.51"/><polygon class="cls-16" points="16.69 8.51 18.9 11.25 18.53 12.05 16.55 8.8 16.69 8.51"/><polygon class="cls-17" points="16.68 8.52 18.89 11.29 18.55 12.01 16.57 8.77 16.68 8.52"/><polygon class="cls-62" points="16.68 8.52 18.87 11.32 18.57 11.96 16.58 8.75 16.68 8.52"/><polygon class="cls-29" points="16.68 8.52 18.86 11.35 18.59 11.92 16.59 8.72 16.68 8.52"/><polygon class="cls-26" points="16.68 8.52 18.85 11.38 18.61 11.87 16.6 8.69 16.68 8.52"/><polygon class="cls-60" points="16.68 8.53 18.83 11.41 18.64 11.83 16.61 8.67 16.68 8.53"/><polygon class="cls-92" points="16.68 8.53 18.82 11.43 18.66 11.78 16.63 8.64 16.68 8.53"/><polygon class="cls-78" points="16.68 8.52 18.81 11.46 18.68 11.73 16.64 8.61 16.68 8.52"/><polygon class="cls-21" points="16.68 8.52 18.8 11.48 18.7 11.68 16.65 8.59 16.68 8.52"/><polygon class="cls-14" points="16.68 8.52 18.79 11.5 18.72 11.64 16.66 8.56 16.68 8.52"/><polygon class="cls-15" points="16.68 8.52 18.78 11.53 18.75 11.59 16.68 8.54 16.68 8.52"/><polygon class="cls-8" points="16.69 8.51 18.77 11.55 18.77 11.54 16.69 8.51 16.69 8.51"/><polygon class="cls-12" points="16.69 8.51 18.76 11.57 18.79 11.49 16.7 8.48 16.69 8.51"/><polygon class="cls-19" points="16.69 8.5 18.75 11.58 18.82 11.44 16.71 8.46 16.69 8.5"/><polygon class="cls-20" points="16.69 8.5 18.74 11.6 18.84 11.38 16.72 8.43 16.69 8.5"/><polygon class="cls-18" points="16.7 8.49 18.73 11.62 18.87 11.33 16.73 8.41 16.7 8.49"/><polygon class="cls-23" points="16.7 8.48 18.73 11.63 18.89 11.28 16.75 8.39 16.7 8.48"/><polygon class="cls-6" points="16.7 8.47 18.72 11.65 18.92 11.22 16.76 8.36 16.7 8.47"/><polygon class="cls-5" points="16.71 8.47 18.71 11.66 18.94 11.17 16.77 8.34 16.71 8.47"/><polygon class="cls-32" points="16.71 8.46 18.71 11.67 18.97 11.11 16.78 8.31 16.71 8.46"/><polygon class="cls-34" points="16.72 8.45 18.7 11.68 19 11.05 16.79 8.29 16.72 8.45"/><polygon class="cls-37" points="16.72 8.44 18.7 11.69 19.02 10.99 16.8 8.27 16.72 8.44"/><polygon class="cls-9" points="16.73 8.42 18.69 11.7 19.05 10.93 16.81 8.24 16.73 8.42"/><polygon class="cls-7" points="16.73 8.41 18.69 11.71 19.08 10.87 16.82 8.22 16.73 8.41"/><polygon class="cls-33" points="16.74 8.4 18.69 11.72 19.11 10.81 16.83 8.2 16.74 8.4"/><polygon class="cls-65" points="16.74 8.39 18.68 11.73 19.14 10.74 16.84 8.18 16.74 8.39"/><polygon class="cls-64" points="16.75 8.37 18.68 11.73 19.17 10.68 16.85 8.15 16.75 8.37"/><polygon class="cls-11" points="16.76 8.36 18.68 11.74 19.21 10.61 16.86 8.13 16.76 8.36"/><polygon class="cls-13" points="16.76 8.35 18.67 11.75 19.24 10.54 16.87 8.11 16.76 8.35"/><polygon class="cls-40" points="16.77 8.33 18.67 11.75 19.27 10.46 16.88 8.09 16.77 8.33"/><polygon class="cls-39" points="16.78 8.32 18.67 11.75 19.31 10.39 16.89 8.07 16.78 8.32"/><polygon class="cls-36" points="16.79 8.3 18.67 11.76 19.34 10.31 16.9 8.05 16.79 8.3"/><polygon class="cls-30" points="16.79 8.28 18.67 11.76 19.38 10.23 16.91 8.04 16.79 8.28"/><polygon class="cls-38" points="16.8 8.27 18.67 11.76 19.42 10.14 16.92 8.02 16.8 8.27"/><polygon class="cls-35" points="16.81 8.25 18.67 11.76 19.46 10.06 16.92 8 16.81 8.25"/><polygon class="cls-31" points="16.82 8.23 18.67 11.76 19.5 9.97 16.93 7.99 16.82 8.23"/><polygon class="cls-91" points="16.83 8.21 18.67 11.76 19.55 9.87 16.94 7.97 16.83 8.21"/><polygon class="cls-90" points="16.83 8.2 18.67 11.76 19.59 9.77 16.95 7.96 16.83 8.2"/><polygon class="cls-94" points="16.84 8.18 18.67 11.75 19.64 9.67 16.95 7.94 16.84 8.18"/><polygon class="cls-95" points="16.85 8.16 18.67 11.75 19.69 9.56 16.97 7.94 16.95 7.94 16.85 8.16"/><polygon class="cls-95" points="16.86 8.14 18.67 11.75 19.75 9.44 17 7.94 16.95 7.94 16.86 8.14"/><polygon class="cls-94" points="16.87 8.12 18.67 11.74 19.81 9.32 17.02 7.94 16.95 7.94 16.87 8.12"/><polygon class="cls-94" points="16.88 8.1 18.68 11.74 19.87 9.19 17.05 7.94 16.95 7.94 16.88 8.1"/><polygon class="cls-94" points="16.89 8.08 18.68 11.73 19.93 9.05 17.07 7.94 16.95 7.94 16.89 8.08"/><polygon class="cls-94" points="16.9 8.06 18.68 11.73 20 8.9 17.09 7.94 16.95 7.94 16.9 8.06"/><polygon class="cls-93" points="16.91 8.03 18.68 11.72 20.08 8.74 17.12 7.94 16.95 7.94 16.91 8.03"/><polygon class="cls-93" points="16.92 8.01 18.69 11.72 20.16 8.57 17.14 7.94 16.95 7.94 16.92 8.01"/><polygon class="cls-93" points="16.93 7.99 18.69 11.71 20.24 8.38 17.17 7.94 16.95 7.94 16.93 7.99"/><polygon class="cls-93" points="16.94 7.97 18.69 11.7 20.34 8.17 17.19 7.94 16.95 7.94 16.94 7.97"/></g><polygon class="cls-82" points="16.95 7.94 26.99 29.47 29.86 28.13 20.45 7.94 16.95 7.94"/><g class="cls-97"><path class="cls-85" d="M22.99,20.91c1.62,.47,3.14,1.2,4.49,2.14l2.37,5.09-2.87,1.34-3.99-8.57Z"/><path class="cls-84" d="M23.01,20.93c1.63,.47,3.14,1.21,4.5,2.15l2.36,5.05-2.87,1.34-3.98-8.54Z"/><path class="cls-3" d="M23.02,20.95c1.63,.48,3.15,1.21,4.5,2.16l2.34,5.02-2.87,1.34-3.97-8.52Z"/><path class="cls-4" d="M23.03,20.98c1.63,.48,3.15,1.22,4.51,2.17l2.32,4.98-2.87,1.34-3.96-8.5Z"/><path class="cls-83" d="M23.04,21c1.63,.48,3.16,1.23,4.51,2.18l2.31,4.95-2.87,1.34-3.95-8.47Z"/><path class="cls-80" d="M23.05,21.02c1.64,.48,3.16,1.23,4.52,2.2l2.29,4.91-2.87,1.34-3.94-8.45Z"/><path class="cls-81" d="M23.06,21.05c1.64,.49,3.16,1.24,4.52,2.21l2.27,4.88-2.87,1.34-3.93-8.43Z"/><path class="cls-79" d="M23.07,21.07c1.64,.49,3.17,1.25,4.53,2.22l2.26,4.84-2.87,1.34-3.92-8.4Z"/><path class="cls-86" d="M23.08,21.09c1.65,.49,3.17,1.25,4.54,2.23l2.24,4.81-2.87,1.34-3.91-8.38Z"/><path class="cls-87" d="M23.09,21.12c1.65,.5,3.18,1.26,4.54,2.25l2.22,4.77-2.87,1.34-3.9-8.35Z"/><path class="cls-89" d="M23.11,21.14c1.65,.5,3.19,1.27,4.55,2.26l2.21,4.73-2.87,1.34-3.88-8.33Z"/><path class="cls-88" d="M23.12,21.17c1.66,.5,3.19,1.28,4.55,2.27l2.19,4.7-2.87,1.34-3.87-8.31Z"/><path class="cls-47" d="M23.13,21.19c1.66,.5,3.2,1.28,4.56,2.29l2.17,4.66-2.87,1.34-3.86-8.28Z"/><path class="cls-51" d="M23.14,21.21c1.66,.51,3.2,1.29,4.57,2.3l2.16,4.62-2.87,1.34-3.85-8.26Z"/><path class="cls-42" d="M23.15,21.24c1.66,.51,3.21,1.3,4.57,2.31l2.14,4.59-2.87,1.34-3.84-8.24Z"/><path class="cls-44" d="M23.16,21.26c1.67,.51,3.21,1.31,4.58,2.33l2.12,4.55-2.87,1.34-3.83-8.21Z"/><path class="cls-43" d="M23.17,21.28c1.67,.52,3.22,1.31,4.59,2.34l2.1,4.51-2.87,1.34-3.82-8.19Z"/><path class="cls-49" d="M23.18,21.31c1.67,.52,3.22,1.32,4.59,2.35l2.09,4.47-2.87,1.34-3.81-8.16Z"/><path class="cls-48" d="M23.19,21.33c1.68,.52,3.23,1.33,4.6,2.37l2.07,4.44-2.87,1.34-3.8-8.14Z"/><path class="cls-52" d="M23.2,21.35c1.68,.53,3.23,1.34,4.61,2.38l2.05,4.4-2.87,1.34-3.79-8.12Z"/><path class="cls-50" d="M23.22,21.38c1.68,.53,3.24,1.35,4.61,2.4l2.03,4.36-2.87,1.34-3.77-8.09Z"/><path class="cls-46" d="M23.23,21.4c1.69,.53,3.25,1.36,4.62,2.41l2.01,4.32-2.87,1.34-3.76-8.07Z"/><path class="cls-41" d="M23.24,21.43c1.69,.54,3.25,1.36,4.62,2.42l2,4.28-2.87,1.34-3.75-8.04Z"/><path class="cls-74" d="M23.25,21.45c1.69,.54,3.26,1.37,4.63,2.44l1.98,4.24-2.87,1.34-3.74-8.02Z"/><path class="cls-77" d="M23.26,21.48c1.7,.54,3.26,1.38,4.64,2.45l1.96,4.21-2.87,1.34-3.73-8Z"/><path class="cls-54" d="M23.27,21.5c1.7,.55,3.27,1.39,4.64,2.47l1.94,4.17-2.87,1.34-3.72-7.97Z"/><path class="cls-58" d="M23.28,21.52c1.7,.55,3.28,1.4,4.65,2.48l1.93,4.13-2.87,1.34-3.71-7.95Z"/><path class="cls-73" d="M23.29,21.55c1.71,.55,3.28,1.41,4.66,2.5l1.91,4.09-2.87,1.34-3.7-7.92Z"/><path class="cls-76" d="M23.31,21.57c1.71,.56,3.29,1.42,4.67,2.51l1.89,4.05-2.87,1.34-3.68-7.9Z"/><path class="cls-59" d="M23.32,21.6c1.72,.56,3.3,1.42,4.67,2.53l1.87,4.01-2.87,1.34-3.67-7.88Z"/><path class="cls-57" d="M23.33,21.62c1.72,.56,3.3,1.43,4.68,2.54l1.85,3.97-2.87,1.34-3.66-7.85Z"/><path class="cls-45" d="M23.34,21.64c1.72,.57,3.31,1.44,4.69,2.56l1.83,3.93-2.87,1.34-3.65-7.83Z"/><path class="cls-53" d="M23.35,21.67c1.73,.57,3.32,1.45,4.7,2.58l1.81,3.89-2.87,1.34-3.64-7.8Z"/><path class="cls-56" d="M23.36,21.69c1.73,.57,3.32,1.46,4.7,2.59l1.79,3.85-2.87,1.34-3.63-7.78Z"/><path class="cls-55" d="M23.37,21.72c1.74,.58,3.33,1.47,4.71,2.61l1.78,3.81-2.87,1.34-3.62-7.75Z"/><path class="cls-28" d="M23.38,21.74c1.74,.58,3.34,1.48,4.72,2.63l1.76,3.77-2.87,1.34-3.61-7.73Z"/><path class="cls-70" d="M23.4,21.77c1.74,.59,3.34,1.49,4.73,2.64l1.74,3.72-2.87,1.34-3.59-7.71Z"/><path class="cls-71" d="M23.41,21.79c1.75,.59,3.35,1.5,4.74,2.66l1.72,3.68-2.87,1.34-3.58-7.68Z"/><path class="cls-72" d="M23.42,21.81c1.75,.59,3.36,1.51,4.74,2.68l1.7,3.64-2.87,1.34-3.57-7.66Z"/><path class="cls-63" d="M23.43,21.84c1.76,.6,3.37,1.52,4.75,2.7l1.68,3.6-2.87,1.34-3.56-7.63Z"/><path class="cls-27" d="M23.44,21.86c1.76,.6,3.37,1.53,4.76,2.71l1.66,3.56-2.87,1.34-3.55-7.61Z"/><path class="cls-68" d="M23.45,21.89c1.77,.61,3.38,1.54,4.77,2.73l1.64,3.51-2.87,1.34-3.54-7.58Z"/><path class="cls-75" d="M23.46,21.91c1.77,.61,3.39,1.55,4.78,2.75l1.62,3.47-2.87,1.34-3.53-7.56Z"/><path class="cls-66" d="M23.48,21.94c1.78,.61,3.4,1.56,4.79,2.77l1.6,3.43-2.87,1.34-3.51-7.53Z"/><path class="cls-69" d="M23.49,21.96c1.78,.62,3.4,1.57,4.79,2.79l1.58,3.38-2.87,1.34-3.5-7.51Z"/><path class="cls-25" d="M23.5,21.99c1.79,.62,3.41,1.58,4.8,2.81l1.56,3.34-2.87,1.34-3.49-7.48Z"/><path class="cls-67" d="M23.51,22.01c1.79,.63,3.42,1.6,4.81,2.83l1.54,3.3-2.87,1.34-3.48-7.46Z"/><path class="cls-10" d="M23.52,22.04c1.79,.63,3.43,1.61,4.82,2.85l1.52,3.25-2.87,1.34-3.47-7.44Z"/><path class="cls-24" d="M23.53,22.06c1.8,.64,3.44,1.62,4.83,2.87l1.5,3.21-2.87,1.34-3.46-7.41Z"/><path class="cls-61" d="M23.55,22.09c1.8,.64,3.44,1.63,4.84,2.89l1.47,3.16-2.87,1.34-3.44-7.39Z"/><path class="cls-22" d="M23.56,22.11c1.81,.65,3.45,1.64,4.85,2.91l1.45,3.12-2.87,1.34-3.43-7.36Z"/><path class="cls-16" d="M23.57,22.14c1.82,.65,3.46,1.65,4.86,2.93l1.43,3.07-2.87,1.34-3.42-7.34Z"/><path class="cls-17" d="M23.58,22.16c1.82,.65,3.47,1.67,4.87,2.95l1.41,3.02-2.87,1.34-3.41-7.31Z"/><path class="cls-62" d="M23.59,22.19c1.83,.66,3.48,1.68,4.88,2.97l1.39,2.98-2.87,1.34-3.4-7.29Z"/><path class="cls-29" d="M23.6,22.21c1.83,.66,3.49,1.69,4.89,2.99l1.37,2.93-2.87,1.34-3.39-7.26Z"/><path class="cls-26" d="M23.61,22.23c1.84,.67,3.5,1.7,4.9,3.02l1.34,2.88-2.87,1.34-3.37-7.24Z"/><path class="cls-60" d="M23.63,22.26c1.84,.67,3.51,1.72,4.91,3.04l1.32,2.84-2.87,1.34-3.36-7.21Z"/><path class="cls-92" d="M23.64,22.28c1.85,.68,3.52,1.73,4.92,3.06l1.3,2.79-2.87,1.34-3.35-7.19Z"/><path class="cls-78" d="M23.65,22.31c1.86,.68,3.53,1.74,4.93,3.08l1.28,2.74-2.87,1.34-3.34-7.16Z"/><path class="cls-21" d="M23.66,22.34c1.86,.69,3.54,1.76,4.94,3.11l1.25,2.69-2.87,1.34-3.33-7.14Z"/><path class="cls-14" d="M23.67,22.36c1.87,.7,3.55,1.77,4.95,3.13l1.23,2.64-2.87,1.34-3.32-7.11Z"/><path class="cls-15" d="M23.69,22.39c1.87,.7,3.56,1.78,4.97,3.16l1.21,2.59-2.87,1.34-3.3-7.09Z"/><path class="cls-8" d="M23.7,22.41c1.88,.71,3.57,1.8,4.98,3.18l1.19,2.54-2.87,1.34-3.29-7.06Z"/><path class="cls-12" d="M23.71,22.44c1.89,.71,3.58,1.81,4.99,3.21l1.16,2.49-2.87,1.34-3.28-7.04Z"/><path class="cls-19" d="M23.72,22.46c1.89,.72,3.59,1.83,5,3.23l1.14,2.44-2.87,1.34-3.27-7.01Z"/><path class="cls-20" d="M23.73,22.49c1.9,.72,3.61,1.84,5.01,3.26l1.11,2.39-2.87,1.34-3.26-6.98Z"/><path class="cls-18" d="M23.74,22.51c1.91,.73,3.62,1.86,5.03,3.29l1.09,2.34-2.87,1.34-3.25-6.96Z"/><path class="cls-23" d="M23.76,22.54c1.92,.73,3.63,1.87,5.04,3.31l1.06,2.28-2.87,1.34-3.23-6.93Z"/><path class="cls-6" d="M23.77,22.56c1.92,.74,3.64,1.89,5.05,3.34l1.04,2.23-2.87,1.34-3.22-6.91Z"/><path class="cls-5" d="M23.78,22.59c1.93,.75,3.65,1.91,5.07,3.37l1.01,2.18-2.87,1.34-3.21-6.88Z"/><path class="cls-32" d="M23.79,22.61c1.94,.75,3.67,1.92,5.08,3.4l.99,2.12-2.87,1.34-3.2-6.86Z"/><path class="cls-34" d="M23.8,22.64c1.95,.76,3.68,1.94,5.09,3.43l.96,2.07-2.87,1.34-3.19-6.83Z"/><path class="cls-37" d="M23.82,22.67c1.95,.77,3.69,1.96,5.11,3.46l.94,2.01-2.87,1.34-3.17-6.81Z"/><path class="cls-9" d="M23.83,22.69c1.96,.77,3.71,1.98,5.12,3.49l.91,1.95-2.87,1.34-3.16-6.78Z"/><path class="cls-7" d="M23.84,22.72c1.97,.78,3.72,1.99,5.14,3.52l.88,1.89-2.87,1.34-3.15-6.76Z"/><path class="cls-33" d="M23.85,22.74c1.98,.79,3.74,2.01,5.15,3.55l.86,1.84-2.87,1.34-3.14-6.73Z"/><path class="cls-65" d="M23.86,22.77c1.99,.79,3.75,2.03,5.17,3.59l.83,1.78-2.87,1.34-3.13-6.7Z"/><path class="cls-64" d="M23.88,22.79c2,.8,3.77,2.05,5.18,3.62l.8,1.72-2.87,1.34-3.11-6.68Z"/><path class="cls-11" d="M23.89,22.82c2.01,.81,3.78,2.07,5.2,3.66l.77,1.66-2.87,1.34-3.1-6.65Z"/><path class="cls-13" d="M23.9,22.85c2.02,.81,3.8,2.09,5.22,3.69l.74,1.59-2.87,1.34-3.09-6.63Z"/><path class="cls-40" d="M23.91,22.87c2.03,.82,3.82,2.11,5.23,3.73l.71,1.53-2.87,1.34-3.08-6.6Z"/><path class="cls-39" d="M23.92,22.9c2.04,.83,3.83,2.13,5.25,3.77l.69,1.47-2.87,1.34-3.07-6.57Z"/><path class="cls-36" d="M23.94,22.92c2.05,.84,3.85,2.15,5.27,3.81l.65,1.4-2.87,1.34-3.05-6.55Z"/><path class="cls-30" d="M23.95,22.95c2.06,.85,3.87,2.18,5.29,3.85l.62,1.34-2.87,1.34-3.04-6.52Z"/><path class="cls-38" d="M23.96,22.98c2.07,.86,3.89,2.2,5.31,3.89l.59,1.27-2.87,1.34-3.03-6.5Z"/><path class="cls-35" d="M23.97,23c2.08,.86,3.91,2.22,5.33,3.93l.56,1.2-2.87,1.34-3.02-6.47Z"/><path class="cls-31" d="M23.98,23.03c2.09,.87,3.93,2.25,5.35,3.97l.53,1.13-2.87,1.34-3-6.44Z"/><path class="cls-91" d="M24,23.05c2.11,.88,3.95,2.27,5.37,4.02l.49,1.06-2.87,1.34-2.99-6.42Z"/><path class="cls-90" d="M24.01,23.08c2.12,.89,3.97,2.3,5.39,4.07l.46,.98-2.87,1.34-2.98-6.39Z"/><path class="cls-94" d="M24.02,23.11c2.13,.9,3.99,2.33,5.41,4.12l.42,.91-2.87,1.34-2.97-6.37Z"/><path class="cls-95" d="M24.03,23.13c2.15,.91,4.02,2.35,5.44,4.16l.39,.84-2.87,1.34-2.96-6.34Z"/><path class="cls-95" d="M24.05,23.16c2.16,.92,4.04,2.38,5.46,4.22l.35,.75-2.87,1.34-2.94-6.31Z"/><path class="cls-94" d="M24.06,23.19c2.18,.93,4.07,2.42,5.49,4.27l.31,.67-2.87,1.34-2.93-6.29Z"/><path class="cls-94" d="M24.07,23.21c2.2,.94,4.09,2.45,5.51,4.33l.28,.59-2.87,1.34-2.92-6.26Z"/><path class="cls-94" d="M24.08,23.24c2.21,.95,4.12,2.48,5.54,4.39l.24,.51-2.87,1.34-2.91-6.23Z"/><path class="cls-94" d="M24.1,23.27c2.23,.97,4.15,2.52,5.57,4.45l.19,.41-2.87,1.34-2.89-6.21Z"/><path class="cls-93" d="M24.11,23.29c2.25,.98,4.18,2.55,5.6,4.52l.15,.32-2.87,1.34-2.88-6.18Z"/><path class="cls-93" d="M24.12,23.32c2.27,.99,4.21,2.59,5.63,4.58l.11,.23-2.87,1.34-2.87-6.15Z"/><path class="cls-93" d="M24.13,23.35c2.29,1.01,4.25,2.63,5.67,4.66l.06,.12-2.87,1.34-2.86-6.13Z"/><path class="cls-93" d="M24.15,23.37c2.32,1.02,4.29,2.67,5.71,4.74v.02l-2.86,1.34-2.84-6.1Z"/></g><path class="cls-82" d="M18.7,22.25c4.64,0,8.74,2.34,11.18,5.9l-2.89,1.33c-1.91-2.49-4.92-4.11-8.29-4.11v-3.12Z"/></g></g></g></g></g></svg>