<?xml version="1.0" encoding="UTF-8"?><svg id="Layer_4" xmlns="http://www.w3.org/2000/svg" viewBox="0 0 166.03 37.41"><defs><style>.cls-1,.cls-2{fill:#fff;}.cls-2{fill-rule:evenodd;}</style></defs><g><path class="cls-1" d="M56.82,25.54h-2.23v-1.42c-.2,.14-.47,.32-.81,.57-.34,.24-.67,.44-.98,.58-.37,.18-.8,.34-1.29,.46-.49,.12-1.05,.18-1.71,.18-1.2,0-2.22-.4-3.05-1.19-.84-.8-1.25-1.81-1.25-3.04,0-1.01,.22-1.83,.65-2.45,.43-.62,1.05-1.12,1.86-1.47,.81-.36,1.79-.6,2.92-.73,1.14-.13,2.36-.22,3.66-.29v-.35c0-.51-.09-.93-.27-1.26-.18-.33-.44-.6-.77-.79-.32-.18-.7-.31-1.15-.37-.45-.06-.91-.1-1.4-.1-.59,0-1.24,.08-1.97,.23-.72,.16-1.47,.38-2.24,.67h-.12v-2.28c.44-.12,1.07-.25,1.9-.39,.83-.14,1.64-.21,2.45-.21,.94,0,1.76,.08,2.45,.23,.7,.16,1.3,.42,1.81,.79,.5,.37,.88,.84,1.15,1.42,.26,.58,.39,1.3,.39,2.16v9.04Zm-2.23-3.28v-3.71c-.68,.04-1.49,.1-2.42,.18-.93,.08-1.66,.19-2.2,.35-.64,.18-1.17,.47-1.56,.85-.4,.39-.6,.92-.6,1.59,0,.76,.23,1.34,.69,1.72,.46,.39,1.17,.58,2.11,.58,.79,0,1.51-.15,2.16-.46,.65-.31,1.26-.67,1.81-1.1Z"/><path class="cls-1" d="M71.95,25.54h-2.24v-1.4c-.64,.56-1.32,.99-2.02,1.3-.7,.31-1.46,.47-2.28,.47-1.59,0-2.85-.61-3.79-1.84-.93-1.22-1.4-2.92-1.4-5.09,0-1.13,.16-2.14,.48-3.02,.32-.88,.76-1.63,1.31-2.25,.54-.6,1.17-1.07,1.89-1.38,.72-.32,1.47-.48,2.24-.48,.7,0,1.32,.07,1.86,.22,.54,.15,1.11,.38,1.71,.69V6.97h2.24V25.54Zm-2.24-3.28v-7.65c-.6-.27-1.15-.46-1.62-.56-.48-.1-1-.15-1.56-.15-1.26,0-2.24,.44-2.93,1.31-.7,.88-1.05,2.12-1.05,3.72s.27,2.79,.81,3.61c.54,.82,1.41,1.23,2.6,1.23,.64,0,1.28-.14,1.93-.42,.65-.28,1.26-.65,1.83-1.09Z"/><path class="cls-1" d="M87.72,18.88c0,2.17-.56,3.89-1.67,5.14-1.11,1.26-2.61,1.88-4.47,1.88s-3.38-.63-4.49-1.88c-1.11-1.26-1.66-2.97-1.66-5.14s.55-3.89,1.66-5.15c1.11-1.26,2.61-1.89,4.49-1.89s3.36,.63,4.47,1.89c1.11,1.26,1.67,2.98,1.67,5.15Zm-2.31,0c0-1.73-.34-3.01-1.01-3.85-.68-.84-1.61-1.26-2.82-1.26s-2.16,.42-2.83,1.26-1.01,2.12-1.01,3.85,.34,2.94,1.01,3.8c.68,.86,1.62,1.29,2.83,1.29s2.13-.43,2.81-1.28c.68-.85,1.02-2.13,1.02-3.81Z"/><path class="cls-1" d="M102.66,21.29c0,1.38-.62,2.5-1.86,3.35-1.24,.85-2.94,1.27-5.09,1.27-1.19,0-2.27-.11-3.25-.33-.97-.22-1.75-.47-2.34-.74v-3.53h.39c.21,.15,.46,.32,.75,.5,.28,.18,.68,.37,1.2,.58,.45,.18,.95,.34,1.52,.47,.56,.13,1.17,.2,1.81,.2,.84,0,1.47-.09,1.87-.28,.41-.19,.61-.46,.61-.83,0-.33-.12-.56-.36-.71-.24-.15-.69-.29-1.36-.42-.32-.07-.75-.15-1.29-.23-.54-.08-1.04-.18-1.49-.3-1.22-.32-2.12-.81-2.71-1.49-.59-.67-.88-1.51-.88-2.51,0-1.29,.61-2.36,1.83-3.22,1.22-.85,2.89-1.28,5-1.28,1,0,1.96,.1,2.88,.3,.92,.2,1.64,.42,2.15,.65v3.39h-.37c-.64-.44-1.36-.79-2.18-1.07-.82-.27-1.64-.41-2.48-.41-.69,0-1.27,.1-1.75,.29-.47,.19-.71,.46-.71,.81,0,.32,.11,.56,.32,.73,.21,.17,.72,.33,1.52,.5,.44,.09,.91,.17,1.41,.26,.51,.08,1.01,.19,1.52,.32,1.13,.29,1.96,.76,2.51,1.39,.54,.63,.81,1.42,.81,2.37Z"/><path class="cls-1" d="M112.49,25.89c-1.17,0-2.24-.14-3.2-.42s-1.81-.71-2.52-1.29c-.71-.58-1.26-1.31-1.65-2.2-.39-.88-.58-1.92-.58-3.1,0-1.25,.21-2.33,.63-3.23,.42-.91,1-1.66,1.75-2.25,.72-.56,1.56-.98,2.51-1.24,.95-.26,1.93-.39,2.95-.39,.91,0,1.76,.1,2.53,.3,.77,.2,1.49,.46,2.16,.78v3.66h-.61c-.17-.14-.37-.31-.6-.5-.23-.19-.52-.38-.86-.56-.33-.17-.68-.32-1.07-.44-.39-.12-.84-.17-1.36-.17-1.14,0-2.02,.36-2.64,1.09-.62,.73-.92,1.72-.92,2.96s.32,2.27,.95,2.93c.63,.67,1.53,1,2.69,1,.54,0,1.03-.06,1.46-.18s.79-.27,1.08-.44c.27-.16,.51-.33,.71-.5,.21-.17,.4-.35,.57-.51h.61v3.66c-.68,.32-1.38,.57-2.12,.76-.74,.19-1.55,.28-2.44,.28Z"/><path class="cls-1" d="M129.6,16.23h-.38c-.18-.06-.48-.11-.88-.14-.41-.03-.74-.05-1.01-.05-.61,0-1.15,.04-1.62,.12-.47,.08-.97,.21-1.51,.41v8.97h-4.31V12.14h4.31v1.97c.94-.81,1.77-1.35,2.46-1.62,.7-.27,1.34-.4,1.93-.4,.15,0,.32,0,.51,.01,.19,0,.36,.02,.5,.04v4.09Z"/><path class="cls-1" d="M136.46,10.23h-4.55v-3.26h4.55v3.26Zm-.12,15.31h-4.31V12.14h4.31v13.4Z"/><path class="cls-1" d="M154.36,18.65c0,1.11-.17,2.11-.51,3.02s-.78,1.65-1.33,2.24c-.57,.62-1.22,1.09-1.94,1.41s-1.5,.48-2.32,.48c-.76,0-1.41-.08-1.94-.24-.53-.16-1.08-.39-1.63-.69v5.58h-4.31V12.14h4.31v1.4c.66-.52,1.33-.95,2.02-1.28,.69-.33,1.48-.49,2.38-.49,1.67,0,2.96,.61,3.89,1.84,.93,1.22,1.39,2.91,1.39,5.05Zm-4.43,.09c0-1.3-.22-2.25-.67-2.84-.44-.59-1.15-.88-2.11-.88-.4,0-.82,.06-1.25,.18-.43,.12-.84,.3-1.23,.53v6.73c.29,.11,.59,.18,.92,.21,.33,.03,.65,.05,.96,.05,1.13,0,1.98-.33,2.54-.99,.56-.66,.83-1.66,.83-3Z"/><path class="cls-1" d="M166.03,25.42c-.46,.12-.95,.21-1.47,.28-.52,.07-1.15,.1-1.9,.1-1.67,0-2.91-.34-3.73-1.01s-1.22-1.83-1.22-3.47v-6.26h-1.77v-2.91h1.77v-3.83h4.31v3.83h4.01v2.91h-4.01v4.76c0,.47,0,.88,.01,1.23,0,.35,.07,.67,.19,.94,.11,.28,.31,.5,.59,.66,.28,.16,.69,.24,1.23,.24,.22,0,.51-.05,.87-.14,.36-.1,.61-.18,.76-.26h.36v2.94Z"/></g><g><path class="cls-2" d="M24.02,23.11l-.4-.85h0l-.03-.07h0l-.16-.35h0l-.25-.53-.17-.35h0v-.02h-.01v-.02h-.01l-4.3-9.21-.92,1.98h0l-4.53,9.71c1.67-.73,3.51-1.14,5.45-1.14s3.79,.41,5.46,1.15l-.13-.29h0Z"/><path class="cls-2" d="M18.71,0C8.38,0,0,8.38,0,18.71s8.38,18.71,18.71,18.71,18.71-8.38,18.71-18.71S29.04,0,18.71,0Zm8.28,29.47c-1.91-2.49-4.92-4.11-8.29-4.11-1.86,0-3.6,.49-5.11,1.34-.09,.05-.17,.1-.26,.15-.03,.02-.07,.04-.1,.06-.07,.04-.14,.08-.21,.13-.03,.02-.07,.05-.1,.07-.11,.07-.22,.15-.33,.23-.09,.06-.17,.13-.26,.19-.09,.07-.18,.14-.27,.21-.02,.02-.04,.03-.06,.05-.14,.12-.27,.24-.41,.36h0l-.02,.03c-.13,.13-.26,.25-.39,.39l-.02,.02c-.13,.13-.25,.27-.37,.41h0v.02c-.14,.15-.26,.29-.38,.45h0l-2.87-1.33L15.96,10.07h0l.03-.06h0l.08-.17h0v-.03h.01l.37-.79h0l.06-.14h0l.1-.21h0l.06-.12v-.02h.01v-.02h0l.1-.22h0v-.03h.01v-.02h0l.08-.18h0l.02-.05h0l.02-.06h3.49l7.04,15.1h0l.02,.03h0l.32,.7h0l.16,.35h0l.42,.89h0l.65,1.4h0l.38,.81h0l.41,.87,.04,.05-2.89,1.33Z"/></g></svg>