<?xml version="1.0" encoding="UTF-8"?><svg xmlns="http://www.w3.org/2000/svg" viewBox="0 0 214.9 255.17"><defs><style>.cls-1{font-size:42.23px;}.cls-1,.cls-2{fill:#fff;}.cls-3{font-family:Verdana-Bold, Verdana;letter-spacing:0em;}.cls-4{fill:#f8f8f8;}.cls-4,.cls-5,.cls-6,.cls-7,.cls-8,.cls-9,.cls-10,.cls-11,.cls-12,.cls-13,.cls-14,.cls-15,.cls-16,.cls-17,.cls-18,.cls-19,.cls-20,.cls-21,.cls-22,.cls-23,.cls-24,.cls-25,.cls-26,.cls-27,.cls-28,.cls-29,.cls-30,.cls-31,.cls-32,.cls-33,.cls-34,.cls-35,.cls-36,.cls-37,.cls-38,.cls-39,.cls-40,.cls-41,.cls-42,.cls-43,.cls-44,.cls-45,.cls-46,.cls-47,.cls-48,.cls-49,.cls-50,.cls-51,.cls-52,.cls-53,.cls-54,.cls-55,.cls-56,.cls-57,.cls-58,.cls-59,.cls-60,.cls-61,.cls-62,.cls-63,.cls-64,.cls-65,.cls-66,.cls-67,.cls-68,.cls-69,.cls-70,.cls-71,.cls-72,.cls-73,.cls-74,.cls-75,.cls-76,.cls-77,.cls-78,.cls-79,.cls-80,.cls-81,.cls-82,.cls-2,.cls-83,.cls-84,.cls-85,.cls-86,.cls-87,.cls-88,.cls-89,.cls-90,.cls-91,.cls-92,.cls-93,.cls-94,.cls-95{fill-rule:evenodd;}.cls-5{fill:#f6f6f6;}.cls-6{fill:#474847;}.cls-7{fill:#4a4b4b;}.cls-8{fill:#39393a;}.cls-9{fill:#5a5c5b;}.cls-10{fill:#3c3c3c;}.cls-11{fill:#838282;}.cls-12{fill:#2c2d2c;}.cls-13{fill:#595758;}.cls-14{fill:#292828;}.cls-15{fill:#616161;}.cls-16{fill:#5d5d5e;}.cls-17{fill:#797979;}.cls-18{fill:#777776;}.cls-19{fill:#505051;}.cls-20{fill:#555656;}.cls-21{fill:#525252;}.cls-22{fill:#646565;}.cls-23{fill:#7b7b7b;}.cls-24{fill:#4d4c4d;}.cls-25{fill:gray;}.cls-26{fill:#888;}.cls-27{fill:#6e6f6f;}.cls-28{fill:#959596;}.cls-29{fill:#a2a2a3;}.cls-30{fill:#717171;}.cls-31{fill:#1a1a1a;}.cls-32{fill:#0a0a0a;}.cls-33{fill:#454544;}.cls-34{fill:#363636;}.cls-35{fill:#424242;}.cls-36{fill:#0f1010;}.cls-37{fill:#1d1d1d;}.cls-38{fill:#403f3f;}.cls-39{fill:#131314;}.cls-40{fill:#212221;}.cls-41{fill:#242525;}.cls-42{fill:#c5c4c4;}.cls-43{fill:#dbdad9;}.cls-44{fill:#d4d4d4;}.cls-45{fill:#d9d9d9;}.cls-46{fill:#adadad;}.cls-47{fill:#c7c7c8;}.cls-48{fill:#dedfe0;}.cls-49{fill:#d0cfcf;}.cls-50{fill:#d2d2d1;}.cls-51{fill:#cbcbcb;}.cls-52{fill:#dddcdc;}.cls-53{fill:#cececf;}.cls-54{fill:#ababab;}.cls-55{fill:#bdbdbd;}.cls-56{fill:#a6a6a6;}.cls-57{fill:#a6a7a7;}.cls-58{fill:#b1b1b2;}.cls-59{fill:#bcbbbb;}.cls-60{fill:#b2b3b3;}.cls-61{fill:#6b6b6c;}.cls-62{fill:#7e7e7f;}.cls-63{fill:#747474;}.cls-64{fill:#999898;}.cls-65{fill:#303030;}.cls-66{fill:#333;}.cls-67{fill:#8e8d8d;}.cls-68{fill:#858584;}.cls-69{fill:#939394;}.cls-70{fill:#8b8a8a;}.cls-71{fill:#a1a1a0;}.cls-72{fill:#9c9d9d;}.cls-73{fill:#9c9b9c;}.cls-74{fill:#b8b7b8;}.cls-75{fill:#c2c2c1;}.cls-76{fill:#8f9090;}.cls-77{fill:#b6b6b7;}.cls-78{fill:#c1c1c1;}.cls-79{fill:#666565;}.cls-80{fill:#ebebec;}.cls-81{fill:#f1f2f1;}.cls-82{fill:#edeeee;}.cls-83{fill:#f4f3f3;}.cls-84{fill:#fafbfc;}.cls-85{fill:#fcfcfc;}.cls-86{fill:#e9e9e9;}.cls-87{fill:#e6e6e5;}.cls-88{fill:#e2e2e3;}.cls-89{fill:#e5e3e4;}.cls-90{fill:#010003;}.cls-91{fill:#050403;}.cls-92{fill:#6a6969;}.cls-93{fill:#000003;}.cls-94{fill:#000002;}.cls-95{fill:#000001;}.cls-96{isolation:isolate;}.cls-97{mix-blend-mode:multiply;opacity:.3;}.cls-98{font-family:Verdana, Verdana;}</style></defs><g class="cls-96"><g id="Layer_4"><g><g><path class="cls-2" d="M107.19,124.97c40.56,0,76.35,20.42,97.67,51.53l-25.33,11.44c-16.64-21.73-42.85-35.74-72.34-35.74s-55.76,14.05-72.4,35.83l-25.11-11.64c21.3-31.16,56.91-51.42,97.51-51.42Z"/><g class="cls-97"><path class="cls-85" d="M65.61,162.23l16.09-34.51c-20.05,4.41-38.2,13.9-53.02,27.05l-.08,.07c-.23,.21-.46,.41-.69,.62-6.85,6.22-12.97,13.24-18.23,20.92l25.11,11.64c.26-.34,.51-.67,.78-1h0l.02-.03c.26-.33,.52-.65,.78-.98l.03-.03c.26-.32,.52-.64,.78-.96l.04-.04c.26-.31,.52-.62,.78-.92l.08-.09c.25-.29,.51-.59,.76-.87l.08-.1c.26-.29,.51-.57,.77-.85l.11-.11c.25-.28,.5-.55,.75-.82l.14-.15c.24-.26,.48-.52,.73-.78l.16-.16c.24-.25,.48-.5,.73-.75l.18-.18c.24-.24,.48-.48,.72-.72l.2-.2c.24-.23,.48-.46,.71-.69l.22-.21c.23-.22,.46-.44,.7-.66l.25-.24c.22-.21,.45-.41,.67-.62l.29-.26c.22-.19,.43-.39,.65-.58l.32-.28c.21-.19,.42-.37,.63-.55l.34-.3c.21-.17,.41-.35,.62-.52,.13-.11,.26-.22,.39-.32,.19-.16,.39-.32,.59-.48,.13-.11,.27-.22,.41-.33,.19-.15,.38-.3,.57-.45,.15-.12,.3-.24,.45-.35,.18-.14,.37-.29,.55-.43,.18-.13,.35-.27,.53-.4,.16-.12,.33-.25,.49-.37,.21-.16,.42-.31,.64-.47l.38-.28c.24-.18,.48-.35,.73-.52l.3-.21c.27-.19,.54-.38,.81-.57l.23-.16c.32-.22,.64-.43,.96-.65l.06-.04c.33-.22,.67-.44,1-.66l.06-.04c.34-.22,.68-.44,1.02-.65l.05-.03c.35-.22,.71-.44,1.07-.66h0c.36-.22,.72-.43,1.08-.65h.01c.73-.43,1.46-.85,2.2-1.26h0c.74-.42,1.49-.81,2.24-1.2h0Z"/><path class="cls-84" d="M65.36,162.36l16.13-34.59c-19.97,4.42-38.05,13.9-52.82,27.01l-.15,.14c-.2,.18-.4,.35-.59,.53-6.86,6.22-12.99,13.24-18.25,20.94l25.11,11.64c.26-.34,.52-.67,.78-1l.04-.05c.25-.32,.51-.64,.76-.95l.03-.05c.26-.31,.51-.62,.77-.94l.06-.07c.25-.3,.5-.6,.75-.89l.1-.12c.24-.28,.49-.57,.73-.85l.11-.12c.25-.28,.5-.56,.75-.84l.11-.11c.24-.27,.49-.54,.74-.8l.16-.17c.24-.25,.48-.5,.71-.75l.18-.18c.23-.24,.47-.49,.71-.73l.19-.19c.24-.24,.47-.48,.71-.71l.2-.2c.23-.23,.46-.46,.7-.68l.22-.21c.22-.22,.46-.44,.69-.65l.25-.24c.22-.2,.45-.41,.67-.62l.28-.26c.22-.19,.43-.39,.65-.58l.32-.28c.21-.19,.43-.37,.64-.56,.11-.09,.22-.18,.32-.28,.2-.17,.41-.35,.61-.52,.14-.12,.29-.24,.44-.36,.18-.15,.37-.3,.55-.45,.14-.12,.28-.23,.42-.34,.19-.15,.38-.3,.57-.45,.18-.14,.36-.29,.55-.43,.14-.11,.28-.22,.42-.32,.21-.16,.43-.32,.64-.48l.37-.28c.22-.16,.43-.32,.65-.49l.36-.26c.24-.17,.47-.34,.71-.51l.3-.21c.25-.17,.5-.35,.75-.52l.29-.2c.26-.18,.52-.36,.79-.53l.24-.16c.27-.18,.55-.36,.83-.54l.24-.16c.27-.18,.55-.35,.83-.53l.23-.14c.29-.18,.58-.36,.88-.54l.17-.11c.31-.19,.61-.37,.92-.55l.13-.08c.32-.19,.64-.38,.97-.56l.14-.08c.33-.19,.65-.37,.98-.55l.06-.04c.35-.19,.7-.38,1.05-.57l.06-.03c.36-.19,.71-.38,1.07-.56Z"/><path class="cls-4" d="M65.11,162.49l16.17-34.67c-19.9,4.45-37.9,13.9-52.62,26.98l-.19,.17c-.18,.16-.36,.32-.54,.48-6.86,6.22-12.99,13.25-18.25,20.94l25.11,11.64c.26-.34,.52-.67,.78-1l.04-.05c.25-.32,.5-.63,.76-.95l.05-.06c.25-.31,.5-.62,.76-.92l.06-.07c.25-.3,.5-.59,.75-.89l.1-.11c.25-.29,.49-.57,.74-.85l.1-.11c.25-.28,.5-.56,.75-.84l.1-.12c.25-.27,.5-.54,.75-.81l.14-.14c.24-.26,.49-.53,.74-.78l.13-.13c.25-.26,.5-.52,.75-.77l.15-.15c.25-.26,.51-.51,.76-.76l.14-.14c.26-.25,.51-.5,.77-.75l.15-.15c.25-.24,.51-.48,.77-.73l.16-.15c.26-.24,.52-.48,.78-.71l.16-.15c.26-.23,.52-.46,.78-.69l.18-.16c.27-.23,.53-.46,.8-.69l.16-.13c.26-.23,.53-.45,.8-.68l.24-.2c.26-.22,.52-.43,.78-.64l.19-.15c.27-.22,.54-.43,.81-.65l.24-.19c.26-.2,.52-.4,.78-.6l.25-.19c.26-.2,.53-.4,.8-.6l.23-.17c.27-.2,.53-.39,.8-.59l.24-.17c.26-.19,.53-.38,.79-.56l.25-.18c.27-.18,.53-.37,.8-.55l.26-.18c.26-.18,.53-.35,.79-.53l.29-.19c.26-.17,.53-.34,.79-.51l.27-.17c.27-.17,.53-.34,.8-.5l.31-.19c.25-.16,.51-.31,.77-.47l.33-.2c.26-.16,.53-.31,.79-.46l.3-.18c.27-.15,.54-.31,.81-.46l.3-.17c.27-.15,.54-.3,.82-.45l.31-.17c.28-.15,.55-.3,.83-.44l.29-.15h0Z"/><path class="cls-5" d="M64.87,162.62l16.21-34.76c-19.88,4.48-37.86,13.97-52.56,27.06l-.04,.04c-.19,.18-.39,.35-.58,.53-6.84,6.21-12.96,13.22-18.21,20.9l25.11,11.64c.26-.34,.51-.67,.77-1l.05-.06c.25-.32,.5-.63,.75-.94l.05-.06c.25-.31,.5-.61,.76-.92l.08-.09c.24-.29,.49-.58,.73-.87l.11-.12c.24-.29,.49-.57,.74-.86l.08-.09c.25-.29,.51-.57,.76-.86l.1-.11c.25-.27,.5-.55,.75-.82l.13-.14c.25-.27,.5-.53,.75-.79l.12-.13c.25-.26,.51-.52,.77-.78l.13-.13c.26-.26,.51-.52,.77-.77l.13-.13c.27-.26,.53-.52,.8-.77l.11-.11c.27-.26,.55-.52,.82-.78l.11-.1c.28-.26,.56-.52,.84-.78l.11-.1c.28-.25,.55-.5,.83-.74l.2-.18c.27-.24,.54-.47,.82-.71l.15-.13c.26-.23,.53-.45,.8-.67l.23-.19c.25-.21,.51-.42,.76-.63l.21-.17c.25-.2,.51-.41,.76-.61l.26-.21c.24-.19,.49-.38,.73-.57l.28-.22c.24-.19,.49-.37,.74-.56l.28-.2c.25-.18,.49-.36,.74-.54l.3-.21c.24-.18,.49-.35,.73-.52l.3-.21c.25-.17,.5-.35,.75-.51l.3-.21c.25-.16,.5-.33,.75-.5l.32-.22c.25-.16,.5-.32,.75-.49l.37-.23c.24-.15,.47-.3,.71-.45,.15-.09,.29-.18,.43-.27,.22-.13,.44-.27,.66-.4,.15-.09,.31-.19,.46-.28,.22-.13,.43-.25,.65-.38,.16-.09,.32-.18,.48-.28,.22-.12,.43-.25,.65-.37,.15-.09,.31-.18,.46-.26,.22-.13,.45-.25,.67-.37,.16-.08,.31-.17,.46-.25,.25-.14,.5-.27,.75-.4Z"/><path class="cls-83" d="M64.62,162.76l16.24-34.84c-20.09,4.57-38.24,14.25-53,27.61-6.83,6.2-12.94,13.21-18.17,20.87l25.11,11.64c.26-.34,.51-.67,.78-1l.04-.05c.25-.32,.5-.63,.76-.95l.05-.07c.25-.3,.5-.6,.75-.91l.09-.11c.24-.28,.47-.57,.72-.85l.13-.15c.24-.27,.47-.55,.71-.82l.12-.13c.24-.28,.49-.55,.73-.82l.11-.13c.24-.26,.48-.53,.72-.79l.16-.17c.24-.25,.47-.5,.71-.75l.16-.17c.24-.24,.47-.49,.71-.73l.18-.18c.25-.25,.49-.5,.74-.74l.14-.14c.25-.25,.51-.49,.76-.74l.22-.21c.23-.22,.46-.43,.68-.65l.31-.29c.21-.2,.43-.39,.64-.59,.1-.09,.21-.19,.31-.28,.21-.19,.42-.38,.63-.57,.12-.1,.24-.21,.36-.31,.21-.18,.42-.37,.63-.55,.11-.09,.22-.18,.33-.28,.2-.17,.4-.34,.61-.51,.13-.11,.27-.22,.4-.34,.19-.16,.38-.31,.58-.47,.13-.11,.26-.21,.4-.32,.19-.16,.38-.31,.58-.46,.15-.12,.3-.24,.45-.36,.18-.13,.35-.27,.53-.4,.2-.16,.4-.31,.61-.46l.39-.29c.23-.17,.46-.34,.68-.5l.33-.24c.24-.17,.48-.35,.72-.51l.31-.22c.25-.18,.51-.35,.76-.53l.24-.16c.27-.19,.55-.38,.82-.56l.19-.13c.29-.19,.58-.38,.87-.57l.14-.09c.3-.2,.61-.39,.91-.59l.14-.08c1.88-1.18,3.81-2.3,5.78-3.34Z"/><path class="cls-81" d="M64.37,162.89l16.29-34.92c-20.01,4.58-38.08,14.25-52.79,27.56-6.83,6.2-12.94,13.21-18.17,20.87l25.11,11.64c.26-.34,.52-.67,.78-1l.03-.04c.25-.32,.5-.63,.75-.94l.07-.09c.24-.3,.49-.6,.73-.89l.09-.11c.24-.29,.48-.57,.72-.86l.12-.14c.24-.27,.47-.55,.71-.82l.13-.14c.24-.27,.48-.54,.72-.8l.13-.14c.24-.27,.48-.53,.73-.79l.15-.16c.24-.26,.49-.52,.73-.78l.14-.14c.25-.26,.5-.52,.75-.77l.15-.15c.25-.25,.5-.51,.76-.76l.2-.19c.25-.24,.49-.48,.74-.72l.21-.2c.23-.22,.46-.44,.7-.66l.26-.24c.22-.2,.43-.4,.65-.6l.3-.27c.21-.19,.42-.37,.62-.56,.11-.1,.22-.19,.34-.3,.2-.18,.4-.35,.6-.52,.12-.1,.24-.2,.35-.3,.2-.16,.39-.33,.59-.5,.14-.12,.28-.24,.43-.36,.18-.15,.36-.3,.54-.45,.19-.15,.38-.3,.56-.45l.39-.31c.22-.17,.43-.34,.66-.51l.32-.25c.23-.18,.46-.36,.7-.53l.29-.22c.24-.19,.49-.37,.74-.55l.24-.18c.26-.19,.53-.38,.79-.57l.19-.13c.27-.19,.55-.39,.83-.58l.18-.13c1.8-1.24,3.64-2.41,5.53-3.52h0c.7-.41,1.4-.82,2.12-1.21l.03-.02c.35-.2,.71-.39,1.06-.58Z"/><path class="cls-82" d="M64.11,163.02l16.33-35.01c-19.93,4.61-37.93,14.25-52.59,27.52-6.83,6.2-12.93,13.2-18.17,20.86l25.11,11.64c.26-.34,.51-.67,.77-1l.05-.05c.25-.31,.49-.62,.74-.93l.07-.09c.24-.3,.49-.59,.73-.89l.09-.11c.24-.28,.47-.57,.71-.84l.13-.14c.24-.28,.47-.55,.72-.83l.11-.13c.25-.28,.5-.56,.75-.83l.1-.11c.25-.28,.5-.55,.75-.82l.12-.13c.26-.28,.52-.56,.79-.83l.07-.08c.27-.29,.55-.57,.83-.85l.13-.12c.26-.26,.51-.52,.78-.78l.15-.15c.25-.24,.5-.48,.75-.73l.18-.17c.24-.23,.48-.46,.73-.68l.22-.21c.23-.21,.46-.42,.69-.63l.26-.24c.23-.2,.45-.41,.68-.61l.28-.24c.22-.19,.44-.39,.67-.58l.3-.26c.22-.18,.43-.36,.65-.54,.14-.12,.29-.24,.43-.36,.18-.15,.36-.3,.54-.44,.15-.13,.31-.25,.46-.38,.18-.15,.37-.29,.55-.44,.16-.12,.31-.24,.47-.37,.17-.14,.35-.27,.52-.41,.16-.13,.33-.25,.49-.38,.19-.15,.39-.29,.58-.43,.15-.11,.29-.22,.44-.33,.19-.14,.39-.29,.59-.43,.14-.1,.29-.21,.43-.31,.19-.14,.39-.28,.59-.42,.14-.1,.29-.2,.44-.3,.2-.14,.39-.27,.59-.41,.21-.15,.42-.28,.63-.43,.14-.09,.27-.18,.4-.27,.23-.15,.46-.3,.68-.45l.37-.24c.24-.15,.48-.31,.72-.46l.34-.22c.24-.15,.48-.3,.73-.45l.33-.2c.26-.15,.51-.31,.77-.46l.32-.19c.25-.15,.5-.29,.76-.44l.39-.22c.23-.13,.46-.26,.7-.39,.16-.09,.33-.18,.5-.27,.2-.11,.4-.22,.6-.33Z"/><path class="cls-80" d="M63.87,163.15l16.37-35.09c-19.84,4.62-37.75,14.24-52.36,27.45-6.84,6.21-12.95,13.21-18.19,20.88l25.11,11.64c.26-.34,.52-.67,.78-1l.03-.04c.25-.32,.5-.63,.75-.94l.07-.09c.24-.3,.48-.59,.72-.88l.11-.13c.24-.28,.47-.57,.71-.85l.11-.13c.25-.28,.49-.57,.74-.85l.09-.1c.26-.3,.52-.59,.79-.88l.05-.05c.27-.3,.54-.59,.81-.88l.06-.06c.28-.3,.57-.6,.85-.91l.03-.03c.28-.29,.56-.58,.85-.87l.08-.08c.27-.27,.54-.55,.81-.81l.1-.09c.27-.27,.54-.53,.82-.8l.09-.09c.27-.26,.55-.52,.83-.78l.1-.1c.27-.25,.55-.51,.83-.76l.11-.1c.28-.26,.57-.51,.85-.77l.09-.08c.31-.27,.62-.54,.94-.81h0v-.02c.32-.26,.62-.52,.94-.78l.13-.11c.28-.24,.57-.47,.86-.7l.13-.11c.29-.23,.57-.46,.86-.68l.15-.11c.28-.22,.57-.44,.86-.66l.16-.12c.29-.22,.58-.44,.87-.66l.13-.1c.3-.22,.59-.44,.9-.66l.13-.1c.31-.22,.63-.45,.94-.67l.08-.06c.34-.23,.67-.46,1.01-.7l.07-.05c.32-.22,.65-.43,.97-.65l.12-.08c.32-.21,.64-.41,.96-.62l.12-.08c.32-.2,.63-.4,.95-.59l.15-.09c.31-.19,.63-.38,.94-.57l.16-.09c.32-.19,.63-.38,.95-.56l.15-.08c.33-.19,.67-.39,1.01-.58l.08-.04c.36-.2,.72-.4,1.08-.6h.02Z"/><path class="cls-86" d="M63.61,163.29l16.4-35.18c-19.74,4.64-37.58,14.23-52.13,27.38-6.84,6.21-12.96,13.22-18.21,20.9l25.11,11.64c.25-.33,.51-.66,.77-.99l.06-.07c.24-.31,.49-.62,.73-.92l.08-.09c.24-.3,.48-.59,.72-.89l.09-.11c.24-.28,.48-.57,.72-.85l.11-.14c.24-.28,.49-.56,.73-.84l.09-.1c.26-.3,.53-.59,.79-.89l.05-.05c.27-.3,.55-.6,.83-.9l.08-.09c.26-.28,.52-.55,.78-.83l.13-.13c.24-.26,.49-.51,.74-.77l.16-.16c.25-.25,.5-.49,.75-.74l.14-.14c.25-.25,.5-.49,.75-.73l.17-.16c.25-.24,.49-.47,.74-.7l.18-.17c.25-.23,.5-.46,.75-.68l.26-.24c.23-.21,.47-.42,.7-.63l.28-.25c.24-.21,.48-.42,.73-.63l.24-.2c.23-.2,.46-.39,.69-.59l.32-.27c.22-.18,.43-.36,.66-.54l.31-.25c.22-.18,.44-.35,.65-.52l.34-.26c.21-.16,.42-.33,.64-.49,.16-.12,.31-.24,.47-.36,.19-.14,.37-.28,.56-.42,.16-.12,.31-.23,.47-.35,.18-.13,.37-.27,.55-.4,.17-.12,.34-.24,.5-.36,.19-.13,.38-.27,.57-.4,.16-.11,.32-.22,.48-.34,.2-.14,.4-.27,.6-.41l.44-.29c.2-.14,.4-.27,.6-.4,.18-.12,.36-.23,.54-.35,.17-.11,.33-.22,.5-.32,.2-.13,.4-.26,.61-.39,.15-.09,.3-.19,.45-.28,.22-.14,.45-.28,.67-.42l.38-.23c.24-.15,.48-.29,.73-.43l.34-.2c.24-.15,.49-.29,.74-.43l.37-.21c.24-.13,.47-.27,.71-.4,.19-.1,.37-.21,.56-.31h.03Z"/><path class="cls-87" d="M63.36,163.43l16.45-35.27c-19.62,4.65-37.35,14.18-51.83,27.25-6.88,6.23-13.03,13.27-18.3,20.98l25.11,11.64c.25-.33,.51-.66,.76-.99l.07-.09c.24-.3,.48-.6,.72-.9l.08-.1c.24-.29,.48-.58,.72-.87l.1-.12c.23-.28,.47-.55,.7-.83l.13-.15c.24-.28,.48-.56,.73-.84l.1-.11c.26-.3,.53-.59,.8-.89l.03-.03h0l.03-.03c.26-.29,.53-.58,.8-.87l.13-.14c.24-.25,.48-.51,.72-.76l.17-.18c.24-.24,.47-.49,.71-.73l.18-.18c.23-.23,.46-.46,.7-.7l.21-.21c.23-.23,.46-.46,.7-.68l.2-.19c.24-.23,.47-.45,.71-.67l.31-.29c.21-.2,.43-.4,.64-.59l.33-.3c.21-.19,.42-.38,.64-.57l.32-.28c.21-.18,.41-.36,.62-.53l.33-.29c.2-.17,.4-.34,.6-.5,.15-.13,.3-.25,.45-.37,.17-.14,.33-.27,.5-.41,.19-.15,.37-.3,.56-.45l.41-.32c.2-.16,.41-.32,.62-.49l.36-.28c.22-.17,.43-.33,.65-.5,.11-.09,.23-.17,.34-.25,.22-.17,.45-.34,.67-.5l.26-.19c.24-.18,.49-.35,.73-.53,.16-.12,.32-.23,.48-.35h0c.28-.2,.57-.4,.86-.6l.14-.1c.28-.19,.56-.38,.84-.57l.19-.13c.29-.19,.57-.38,.86-.57l.13-.08c.3-.2,.61-.39,.92-.59l.05-.03c1.49-.94,3.02-1.83,4.57-2.69h0Zm-9.79,6.23c.24-.18,.49-.35,.73-.53l-.73,.53Z"/><path class="cls-89" d="M63.11,163.57l16.49-35.37c-19.47,4.65-37.06,14.11-51.46,27.06-6.94,6.27-13.14,13.36-18.45,21.13l25.11,11.64c.25-.33,.51-.66,.76-.98l.07-.09c.24-.3,.47-.6,.71-.89l.09-.11c.24-.29,.48-.58,.72-.87l.1-.12c.24-.29,.48-.57,.72-.85l.1-.12c.25-.3,.51-.59,.77-.88l.05-.06c.27-.31,.54-.61,.81-.91l.08-.09c.25-.27,.5-.55,.76-.82l.14-.15c.24-.25,.47-.51,.71-.76l.17-.18c.23-.24,.47-.48,.7-.72l.18-.18c.24-.24,.48-.48,.71-.71l.18-.18c.25-.24,.5-.49,.75-.73l.22-.2c.24-.23,.48-.46,.72-.68l.26-.24c.22-.2,.44-.41,.67-.61l.28-.26c.21-.19,.42-.38,.64-.57l.3-.27c.22-.19,.43-.38,.65-.56l.29-.25c.21-.18,.42-.36,.64-.54,.16-.13,.31-.26,.47-.39,.16-.14,.33-.28,.5-.41,.17-.14,.34-.28,.51-.41,.18-.14,.35-.28,.52-.42,.16-.13,.32-.25,.48-.38,.18-.14,.37-.29,.56-.43,.14-.11,.29-.22,.43-.33,.18-.14,.36-.27,.55-.41,.19-.14,.38-.28,.57-.42,.14-.1,.28-.21,.42-.31,.22-.16,.44-.32,.66-.48l.35-.24c.23-.16,.46-.33,.7-.49l.31-.21c.24-.16,.48-.33,.72-.49l.27-.18c.26-.17,.52-.34,.78-.52,.16-.11,.33-.21,.5-.32,.29-.18,.57-.36,.86-.54l.16-.1c.29-.18,.58-.36,.86-.54l.18-.11c.3-.18,.6-.36,.9-.54l.11-.06c.31-.19,.63-.37,.94-.55l.08-.04c.32-.19,.65-.37,.97-.55h0Zm-6.35,3.87c.26-.17,.52-.34,.78-.52l-.78,.52Z"/><path class="cls-48" d="M62.6,163.85l16.58-35.54c-19.33,4.7-36.8,14.14-51.11,27.02-6.91,6.25-13.09,13.32-18.38,21.06l25.11,11.64c.25-.33,.51-.66,.76-.99l.06-.08c.24-.3,.48-.61,.73-.91l.08-.09c.24-.3,.49-.59,.73-.88l.09-.1c.25-.3,.5-.59,.75-.88l.06-.08c.27-.31,.54-.62,.82-.93l.02-.02c.27-.3,.54-.61,.81-.91l.07-.08,.77-.84,.11-.11c.25-.27,.51-.54,.76-.81l.11-.11c.27-.27,.53-.55,.8-.82l.07-.07c.28-.29,.57-.57,.86-.86l.09-.09c.27-.26,.54-.52,.8-.78l.13-.13c.26-.25,.51-.49,.77-.73l.15-.14c.26-.24,.52-.48,.79-.72l.14-.13c.27-.24,.54-.48,.81-.72l.2-.18c.27-.23,.53-.46,.8-.7l.16-.14c.25-.22,.51-.43,.77-.65l.22-.19c.25-.21,.5-.41,.75-.61l.22-.18c.26-.21,.52-.41,.78-.62l.26-.2c.26-.2,.52-.4,.78-.6l.27-.2c.25-.19,.51-.39,.76-.57l.26-.19c.25-.18,.49-.36,.74-.54l.28-.21c.25-.18,.5-.36,.75-.54l.26-.18c.27-.18,.53-.37,.8-.55l.31-.21c.27-.18,.54-.36,.81-.54l.29-.19c.25-.17,.51-.33,.77-.5l.3-.19c.25-.16,.51-.32,.76-.48l.31-.19c.25-.16,.51-.31,.76-.46l.39-.23c.24-.14,.48-.28,.72-.43,.14-.08,.28-.16,.42-.24,.26-.15,.51-.3,.77-.44Z"/><path class="cls-52" d="M62.34,164l16.62-35.64c-19.26,4.72-36.67,14.15-50.93,27-6.9,6.24-13.06,13.3-18.35,21.03l25.11,11.64c.25-.33,.51-.66,.76-.99l.07-.08c.24-.3,.48-.6,.72-.9l.08-.1c.24-.3,.48-.59,.72-.88l.08-.09c.25-.3,.51-.6,.76-.9l.05-.06c.27-.31,.54-.62,.8-.92l.06-.07c.26-.29,.51-.57,.77-.86l.1-.11c.24-.27,.49-.54,.73-.8l.14-.15c.24-.26,.49-.52,.74-.78l.13-.14c.27-.27,.53-.55,.8-.82l.14-.14c.24-.25,.49-.49,.73-.73l.19-.18c.23-.23,.46-.45,.7-.68l.22-.21c.22-.21,.45-.43,.67-.63l.25-.24c.23-.21,.46-.43,.7-.64l.31-.28c.22-.2,.45-.4,.67-.6,.1-.09,.21-.18,.31-.27,.2-.18,.41-.36,.62-.54l.31-.26c.2-.17,.41-.35,.61-.52,.15-.12,.3-.25,.45-.38,.16-.13,.33-.27,.49-.4,.18-.15,.36-.29,.54-.43,.15-.12,.3-.24,.44-.35,.18-.14,.37-.29,.55-.44,.15-.11,.3-.23,.45-.35,.18-.14,.36-.27,.54-.41,.17-.13,.34-.26,.52-.39,.22-.16,.43-.32,.65-.48l.32-.23c.24-.17,.47-.34,.72-.51l.29-.21c.24-.17,.48-.34,.72-.51l.24-.17c.26-.18,.51-.35,.77-.52,.16-.11,.32-.21,.48-.32,.28-.19,.57-.37,.85-.55l.16-.11c.28-.18,.57-.36,.85-.54l.14-.09c.3-.19,.59-.37,.89-.55l.11-.07c.8-.49,1.6-.96,2.41-1.42h0Zm-6.66,4.16c.26-.18,.51-.35,.77-.52l-.77,.52Z"/><path class="cls-43" d="M62.09,164.14l16.66-35.73c-19.18,4.74-36.52,14.15-50.74,26.97-6.89,6.24-13.05,13.29-18.33,21.01l25.11,11.64c.25-.33,.51-.66,.76-.98l.07-.08c.24-.3,.47-.6,.71-.89l.09-.11c.24-.3,.48-.59,.72-.88l.08-.09c.26-.31,.51-.61,.78-.92l.02-.02h0l.03-.03c.25-.3,.51-.59,.77-.89l.11-.12c.24-.27,.48-.54,.73-.81l.13-.14c.24-.26,.48-.52,.72-.78l.15-.16c.25-.27,.5-.53,.75-.8l.15-.16c.24-.25,.49-.51,.74-.76l.19-.19c.23-.23,.46-.46,.69-.69l.2-.2c.23-.22,.46-.45,.69-.67l.22-.22c.23-.22,.46-.44,.7-.65l.3-.29c.23-.21,.45-.42,.68-.62l.28-.26c.21-.18,.41-.37,.62-.55l.33-.29c.19-.17,.39-.34,.58-.51,.15-.13,.3-.27,.46-.4,.15-.13,.31-.26,.47-.39,.19-.15,.37-.31,.56-.46,.13-.11,.27-.22,.4-.33,.19-.15,.37-.3,.56-.45,.15-.13,.31-.25,.47-.37,.22-.17,.43-.34,.65-.51l.32-.25c.24-.19,.49-.37,.73-.56l.25-.19c.24-.18,.49-.36,.73-.54l.23-.16c.26-.19,.52-.38,.78-.56l.07-.05c.43-.3,.86-.61,1.29-.9l.06-.04c.3-.2,.59-.4,.88-.59l.1-.06c.3-.2,.6-.4,.91-.6l.03-.02c1.43-.93,2.89-1.82,4.38-2.67Z"/><path class="cls-45" d="M61.83,164.29l16.7-35.82c-19.11,4.75-36.38,14.15-50.54,26.93-6.88,6.23-13.03,13.28-18.31,20.99l25.11,11.64c.25-.33,.51-.66,.76-.99l.06-.08c.24-.3,.48-.6,.72-.9l.08-.11c.24-.3,.49-.6,.73-.89l.06-.08c.26-.31,.52-.62,.79-.93l.06-.07c.25-.29,.51-.59,.77-.88l.08-.09c.25-.29,.51-.57,.76-.85l.09-.09c.25-.28,.51-.56,.77-.84l.1-.11c.27-.29,.54-.57,.81-.86l.11-.11c.25-.26,.5-.51,.75-.77l.15-.15c.25-.25,.5-.5,.75-.75l.14-.14c.25-.25,.51-.5,.77-.74l.18-.17c.25-.25,.51-.49,.77-.73l.19-.18c.24-.22,.47-.44,.71-.65l.22-.21c.23-.21,.46-.41,.69-.62l.24-.22c.24-.22,.49-.43,.74-.64l.3-.26c.23-.19,.46-.38,.68-.58l.32-.26c.21-.17,.43-.35,.64-.52l.32-.26c.22-.17,.43-.34,.65-.51,.14-.11,.28-.22,.43-.34,.19-.15,.38-.3,.58-.45,.15-.11,.3-.23,.45-.34,.21-.16,.42-.32,.63-.48,.13-.09,.25-.19,.38-.28,.2-.15,.4-.29,.59-.43,.16-.12,.33-.23,.49-.35,.18-.12,.35-.25,.53-.37,.18-.13,.35-.25,.53-.38,.17-.11,.34-.23,.51-.35,.18-.12,.36-.24,.54-.36,.2-.13,.4-.27,.6-.4,.15-.1,.3-.2,.45-.29,.2-.13,.39-.25,.59-.38,.19-.12,.38-.24,.58-.36l.47-.3c.21-.13,.42-.26,.62-.38l.42-.25c.21-.13,.43-.26,.64-.38,.19-.12,.39-.23,.58-.34,.16-.09,.31-.18,.47-.27Z"/><path class="cls-44" d="M61.58,164.44l16.75-35.92c-18.65,4.68-35.55,13.78-49.5,26.13l-.02,.02c-.28,.24-.55,.49-.82,.73-6.88,6.23-13.02,13.27-18.29,20.98l25.11,11.64c.25-.33,.5-.65,.75-.97l.08-.11c.24-.3,.47-.6,.71-.89l.08-.1c.24-.3,.49-.6,.74-.9l.06-.07c.26-.31,.52-.62,.78-.93l.06-.08c.25-.29,.51-.59,.76-.88l.07-.09c.26-.29,.52-.58,.78-.87l.07-.07c.27-.3,.55-.61,.83-.91h.01l.02-.03c.27-.29,.54-.58,.82-.87l.09-.1c.26-.27,.52-.54,.78-.81l.1-.1c.28-.28,.56-.56,.84-.84l.04-.04c.3-.29,.59-.58,.89-.86l.06-.05c.28-.27,.56-.53,.84-.79l.12-.11c.27-.25,.55-.51,.83-.76l.09-.08c.29-.27,.59-.53,.89-.79l.09-.08c.29-.25,.57-.5,.86-.75l.11-.09c.28-.23,.55-.47,.83-.7l.16-.14c.29-.24,.57-.47,.86-.71l.08-.07c.31-.25,.62-.5,.93-.74l.13-.11c.28-.22,.57-.44,.85-.66l.16-.12c.28-.22,.57-.43,.85-.64l.15-.11c.32-.24,.64-.47,.96-.7l.08-.06c.31-.22,.62-.44,.93-.66l.14-.1c.29-.21,.59-.41,.89-.61l.17-.12c.3-.2,.6-.4,.91-.6l.14-.09c.32-.21,.65-.42,.97-.63l.16-.1c.3-.19,.6-.38,.9-.57l.18-.11c.3-.19,.59-.37,.9-.55l.18-.11c.32-.2,.65-.39,.98-.58h.02Z"/><path class="cls-50" d="M61.32,164.59h0l16.8-36.02c-18.58,4.7-35.41,13.79-49.32,26.11l-.07,.07c-.25,.22-.49,.44-.74,.66-6.88,6.23-13.02,13.27-18.29,20.98l25.11,11.64c.25-.33,.51-.66,.76-.98l.06-.08c.24-.3,.48-.6,.72-.9l.08-.1c.25-.31,.5-.61,.75-.92l.04-.04c.26-.31,.51-.62,.78-.92l.11-.12c.24-.28,.48-.55,.72-.83l.11-.12c.25-.28,.5-.56,.75-.84l.09-.1c.26-.29,.53-.58,.79-.86l.13-.14c.24-.25,.48-.51,.73-.76l.15-.16c.24-.25,.48-.5,.73-.74l.15-.15c.25-.26,.51-.51,.77-.77l.18-.18c.24-.24,.49-.47,.73-.7l.21-.2c.22-.22,.45-.43,.68-.64l.23-.21c.23-.21,.46-.43,.69-.64l.32-.29c.22-.2,.45-.4,.67-.6l.31-.28c.21-.18,.41-.36,.61-.53l.31-.27c.2-.17,.4-.34,.59-.5,.17-.14,.33-.27,.49-.41,.16-.13,.32-.27,.48-.4,.16-.13,.32-.27,.49-.39,.19-.15,.38-.3,.57-.45,.15-.12,.29-.23,.44-.35,.16-.13,.33-.26,.5-.39,.2-.15,.4-.3,.6-.46l.38-.29c.2-.15,.41-.3,.62-.46l.43-.31c.19-.14,.38-.27,.56-.41,.17-.12,.34-.24,.51-.36,.22-.16,.45-.32,.67-.47l.32-.22c.24-.16,.48-.33,.73-.49l.24-.16c.25-.17,.51-.34,.76-.5,.16-.1,.31-.2,.47-.3h.02c.27-.18,.53-.35,.8-.52l.2-.12c.27-.17,.55-.34,.82-.51l.17-.1c.28-.17,.57-.34,.85-.51,.16-.09,.32-.19,.48-.28h0Zm-4.56,2.85c.25-.17,.51-.34,.76-.5l-.76,.5h0Zm3.23-2.06c.28-.17,.57-.34,.85-.51l-.85,.51Z"/><path class="cls-49" d="M61.06,164.74l16.84-36.12c-18.49,4.71-35.24,13.78-49.09,26.05l-.22,.19c-.2,.18-.4,.36-.61,.54-6.88,6.23-13.03,13.27-18.3,20.98l25.11,11.64c.25-.33,.51-.66,.76-.98l.06-.08c.24-.3,.48-.6,.73-.91l.07-.09c.25-.32,.51-.63,.77-.94h0v-.02c.26-.31,.52-.61,.78-.92l.1-.12c.24-.28,.48-.56,.73-.84l.11-.12c.25-.29,.51-.57,.76-.85l.07-.08c.26-.29,.52-.57,.78-.85l.15-.15c.23-.25,.47-.5,.7-.75l.16-.17c.24-.25,.48-.5,.72-.74l.19-.19c.25-.25,.5-.5,.75-.74l.18-.18c.23-.22,.45-.45,.68-.66l.23-.22c.22-.21,.44-.41,.66-.62l.34-.31c.21-.19,.42-.39,.63-.58l.32-.3c.2-.18,.4-.35,.6-.53,.11-.1,.23-.2,.34-.3,.19-.17,.38-.34,.58-.5,.16-.14,.32-.28,.49-.42,.15-.13,.29-.25,.44-.37,.19-.16,.37-.31,.55-.46,.16-.13,.32-.27,.49-.4,.19-.16,.38-.31,.58-.46l.37-.29c.22-.17,.43-.35,.66-.52l.27-.21c.23-.18,.47-.36,.7-.54l.23-.17c.34-.26,.68-.51,1.03-.76l.13-.1c.27-.19,.54-.38,.8-.57l.15-.1c.27-.19,.55-.38,.83-.58h.02c.74-.53,1.5-1.03,2.26-1.53l.05-.03c1.08-.7,2.17-1.37,3.27-2.02Z"/><path class="cls-53" d="M60.8,164.89l16.89-36.21c-18.42,4.73-35.11,13.78-48.92,26.02l-.23,.2c-.19,.17-.38,.34-.57,.51-6.88,6.23-13.02,13.27-18.29,20.98l25.11,11.64c.25-.33,.5-.65,.76-.98l.07-.09c.24-.31,.49-.61,.73-.92l.05-.07c.26-.32,.53-.64,.79-.96h.01c.25-.32,.51-.62,.77-.92l.12-.14c.24-.28,.48-.55,.72-.83l.09-.11c.26-.3,.53-.59,.8-.89l.07-.08c.25-.27,.5-.55,.76-.82l.14-.15c.24-.26,.48-.51,.73-.77l.13-.13c.26-.27,.52-.54,.79-.81l.15-.16c.24-.24,.47-.48,.71-.71l.19-.19c.23-.23,.47-.46,.71-.68l.18-.18c.26-.25,.52-.5,.79-.74l.22-.21c.22-.2,.44-.41,.66-.6l.27-.25c.21-.19,.42-.38,.63-.57l.38-.33c.21-.19,.42-.37,.63-.55l.34-.29c.19-.17,.39-.33,.59-.49l.38-.32c.19-.16,.38-.32,.57-.47l.49-.4c.15-.12,.3-.24,.45-.36,.18-.14,.36-.28,.54-.43,.18-.13,.36-.27,.54-.41,.17-.13,.35-.27,.53-.4,.15-.11,.29-.22,.44-.33,.2-.15,.41-.31,.62-.46l.32-.24c.22-.16,.44-.32,.67-.48,.16-.12,.32-.23,.49-.35,.22-.16,.45-.31,.67-.47l.3-.21c.24-.16,.48-.32,.71-.48l.29-.19c.24-.16,.48-.32,.73-.48h0c.15-.1,.31-.2,.46-.3h0c.26-.16,.51-.33,.77-.49l.24-.15c.27-.17,.54-.34,.81-.5l.14-.08c.28-.17,.56-.34,.84-.51Z"/><path class="cls-51" d="M60.54,165.05l16.93-36.31c-18.39,4.76-35.05,13.83-48.83,26.07l-.09,.08c-.21,.19-.42,.38-.63,.57-6.86,6.22-12.98,13.24-18.24,20.93l25.11,11.64c.25-.33,.5-.65,.76-.98l.07-.09c.24-.3,.48-.6,.72-.9l.07-.08c.26-.32,.51-.63,.77-.94l.04-.04c.25-.3,.51-.6,.76-.9l.09-.1c.25-.3,.51-.59,.76-.88l.05-.05c.27-.31,.54-.61,.82-.92l.05-.06c.26-.29,.52-.57,.79-.86l.09-.1c.27-.28,.53-.57,.8-.85l.05-.06c.28-.29,.55-.57,.83-.86l.11-.11c.26-.27,.53-.53,.8-.8l.08-.08c.29-.29,.58-.57,.87-.84l.05-.05c.28-.27,.57-.54,.85-.8l.11-.11c.27-.25,.54-.5,.81-.75l.11-.1c.29-.26,.58-.52,.88-.78l.11-.09c.27-.24,.55-.48,.83-.72l.14-.12c.27-.23,.54-.46,.81-.69l.16-.13c.29-.24,.58-.48,.87-.72l.16-.13c.27-.21,.54-.43,.81-.64l.19-.15c.28-.22,.57-.44,.86-.66l.14-.11c.3-.22,.59-.45,.89-.67l.17-.13c.28-.21,.56-.41,.85-.62l.16-.12c.31-.22,.62-.44,.93-.66l.14-.1c.29-.21,.58-.41,.88-.61l.19-.13c.28-.19,.57-.38,.86-.57l.19-.12c.31-.21,.63-.41,.95-.62l.17-.11c.3-.19,.59-.38,.89-.56l.19-.12c.3-.18,.6-.37,.9-.55l.14-.09Z"/><path class="cls-47" d="M60.28,165.21l16.98-36.41c-18.35,4.79-34.96,13.86-48.7,26.1l-.03,.02c-.21,.19-.42,.38-.63,.57-6.85,6.21-12.97,13.23-18.22,20.91l25.11,11.64c.25-.33,.51-.66,.76-.98l.06-.08c.24-.31,.48-.61,.73-.92l.06-.07c.26-.32,.51-.63,.78-.94l.05-.07c.24-.29,.49-.58,.74-.87l.11-.13c.25-.29,.51-.59,.76-.87l.03-.03,.02-.03c.26-.3,.53-.59,.79-.88l.1-.12c.24-.27,.49-.53,.73-.79l.13-.14c.26-.28,.52-.56,.79-.83l.11-.11c.24-.25,.49-.51,.73-.76l.17-.17c.24-.24,.48-.48,.72-.72l.16-.16c.26-.25,.52-.51,.78-.75l.2-.19c.23-.22,.45-.43,.68-.64l.24-.22c.23-.21,.46-.43,.7-.64l.31-.28c.22-.2,.44-.39,.66-.59l.28-.25c.21-.19,.43-.37,.64-.56l.36-.31c.2-.17,.4-.33,.6-.5,.13-.11,.27-.23,.41-.35,.19-.16,.38-.32,.58-.48,.12-.1,.24-.19,.35-.29,.2-.16,.4-.32,.61-.48,.17-.13,.34-.27,.5-.4,.16-.13,.33-.25,.49-.38,.16-.13,.32-.25,.48-.37,.18-.14,.36-.27,.54-.41,.18-.14,.37-.27,.56-.41,.15-.11,.29-.22,.44-.32,.19-.14,.39-.28,.59-.42,.18-.13,.36-.25,.54-.38,.16-.11,.33-.23,.5-.35,.17-.12,.33-.23,.5-.35,.21-.14,.42-.28,.62-.42l.37-.25c.22-.14,.43-.28,.64-.43,.18-.11,.35-.23,.53-.34,.21-.14,.43-.27,.64-.41l.39-.24c.22-.14,.45-.28,.67-.41l.44-.27,.11-.07Z"/><path class="cls-75" d="M59.75,165.53l17.08-36.62c-18.48,4.9-35.19,14.15-48.95,26.6-6.84,6.21-12.94,13.21-18.19,20.89l25.11,11.64c.25-.32,.5-.65,.75-.97l.07-.1c.24-.31,.49-.61,.73-.92l.05-.06c.25-.31,.51-.62,.77-.93l.08-.1c.24-.29,.49-.58,.73-.87l.08-.09c.26-.3,.52-.6,.78-.9l.08-.09c.25-.28,.5-.56,.75-.84l.1-.11c.25-.28,.5-.55,.76-.82l.14-.15c.24-.26,.48-.51,.72-.76l.17-.18c.23-.24,.47-.48,.71-.73l.16-.16c.25-.25,.51-.51,.76-.76l.2-.2c.22-.22,.45-.44,.67-.65l.21-.2c.24-.23,.48-.46,.72-.68l.3-.27c.21-.19,.41-.38,.62-.57l.3-.27c.2-.18,.4-.36,.61-.54,.14-.13,.28-.25,.43-.38,.19-.17,.39-.34,.59-.51,.12-.1,.24-.2,.36-.31,.18-.15,.36-.3,.54-.45,.18-.15,.36-.3,.54-.46,.14-.11,.27-.22,.41-.34,.18-.14,.35-.29,.53-.43,.17-.13,.33-.27,.5-.4,.21-.16,.42-.33,.62-.49l.29-.22c.22-.17,.45-.34,.67-.51l.33-.25c.27-.2,.54-.4,.82-.61l.24-.17c.25-.18,.49-.36,.74-.53l.16-.12c.35-.24,.7-.49,1.05-.73l.16-.11c.26-.18,.52-.35,.78-.53l.16-.11c.68-.46,1.37-.9,2.07-1.34l.1-.07c.28-.18,.57-.35,.85-.53Z"/><path class="cls-78" d="M59.49,165.69l17.12-36.72c-18.4,4.91-35.03,14.14-48.74,26.54-6.83,6.21-12.94,13.21-18.19,20.89l25.11,11.64c.25-.32,.5-.65,.75-.97l.07-.09c.25-.32,.5-.64,.76-.95h0c.26-.33,.52-.65,.78-.96l.07-.08c.25-.29,.49-.59,.75-.88l.07-.08c.26-.3,.52-.61,.79-.91l.06-.07c.26-.3,.53-.59,.79-.88l.05-.05c.27-.3,.54-.6,.82-.89l.08-.08c.26-.27,.52-.55,.78-.83l.09-.1c.27-.29,.55-.57,.83-.86l.06-.06c.27-.27,.54-.54,.81-.81l.1-.11c.28-.27,.56-.54,.84-.81l.06-.06c.28-.27,.56-.53,.84-.79l.13-.12c.27-.25,.54-.5,.82-.75l.09-.08c.28-.26,.57-.51,.86-.76l.16-.14c.27-.23,.53-.46,.8-.7l.13-.11c.28-.24,.57-.48,.86-.73l.18-.15c.26-.22,.52-.43,.78-.64l.18-.14c.29-.23,.58-.46,.87-.69l.18-.14c.26-.2,.52-.4,.78-.61l.21-.16c.28-.22,.57-.43,.85-.64l.2-.15c.27-.2,.54-.4,.81-.59l.22-.16c.28-.2,.55-.39,.82-.58l.22-.15c.28-.19,.56-.39,.84-.58l.24-.16c.27-.19,.54-.36,.81-.54l.25-.16c.29-.19,.58-.38,.87-.56l.22-.14c.28-.18,.55-.35,.84-.52l.22-.14h0Z"/><path class="cls-55" d="M59.23,165.85l17.17-36.83c-18.3,4.92-34.84,14.12-48.5,26.46-6.85,6.22-12.97,13.23-18.22,20.91l25.11,11.64c.25-.32,.5-.65,.75-.97l.08-.1c.24-.31,.49-.62,.74-.93l.02-.02v-.02c.27-.31,.52-.62,.78-.93l.08-.1c.25-.3,.5-.59,.75-.89l.05-.06c.26-.31,.52-.61,.79-.91l.08-.09c.26-.3,.52-.58,.78-.87l.05-.05c.27-.29,.53-.58,.8-.87l.13-.13c.24-.26,.49-.52,.74-.78l.11-.12c.26-.27,.53-.54,.8-.81l.13-.13c.25-.25,.5-.5,.75-.75l.14-.13c.27-.26,.54-.52,.81-.78l.16-.15c.24-.23,.48-.46,.72-.69l.19-.18c.26-.24,.52-.48,.79-.73l.21-.19c.22-.2,.46-.41,.68-.61l.25-.22c.25-.22,.49-.43,.74-.64l.27-.23c.22-.19,.45-.38,.67-.57l.29-.24c.22-.19,.45-.37,.67-.56l.37-.3c.22-.17,.43-.35,.65-.52l.32-.26c.21-.16,.43-.33,.64-.49,.15-.11,.3-.23,.44-.34,.21-.16,.42-.32,.63-.48l.34-.25c.22-.16,.43-.32,.65-.47l.45-.33c.22-.15,.43-.3,.64-.45,.12-.09,.24-.17,.37-.26,.21-.15,.42-.29,.63-.44,.16-.1,.31-.21,.46-.31,.22-.14,.44-.29,.66-.44l.4-.26c.21-.13,.41-.27,.62-.4,.16-.11,.33-.21,.49-.32,.22-.13,.43-.27,.65-.4h.02Z"/><path class="cls-59" d="M58.96,166.02l17.23-36.94c-18.18,4.92-34.63,14.08-48.22,26.34-6.87,6.23-13.02,13.27-18.28,20.97l25.11,11.64c.25-.32,.5-.65,.75-.97l.08-.1c.25-.32,.5-.63,.76-.95h0c.25-.32,.51-.63,.78-.95l.08-.09c.25-.3,.5-.59,.75-.89l.09-.1c.24-.29,.49-.57,.74-.85l.11-.13c.25-.28,.5-.57,.76-.84l.09-.1c.25-.27,.5-.54,.75-.81l.15-.16c.24-.26,.49-.52,.73-.77l.15-.16c.23-.24,.47-.49,.7-.73l.22-.22c.23-.23,.45-.45,.68-.68l.25-.24c.22-.22,.45-.44,.67-.66l.24-.23c.21-.2,.42-.4,.64-.6l.36-.34c.2-.19,.4-.37,.6-.55l.31-.28c.19-.17,.38-.34,.57-.51,.16-.13,.31-.27,.46-.4,.19-.16,.37-.32,.56-.48l.37-.31c.17-.15,.35-.29,.52-.44,.19-.16,.37-.31,.56-.47,.13-.11,.27-.22,.4-.33,.22-.18,.44-.35,.66-.53l.32-.26c.22-.18,.44-.35,.67-.52l.28-.22c.29-.22,.58-.44,.87-.66l.2-.15c.24-.18,.48-.36,.72-.53l.22-.16c.33-.24,.66-.48,.99-.71l.12-.09c.27-.19,.53-.37,.79-.56l.07-.05c.68-.47,1.37-.93,2.06-1.38l.09-.06c.39-.25,.79-.51,1.18-.75l.05-.03Z"/><path class="cls-74" d="M58.69,166.18l17.28-37.05c-18.08,4.93-34.44,14.05-47.97,26.25-6.89,6.24-13.05,13.29-18.32,21.01l25.11,11.64c.25-.33,.5-.65,.76-.98l.06-.08c.25-.32,.5-.63,.76-.95l.02-.02,.02-.02c.25-.31,.5-.62,.76-.93l.06-.08c.26-.31,.52-.61,.78-.92l.06-.07c.25-.29,.49-.57,.74-.86l.11-.12c.25-.29,.51-.58,.77-.87l.09-.09c.24-.27,.49-.53,.73-.8l.14-.15c.25-.27,.51-.54,.77-.81l.14-.15c.23-.24,.46-.48,.7-.72l.18-.19c.25-.25,.5-.5,.75-.75l.2-.2c.22-.22,.44-.43,.66-.64l.25-.24c.23-.22,.46-.44,.7-.66l.29-.27c.2-.18,.4-.37,.6-.55l.38-.34c.19-.17,.39-.35,.58-.52,.13-.11,.25-.22,.38-.33,.19-.16,.37-.32,.56-.48,.15-.13,.3-.26,.45-.38,.16-.14,.33-.28,.5-.42,.16-.14,.32-.27,.48-.4,.16-.13,.32-.26,.48-.39,.2-.16,.4-.32,.6-.48l.33-.26c.24-.19,.48-.38,.73-.57l.31-.24c.23-.18,.46-.35,.69-.53l.24-.18c.3-.23,.6-.45,.9-.67l.2-.15c.25-.18,.5-.36,.75-.54l.14-.1c.33-.24,.67-.47,1-.7l.2-.14c.25-.17,.5-.34,.75-.51l.15-.1c.35-.23,.7-.47,1.06-.7l.16-.1c.26-.17,.52-.34,.78-.5h.02Z"/><path class="cls-77" d="M58.43,166.35l17.33-37.16c-18,4.95-34.28,14.04-47.75,26.19-6.89,6.24-13.05,13.29-18.32,21.01l25.11,11.64c.25-.33,.5-.65,.76-.97l.06-.08c.25-.32,.5-.64,.76-.95l.04-.05c.25-.31,.5-.61,.76-.92l.06-.08c.26-.31,.51-.61,.77-.91l.08-.09c.25-.29,.5-.58,.76-.87l.06-.07c.27-.3,.53-.6,.81-.9l.06-.06c.26-.28,.51-.56,.77-.84l.1-.1c.26-.28,.53-.57,.8-.84l.1-.11c.27-.27,.53-.55,.8-.82l.06-.07c.28-.28,.55-.56,.84-.83l.11-.12c.27-.27,.54-.53,.82-.79l.09-.09c.27-.25,.54-.51,.81-.76l.14-.13c.27-.25,.55-.51,.83-.76l.14-.13c.25-.22,.5-.45,.76-.68l.19-.16c.27-.24,.55-.48,.82-.71l.18-.16c.24-.21,.48-.41,.73-.61l.25-.21c.26-.22,.52-.43,.79-.65l.22-.18c.24-.19,.49-.39,.73-.58l.28-.22c.25-.2,.5-.39,.76-.59l.28-.21c.24-.18,.48-.37,.73-.55l.3-.22c.25-.19,.5-.37,.75-.55l.27-.2c.26-.18,.51-.36,.76-.54l.32-.22c.24-.17,.49-.34,.74-.51l.29-.19c.25-.17,.51-.34,.76-.51l.38-.24c.24-.16,.48-.31,.72-.47l.29-.18Z"/><path class="cls-60" d="M58.16,166.52l17.38-37.27c-17.9,4.96-34.09,14.02-47.51,26.11-6.9,6.24-13.06,13.3-18.35,21.03l25.11,11.64c.25-.32,.5-.65,.75-.97l.07-.09c.25-.32,.5-.63,.76-.94l.03-.04c.25-.31,.51-.62,.76-.93l.05-.06c.25-.3,.51-.61,.77-.91l.09-.11c.25-.29,.5-.58,.76-.87l.05-.06c.27-.3,.53-.6,.8-.9l.08-.08c.26-.29,.52-.57,.79-.86l.08-.08c.26-.28,.52-.55,.78-.83l.1-.11c.27-.28,.54-.56,.81-.83l.1-.1c.26-.26,.52-.52,.78-.78l.1-.1c.27-.27,.55-.54,.83-.81l.13-.12c.25-.24,.51-.49,.77-.73l.16-.15c.26-.24,.52-.48,.79-.73l.18-.16c.25-.23,.51-.45,.76-.68l.23-.2c.24-.21,.49-.43,.73-.64l.21-.18c.25-.22,.51-.43,.76-.64l.27-.22c.23-.19,.47-.39,.71-.58l.23-.19c.26-.21,.53-.42,.79-.63l.27-.21c.23-.18,.47-.36,.7-.54l.32-.24c.24-.18,.48-.36,.72-.54l.3-.22c.23-.18,.47-.35,.71-.52l.36-.25c.24-.17,.48-.35,.72-.51l.27-.19c.26-.18,.53-.36,.79-.54l.32-.22c.24-.16,.48-.32,.72-.48l.33-.22c.26-.17,.51-.33,.77-.5Z"/><path class="cls-58" d="M57.89,166.69l17.43-37.38c-17.8,4.97-33.91,14-47.27,26.03-6.91,6.25-13.08,13.31-18.37,21.05l25.11,11.64c.25-.32,.5-.65,.75-.97l.07-.08c.25-.32,.5-.63,.75-.94l.05-.06c.25-.31,.5-.61,.75-.91l.06-.07c.25-.3,.5-.59,.75-.89l.11-.13c.25-.29,.5-.58,.75-.87l.06-.06c.25-.29,.51-.58,.77-.86l.1-.11c.25-.28,.51-.55,.76-.83l.15-.16c.23-.25,.46-.5,.7-.74l.15-.15c.25-.26,.5-.52,.76-.78l.18-.18c.23-.24,.47-.47,.7-.7l.21-.21c.23-.22,.45-.44,.68-.66l.24-.24c.22-.21,.44-.42,.67-.63l.32-.3c.19-.18,.39-.36,.59-.54,.13-.11,.26-.23,.38-.35,.19-.17,.38-.34,.56-.5l.38-.33c.18-.16,.37-.32,.55-.48,.16-.14,.32-.27,.48-.41,.16-.14,.33-.28,.5-.42,.18-.15,.36-.3,.54-.45,.13-.11,.26-.22,.39-.32,.19-.15,.38-.31,.57-.46,.15-.12,.3-.24,.46-.36,.21-.17,.42-.33,.64-.5l.27-.21c.27-.21,.55-.42,.82-.63l.24-.18c.23-.18,.47-.35,.7-.52l.21-.15c.31-.23,.62-.45,.94-.67l.17-.12c.25-.17,.49-.35,.74-.52l.41-.28c.27-.18,.53-.36,.8-.54l.05-.03c.39-.26,.77-.51,1.16-.76l.06-.03h0Zm-3.21,2.17c.25-.17,.49-.35,.74-.52l-.74,.52Z"/><path class="cls-54" d="M57.35,167.04l17.53-37.61c-17.65,5-33.62,13.99-46.88,25.95-6.89,6.24-13.05,13.29-18.33,21.01l25.11,11.64c.25-.32,.5-.65,.75-.97l.06-.08c.25-.32,.5-.63,.75-.94l.05-.06c.26-.32,.52-.64,.79-.96h.01c.26-.32,.51-.63,.78-.93l.07-.08c.26-.31,.52-.61,.79-.91l.06-.06c.27-.3,.54-.61,.81-.91h0c.27-.31,.54-.6,.81-.9l.1-.1c.27-.29,.54-.57,.8-.85l.08-.08c.27-.27,.53-.54,.8-.82l.08-.08c.27-.28,.55-.55,.83-.83l.1-.1c.27-.27,.55-.54,.82-.8l.12-.11c.26-.25,.52-.49,.78-.74l.13-.12c.27-.25,.54-.5,.81-.75l.16-.15c.27-.24,.53-.48,.79-.71l.19-.16c.25-.22,.51-.44,.76-.66l.15-.13c.27-.23,.55-.46,.82-.69l.22-.19c.26-.21,.51-.42,.78-.63l.23-.19c.24-.2,.49-.39,.74-.59l.25-.2c.26-.2,.52-.4,.79-.61l.26-.2c.25-.19,.5-.38,.75-.56l.29-.22c.25-.18,.49-.36,.74-.54l.26-.19c.28-.2,.55-.39,.83-.59l.24-.17c.26-.18,.52-.36,.78-.54l.3-.2c.25-.17,.51-.34,.77-.51l.26-.17h.01Z"/><path class="cls-57" d="M57.08,167.22l17.59-37.72c-17.2,4.91-32.8,13.61-45.83,25.14l-.06,.05c-.26,.23-.52,.46-.78,.7-6.89,6.24-13.04,13.29-18.32,21l25.11,11.64c.25-.33,.5-.65,.76-.98l.05-.07c.25-.32,.5-.63,.76-.94l.05-.07c.25-.32,.51-.63,.77-.94v-.02l.03-.02c.26-.3,.51-.61,.77-.91l.07-.08c.26-.3,.52-.6,.78-.89l.08-.09c.26-.3,.53-.59,.79-.89l.05-.06c.26-.28,.52-.57,.78-.85l.1-.11c.26-.28,.52-.55,.78-.83l.12-.13c.26-.27,.53-.54,.79-.81l.11-.12c.25-.25,.5-.51,.76-.76l.13-.13c.26-.26,.53-.51,.79-.77l.16-.15c.26-.25,.51-.49,.77-.74l.19-.17c.24-.22,.48-.44,.72-.66l.2-.18c.25-.22,.5-.45,.75-.67l.24-.21c.26-.22,.51-.45,.77-.67l.21-.18c.23-.2,.46-.39,.7-.59l.31-.26c.23-.19,.47-.39,.7-.58l.27-.22c.23-.19,.47-.37,.7-.56l.34-.27c.22-.17,.44-.34,.66-.51l.37-.28c.23-.17,.46-.34,.69-.51l.29-.22c.24-.18,.48-.35,.72-.53l.37-.27c.22-.16,.45-.32,.67-.47l.39-.27c.23-.16,.46-.32,.7-.48l.34-.23c.25-.16,.49-.33,.74-.49h.02Z"/><path class="cls-56" d="M56.81,167.41l17.65-37.85c-17.12,4.92-32.65,13.6-45.63,25.09l-.15,.14c-.23,.2-.45,.4-.67,.6-6.89,6.24-13.04,13.29-18.31,21l25.11,11.64c.25-.33,.5-.66,.76-.98l.05-.06c.25-.32,.5-.63,.75-.94l.06-.07c.25-.31,.51-.62,.77-.93l.04-.05c.25-.3,.5-.59,.75-.89l.08-.1c.25-.3,.51-.59,.76-.87l.1-.12c.25-.29,.51-.57,.77-.86l.1-.11c.24-.27,.49-.54,.74-.8l.15-.16c.24-.25,.47-.5,.71-.75l.18-.19c.24-.25,.48-.49,.72-.74l.22-.22c.22-.22,.44-.44,.66-.66l.26-.26c.21-.2,.42-.41,.63-.61l.31-.3c.21-.2,.42-.4,.63-.59l.3-.28c.19-.18,.39-.36,.58-.53,.13-.12,.27-.25,.41-.37,.16-.15,.33-.3,.5-.45,.17-.16,.35-.31,.53-.46,.16-.14,.31-.28,.47-.41,.18-.16,.36-.31,.54-.46l.33-.28c.24-.2,.48-.4,.73-.6l.25-.21c.22-.18,.44-.36,.67-.54h.01l.37-.31c.23-.19,.47-.37,.71-.56l.1-.07c.33-.26,.67-.51,1-.77l.11-.08c1-.75,2.01-1.47,3.03-2.18l.02-.02c.39-.27,.78-.53,1.17-.79Z"/><path class="cls-29" d="M56.54,167.59l17.71-37.97c-17.04,4.93-32.49,13.59-45.42,25.04l-.24,.21c-.19,.17-.38,.35-.57,.51-6.89,6.24-13.05,13.29-18.32,21l25.11,11.64c.25-.33,.51-.66,.76-.99l.04-.05c.25-.32,.5-.63,.75-.94l.08-.1c.25-.31,.5-.61,.75-.91l.06-.07c.25-.3,.5-.59,.75-.89l.07-.08c.25-.3,.51-.59,.76-.88l.09-.1c.25-.29,.5-.57,.76-.85l.12-.13c.25-.27,.5-.55,.76-.82l.14-.15c.23-.25,.46-.49,.69-.74l.19-.19c.23-.24,.47-.48,.7-.72l.19-.19c.24-.24,.48-.49,.73-.73l.22-.22c.22-.21,.44-.42,.65-.63l.3-.3c.2-.19,.4-.38,.6-.57l.36-.34c.19-.18,.38-.35,.58-.53,.12-.11,.25-.22,.37-.34,.18-.16,.35-.32,.54-.48,.14-.13,.29-.26,.44-.38,.16-.15,.33-.29,.5-.43,.17-.15,.35-.3,.52-.44,.15-.13,.3-.26,.45-.38,.2-.16,.4-.33,.59-.49l.31-.25c.24-.2,.49-.4,.73-.6l.26-.2c.3-.24,.6-.48,.9-.71l.11-.08c.24-.19,.48-.37,.73-.56l.37-.28c.23-.17,.46-.35,.7-.52l.16-.11c.32-.23,.63-.46,.96-.69l.15-.11c.35-.24,.7-.49,1.05-.73l.05-.04c.26-.17,.51-.35,.77-.52h0Zm-4.93,3.55c.24-.19,.48-.37,.73-.56l-.73,.56Z"/><path class="cls-71" d="M56.26,167.77l17.76-38.08c-17,4.96-32.42,13.63-45.32,25.07l-.11,.1c-.21,.19-.42,.38-.63,.57-6.87,6.23-13.01,13.26-18.27,20.96l25.11,11.64c.25-.33,.51-.66,.76-.99l.04-.05c.25-.32,.5-.63,.75-.94l.07-.08c.25-.31,.5-.62,.76-.93l.05-.06c.26-.31,.52-.62,.78-.93l.05-.06c.26-.3,.52-.6,.78-.89l.04-.05c.27-.3,.54-.6,.81-.9l.06-.07c.26-.29,.52-.58,.79-.86l.11-.11c.26-.28,.52-.56,.78-.83l.1-.1c.26-.27,.52-.54,.78-.81l.09-.09c.27-.27,.54-.54,.8-.8l.12-.12c.26-.26,.53-.52,.79-.78l.14-.13c.27-.25,.53-.51,.8-.76l.16-.14c.26-.24,.51-.48,.77-.71l.16-.15c.25-.22,.5-.45,.75-.67l.2-.18c.26-.23,.52-.46,.79-.68l.19-.16c.27-.23,.53-.45,.8-.67l.21-.18c.25-.21,.51-.42,.76-.62l.25-.2c.25-.2,.49-.39,.74-.59l.27-.21c.25-.19,.5-.39,.75-.58l.23-.18c.27-.2,.54-.41,.8-.6l.26-.19c.26-.19,.51-.38,.77-.56l.28-.2c.25-.18,.51-.37,.77-.54l.26-.18c.27-.19,.54-.37,.81-.55l.22-.16h0Z"/><path class="cls-73" d="M55.71,168.15l17.87-38.33c-17.18,5.08-32.74,13.96-45.69,25.67-6.85,6.21-12.96,13.23-18.21,20.91l25.11,11.64c.25-.33,.51-.66,.77-1l.03-.03c.25-.32,.5-.63,.76-.95l.06-.07c.25-.31,.5-.61,.75-.92l.07-.08c.25-.3,.51-.6,.76-.9l.08-.09c.25-.3,.51-.59,.76-.88l.08-.09c.25-.29,.51-.57,.76-.85l.09-.1c.25-.27,.49-.54,.74-.81l.13-.14c.24-.26,.48-.51,.73-.77l.18-.18c.24-.25,.48-.5,.72-.74l.2-.2c.24-.24,.47-.48,.71-.71l.22-.22c.22-.21,.43-.42,.65-.63l.3-.29c.19-.19,.39-.37,.58-.55,.13-.12,.26-.24,.39-.36,.18-.16,.36-.33,.54-.49,.15-.14,.3-.28,.45-.41,.16-.15,.33-.3,.49-.44,.17-.15,.34-.29,.51-.44,.14-.12,.27-.24,.42-.36,.19-.16,.38-.33,.57-.49l.34-.29c.24-.2,.49-.4,.73-.61l.23-.19c.21-.18,.43-.35,.65-.52l.35-.28h.02c.58-.48,1.17-.93,1.77-1.38h.01c.36-.28,.72-.55,1.08-.81h0c.73-.54,1.47-1.06,2.22-1.58h0Zm-6.1,4.58c.21-.18,.43-.35,.65-.52l-.65,.52Z"/><path class="cls-64" d="M55.44,168.34l17.93-38.46c-17.1,5.1-32.58,13.96-45.48,25.62-6.84,6.21-12.95,13.22-18.2,20.9l25.11,11.64c.25-.33,.51-.66,.77-.99l.03-.05c.25-.32,.51-.64,.77-.95l.04-.05c.25-.31,.51-.62,.77-.93l.06-.07c.25-.3,.5-.6,.75-.89l.1-.12c.25-.29,.5-.57,.75-.86l.09-.11c.25-.29,.51-.57,.77-.85l.1-.11c.24-.27,.49-.54,.73-.8l.15-.16c.23-.25,.47-.5,.71-.75l.16-.17c.24-.25,.48-.49,.72-.74l.18-.18c.24-.24,.48-.48,.72-.71l.21-.2c.23-.23,.47-.46,.71-.69l.24-.23c.22-.21,.45-.43,.67-.64l.29-.27c.2-.18,.39-.36,.59-.54l.38-.34c.18-.16,.36-.32,.54-.48,.15-.14,.31-.27,.46-.41,.16-.14,.33-.29,.49-.43,.17-.15,.34-.29,.51-.44,.15-.13,.3-.25,.45-.38,.19-.16,.38-.32,.57-.47l.38-.32c.21-.17,.43-.34,.64-.52l.28-.22c.25-.21,.51-.4,.76-.6l.24-.18c.28-.21,.55-.43,.83-.64l.2-.15c.28-.21,.55-.41,.83-.61l.25-.18c.28-.2,.55-.4,.83-.6l.24-.17c.23-.16,.45-.32,.68-.48h0Z"/><path class="cls-28" d="M55.16,168.53l17.99-38.59c-17.02,5.11-32.42,13.94-45.27,25.55-6.84,6.21-12.95,13.22-18.2,20.89l25.11,11.64c.26-.34,.51-.67,.77-1l.03-.03c.26-.32,.51-.65,.77-.97l.04-.04c.26-.32,.51-.63,.77-.94l.05-.05c.25-.31,.51-.61,.77-.92l.06-.08c.26-.3,.52-.6,.78-.9l.05-.06c.27-.3,.54-.6,.81-.9l.05-.05c.26-.29,.53-.58,.81-.88l.08-.09c.27-.28,.53-.57,.8-.85l.08-.08c.27-.28,.55-.56,.82-.84l.07-.07c.28-.28,.56-.56,.84-.84l.06-.05c.28-.27,.56-.55,.84-.82l.07-.06c.28-.27,.56-.53,.84-.8l.11-.1c.27-.26,.55-.51,.83-.76l.12-.11c.27-.25,.55-.49,.82-.74l.15-.13c.27-.24,.55-.48,.83-.72l.14-.12c.27-.23,.55-.46,.82-.69l.19-.16c.27-.22,.54-.45,.81-.67l.17-.14c.28-.23,.56-.45,.84-.67l.17-.13c.28-.22,.57-.44,.85-.65l.17-.13c.27-.21,.55-.42,.83-.62l.2-.15c.28-.21,.56-.41,.84-.62l.18-.13c.29-.2,.57-.41,.86-.61l.16-.11Z"/><path class="cls-69" d="M54.88,168.73l18.06-38.72c-16.92,5.11-32.23,13.91-45.01,25.45-6.85,6.22-12.98,13.24-18.24,20.93l25.11,11.64c.25-.33,.51-.66,.77-1l.02-.02,.02-.02c.26-.32,.51-.64,.77-.96l.03-.03c.26-.32,.52-.64,.79-.96l.03-.03c.25-.3,.51-.61,.76-.91l.09-.11c.25-.3,.51-.59,.77-.88l.07-.07c.26-.3,.52-.59,.78-.87l.09-.09c.25-.28,.5-.55,.76-.83l.14-.15c.24-.26,.49-.52,.74-.78l.15-.15c.24-.26,.49-.51,.74-.76l.17-.17c.24-.25,.49-.49,.73-.73l.19-.19c.24-.24,.49-.48,.73-.71l.2-.19c.24-.23,.47-.45,.71-.67l.24-.22c.22-.21,.44-.41,.66-.61l.31-.29c.21-.19,.41-.37,.62-.55l.37-.32c.2-.17,.39-.34,.59-.51,.13-.11,.25-.22,.38-.32,.19-.16,.38-.32,.56-.48,.15-.13,.3-.25,.46-.38,.18-.15,.37-.3,.55-.45,.15-.12,.3-.24,.45-.36,.18-.14,.36-.29,.54-.43,.16-.13,.33-.26,.49-.39,.17-.13,.34-.27,.51-.4,.17-.13,.34-.26,.51-.39,.17-.13,.34-.26,.52-.39,.18-.13,.35-.26,.53-.39,.17-.13,.34-.25,.51-.38,.18-.13,.36-.26,.54-.38,.17-.12,.34-.24,.51-.36h.02Z"/><path class="cls-76" d="M54.6,168.93l18.11-38.85c-16.81,5.12-32.03,13.87-44.75,25.35-6.87,6.23-13.01,13.26-18.28,20.97l25.11,11.64c.25-.33,.51-.66,.77-1l.02-.02h0v-.02c.26-.32,.52-.65,.78-.97l.02-.02v-.02c.27-.32,.53-.63,.79-.94l.04-.05c.25-.3,.51-.6,.76-.9l.1-.12c.25-.29,.49-.57,.74-.86l.09-.1c.25-.29,.5-.57,.76-.85l.1-.11c.24-.27,.49-.54,.74-.81l.17-.18c.23-.25,.46-.5,.7-.74l.2-.21c.23-.23,.45-.46,.67-.69l.27-.27c.21-.21,.42-.42,.63-.62l.27-.27c.21-.21,.42-.42,.64-.62,.11-.11,.22-.22,.34-.32,.19-.18,.38-.36,.56-.54,.14-.13,.28-.26,.42-.39,.17-.16,.34-.31,.51-.47,.16-.14,.32-.29,.48-.43,.13-.12,.26-.24,.4-.35,.21-.18,.41-.36,.62-.54l.29-.24c.23-.2,.47-.41,.7-.6l.21-.18c.28-.24,.56-.47,.85-.7l.08-.07c.31-.25,.62-.5,.93-.75l.07-.06c1.34-1.07,2.7-2.1,4.1-3.09Z"/><path class="cls-67" d="M54.32,169.12l18.18-38.98c-16.7,5.12-31.83,13.83-44.48,25.24-6.89,6.24-13.05,13.29-18.33,21.01l25.11,11.64c.26-.34,.52-.68,.78-1.01h0v-.02c.27-.33,.53-.66,.8-.98h0v-.03c.28-.32,.54-.65,.8-.96h.01v-.02c.27-.32,.54-.63,.8-.94l.06-.07c.26-.3,.52-.61,.79-.9l.05-.06c.26-.29,.52-.59,.79-.88l.08-.09c.25-.28,.5-.55,.76-.82l.14-.15c.25-.27,.5-.53,.75-.8l.12-.13c.25-.26,.5-.52,.75-.77l.16-.16c.24-.24,.48-.48,.72-.72l.21-.2c.23-.23,.47-.46,.7-.69l.23-.22c.22-.21,.44-.41,.66-.62l.31-.29c.21-.19,.41-.38,.62-.56,.11-.11,.23-.21,.35-.32,.19-.17,.38-.34,.57-.51,.14-.12,.27-.24,.41-.37,.19-.16,.38-.33,.57-.49,.13-.11,.26-.23,.39-.34,.18-.15,.35-.3,.53-.45,.16-.14,.33-.28,.49-.41,.16-.13,.32-.26,.48-.39,.17-.14,.34-.27,.51-.41,.16-.13,.32-.25,.48-.38,.19-.14,.37-.29,.55-.43,.16-.12,.31-.24,.46-.35,.19-.14,.37-.29,.56-.43,.15-.11,.3-.23,.46-.34,.19-.14,.38-.28,.57-.42,.16-.11,.31-.22,.46-.34,.19-.14,.39-.28,.58-.42Z"/><path class="cls-70" d="M54.03,169.32l18.24-39.11c-16.62,5.13-31.68,13.82-44.28,25.19-6.89,6.23-13.04,13.28-18.31,20.99l25.11,11.64c.26-.34,.51-.67,.77-1v-.02l.03-.02c.26-.33,.52-.65,.78-.98v-.02c.28-.32,.54-.65,.81-.97l.02-.03c.27-.32,.53-.64,.8-.95l.03-.04c.27-.31,.54-.62,.81-.93l.03-.03c.27-.31,.55-.61,.82-.92l.03-.04c.27-.3,.55-.6,.82-.9l.05-.06c.28-.29,.55-.58,.83-.87l.05-.05c.28-.29,.56-.58,.84-.86l.05-.05c.28-.28,.56-.57,.85-.85l.06-.06c.29-.28,.57-.56,.86-.84l.05-.05c.29-.28,.58-.55,.87-.82l.07-.06c.29-.27,.58-.54,.87-.81l.07-.06c.29-.27,.59-.53,.88-.79l.08-.07c.3-.26,.6-.53,.91-.79l.04-.04c.31-.26,.61-.52,.92-.78l.07-.06c.31-.25,.61-.51,.92-.76l.06-.05c.31-.25,.63-.51,.95-.75l.05-.04c.32-.25,.63-.49,.95-.74l.07-.05c.33-.25,.66-.5,.99-.74h.02c.34-.26,.67-.51,1.01-.75Z"/><path class="cls-26" d="M53.75,169.53l18.3-39.25c-16.53,5.14-31.51,13.8-44.06,25.12-6.89,6.23-13.04,13.28-18.31,20.99l25.11,11.64c.26-.34,.52-.68,.79-1.02h0c.26-.33,.52-.66,.78-.99l.04-.05c.26-.31,.51-.63,.77-.94l.05-.07c.26-.3,.51-.6,.76-.9l.09-.1c.25-.29,.5-.58,.75-.87l.08-.09c.25-.29,.51-.57,.76-.85l.11-.12c.24-.27,.49-.54,.74-.8l.15-.16c.24-.26,.48-.51,.72-.76l.16-.17c.24-.25,.47-.49,.71-.73l.21-.21c.23-.23,.46-.46,.7-.69l.23-.23c.22-.22,.44-.43,.67-.65l.28-.27c.2-.19,.41-.39,.61-.58l.35-.33c.19-.17,.38-.35,.57-.52,.13-.12,.27-.24,.4-.36,.17-.16,.35-.31,.52-.46,.15-.13,.3-.27,.45-.4,.17-.15,.35-.3,.52-.45,.16-.14,.32-.28,.49-.42,.15-.12,.29-.24,.44-.37,.21-.18,.42-.35,.63-.53l.33-.27c.22-.18,.45-.36,.67-.54l.34-.27c.23-.18,.46-.36,.69-.54l.29-.22c.24-.19,.49-.38,.74-.57l.25-.19c.25-.19,.5-.38,.76-.57l.33-.24,.05-.04Z"/><path class="cls-68" d="M53.46,169.74l18.37-39.39c-16.43,5.14-31.33,13.77-43.81,25.02-6.9,6.24-13.05,13.29-18.34,21.02l25.11,11.64c.26-.34,.52-.67,.78-1l.02-.03c.25-.32,.51-.65,.77-.97l.03-.04c.25-.32,.51-.63,.77-.94l.05-.06c.25-.3,.5-.6,.76-.89l.09-.11c.25-.29,.5-.58,.75-.86l.08-.1c.25-.29,.5-.57,.76-.85l.1-.11c.24-.27,.49-.54,.74-.8l.17-.18c.23-.25,.46-.49,.69-.73l.22-.23c.22-.23,.45-.46,.68-.69l.23-.24c.22-.22,.43-.44,.65-.65l.27-.27c.21-.2,.42-.41,.62-.61l.3-.28c.2-.19,.41-.38,.61-.57,.13-.12,.25-.24,.38-.36,.18-.16,.35-.32,.53-.49,.15-.14,.31-.28,.46-.42,.15-.13,.3-.27,.45-.4,.18-.16,.35-.31,.53-.47,.13-.11,.27-.23,.41-.35,.19-.16,.38-.33,.57-.49,.12-.11,.25-.22,.38-.32,.27-.23,.54-.45,.81-.68l.13-.1c.27-.23,.55-.45,.84-.67l.14-.11c.29-.24,.59-.47,.89-.7l.06-.05c.31-.24,.62-.47,.93-.71l.06-.04c.31-.24,.62-.47,.94-.7h.02Z"/><path class="cls-11" d="M53.18,169.95l18.43-39.53c-16.35,5.15-31.16,13.75-43.59,24.95-6.9,6.24-13.05,13.29-18.34,21.02l25.11,11.64c.25-.33,.51-.66,.77-1l.05-.06c.25-.31,.5-.63,.75-.94l.05-.06c.25-.31,.5-.62,.76-.93l.05-.07c.25-.3,.51-.6,.76-.9l.07-.08c.26-.3,.52-.6,.78-.9l.05-.06c.27-.31,.54-.61,.81-.91l.05-.05c.26-.29,.53-.58,.79-.86l.11-.12c.25-.27,.5-.53,.76-.8l.13-.14c.24-.25,.49-.51,.74-.76l.17-.17c.24-.25,.49-.5,.74-.75l.14-.14c.25-.24,.5-.48,.75-.73l.22-.21c.24-.23,.48-.46,.73-.68l.22-.21c.24-.22,.47-.43,.71-.65l.25-.23c.23-.21,.46-.42,.7-.62l.27-.23c.22-.2,.46-.4,.68-.59l.26-.22c.23-.19,.46-.39,.69-.58,.12-.11,.25-.21,.38-.31,.2-.16,.4-.33,.6-.49,.13-.11,.26-.21,.39-.31,.2-.16,.41-.33,.61-.49,.13-.1,.26-.2,.39-.3,.21-.16,.41-.32,.62-.48,.13-.1,.26-.19,.39-.29,.22-.17,.45-.35,.68-.51l.33-.24h0Z"/><path class="cls-25" d="M52.89,170.16l18.5-39.67c-16.26,5.16-31.01,13.74-43.39,24.9-6.89,6.24-13.05,13.29-18.32,21l25.11,11.64c.26-.33,.51-.67,.77-1l.04-.05c.25-.32,.5-.63,.75-.94l.05-.06c.25-.31,.5-.62,.76-.93l.05-.06c.26-.3,.51-.61,.77-.91l.05-.06c.27-.31,.53-.62,.8-.92l.05-.06c.27-.3,.53-.6,.8-.89l.05-.06c.26-.29,.52-.57,.79-.85l.1-.11c.26-.27,.52-.55,.78-.82l.09-.1c.26-.27,.53-.54,.79-.81l.13-.13c.26-.27,.53-.53,.8-.8l.12-.11c.26-.25,.52-.51,.78-.76l.15-.14c.25-.24,.51-.48,.76-.72l.17-.16c.25-.23,.5-.47,.76-.69l.21-.19c.24-.22,.48-.43,.73-.65l.27-.23c.24-.21,.48-.42,.73-.63l.22-.19c.24-.21,.48-.41,.73-.62l.27-.22c.24-.2,.48-.39,.71-.59l.29-.23c.23-.19,.46-.37,.7-.56l.34-.27c.22-.17,.45-.35,.67-.52l.33-.26c.25-.19,.5-.37,.74-.56h0Z"/><path class="cls-62" d="M52.6,170.38l18.57-39.82c-15.83,5.06-30.22,13.35-42.37,24.11l-.07,.07c-.25,.22-.49,.43-.73,.65-6.89,6.24-13.04,13.28-18.31,21l25.11,11.64c.25-.33,.51-.66,.77-.99l.04-.06c.25-.31,.5-.63,.75-.94l.05-.06c.25-.31,.51-.62,.76-.93l.05-.05c.25-.3,.51-.61,.77-.91l.09-.11c.25-.29,.5-.57,.75-.86l.09-.1c.25-.28,.5-.56,.75-.83l.11-.13c.24-.27,.48-.53,.73-.79l.17-.18c.23-.24,.46-.49,.69-.73l.23-.24c.22-.23,.45-.46,.67-.69l.23-.23c.21-.21,.42-.43,.64-.64l.3-.29c.2-.19,.4-.39,.59-.58l.36-.34c.18-.17,.35-.33,.53-.5,.15-.13,.29-.27,.43-.4,.16-.15,.32-.29,.48-.44,.18-.16,.36-.32,.54-.48l.37-.33c.21-.18,.42-.37,.63-.55,.13-.11,.26-.23,.38-.34,.19-.16,.37-.32,.55-.48h.02l.3-.27,.03-.02c.26-.22,.52-.43,.78-.65l.17-.14c.26-.21,.53-.43,.79-.64l.16-.13c.68-.54,1.37-1.08,2.07-1.6h.01Z"/><path class="cls-23" d="M52.31,170.6l18.64-39.97c-15.75,5.07-30.06,13.34-42.16,24.06l-.18,.16c-.2,.18-.41,.37-.61,.55-6.89,6.24-13.05,13.29-18.32,21l25.11,11.64c.25-.33,.51-.66,.77-1l.04-.05c.25-.32,.5-.63,.75-.94l.05-.06c.26-.31,.51-.62,.76-.93l.05-.06c.25-.31,.51-.61,.77-.91l.09-.1c.24-.29,.49-.57,.74-.85l.1-.11c.25-.28,.5-.56,.75-.83l.1-.11c.24-.27,.49-.54,.74-.81l.18-.19c.23-.24,.46-.49,.69-.73l.19-.2c.23-.23,.45-.47,.68-.7l.23-.23c.22-.22,.44-.44,.66-.66l.28-.28c.22-.21,.43-.42,.65-.64l.27-.26c.2-.19,.4-.38,.6-.57,.13-.12,.26-.24,.39-.37,.17-.15,.33-.31,.5-.46,.15-.14,.31-.28,.46-.42,.15-.13,.31-.27,.46-.41,.18-.16,.35-.31,.53-.47,.14-.13,.29-.25,.43-.38,.19-.16,.38-.33,.57-.49l.35-.29c.22-.18,.43-.36,.65-.55l.33-.27c.23-.19,.46-.38,.7-.56l.26-.21c.25-.2,.5-.4,.76-.59l.2-.15c.26-.2,.52-.4,.78-.6Z"/><path class="cls-17" d="M52.03,170.82l18.7-40.12c-15.68,5.07-29.93,13.34-41.98,24.02l-.19,.17c-.19,.17-.38,.34-.56,.51-6.89,6.24-13.04,13.28-18.31,20.99l25.11,11.64c.25-.33,.51-.66,.77-.99l.05-.06c.25-.32,.51-.64,.77-.96v-.02c.27-.32,.54-.64,.8-.96l.02-.03,.02-.02c.26-.31,.52-.62,.78-.93l.06-.07c.26-.31,.53-.61,.8-.92l.03-.03c.27-.31,.55-.62,.83-.93l.04-.04c.27-.3,.54-.59,.81-.88l.07-.08c.27-.29,.54-.57,.81-.86l.06-.06c.28-.29,.56-.58,.84-.87l.07-.07c.27-.27,.55-.55,.83-.82l.07-.07c.28-.27,.56-.55,.84-.82l.09-.09c.27-.27,.56-.53,.84-.79l.11-.1c.27-.25,.55-.51,.82-.76l.12-.11c.28-.25,.57-.51,.85-.76l.11-.1c.28-.24,.57-.49,.85-.73l.12-.11c.28-.24,.55-.47,.83-.7l.14-.12c.29-.24,.59-.48,.88-.72l.13-.1c.28-.23,.57-.46,.85-.68l.16-.13c.28-.22,.56-.44,.85-.65l.13-.1Z"/><path class="cls-18" d="M51.73,171.04l18.78-40.27c-15.65,5.1-29.87,13.37-41.89,24.06l-.06,.05c-.2,.18-.4,.36-.6,.54-6.87,6.23-13,13.26-18.27,20.96l25.11,11.64c.25-.33,.51-.66,.77-1l.04-.04c.25-.32,.51-.64,.76-.96l.03-.04c.26-.32,.52-.63,.78-.95l.05-.07c.25-.3,.5-.59,.75-.89l.08-.1c.25-.29,.51-.59,.77-.88l.09-.1c.25-.28,.5-.57,.76-.85l.1-.11c.24-.27,.49-.54,.73-.8l.16-.17c.24-.26,.48-.51,.72-.77l.16-.17c.23-.24,.46-.47,.69-.71l.22-.23c.23-.23,.45-.45,.68-.68l.25-.24c.22-.22,.44-.43,.66-.65l.27-.26c.2-.19,.41-.38,.61-.57,.12-.11,.24-.23,.36-.34,.18-.17,.37-.34,.56-.51l.38-.34c.19-.17,.38-.34,.58-.51,.15-.13,.3-.26,.44-.39,.16-.14,.32-.28,.48-.42,.17-.14,.33-.29,.51-.43,.15-.13,.29-.25,.44-.37,.2-.17,.4-.33,.6-.5l.4-.33c.19-.15,.37-.3,.55-.45,.14-.11,.27-.22,.41-.33,.22-.17,.45-.35,.68-.53l.31-.24,.09-.07Z"/><path class="cls-30" d="M51.14,171.5l18.93-40.58c-15.8,5.22-30.11,13.67-42.18,24.57-6.84,6.21-12.96,13.22-18.2,20.9l25.11,11.64c.26-.33,.51-.67,.77-1l.03-.04c.26-.32,.51-.65,.78-.97h0v-.02c.26-.32,.53-.64,.79-.96l.05-.06c.26-.31,.51-.61,.77-.92l.07-.08c.25-.3,.51-.59,.77-.88l.07-.08c.27-.3,.54-.6,.8-.9l.05-.06c.25-.28,.51-.56,.77-.84l.12-.12c.26-.28,.52-.55,.78-.82l.12-.13c.25-.26,.49-.51,.74-.76l.14-.15c.26-.26,.52-.52,.78-.78l.15-.15c.24-.24,.48-.47,.73-.71l.18-.18c.24-.23,.49-.47,.74-.7l.23-.22c.23-.21,.46-.42,.69-.63l.28-.26c.21-.19,.43-.38,.64-.57l.33-.3c.22-.19,.43-.38,.65-.56l.34-.29c.2-.17,.41-.35,.61-.51l.37-.31c.21-.17,.42-.35,.63-.52l.39-.31c.19-.16,.39-.32,.59-.47,.13-.1,.26-.21,.38-.3Z"/><path class="cls-27" d="M50.85,171.73l19-40.74c-15.71,5.22-29.95,13.65-41.96,24.5-6.84,6.21-12.96,13.22-18.2,20.9l25.11,11.64c.25-.33,.51-.66,.77-.99l.04-.05c.26-.32,.51-.64,.77-.96l.03-.04c.26-.32,.51-.63,.77-.94l.05-.06c.26-.31,.51-.61,.78-.92l.07-.08c.25-.3,.51-.59,.77-.88l.06-.07c.26-.3,.53-.59,.79-.89l.07-.08c.26-.29,.53-.58,.79-.86l.09-.1c.25-.27,.5-.53,.75-.8l.14-.14c.26-.27,.52-.53,.78-.8l.13-.14c.24-.25,.49-.49,.74-.74l.15-.15c.26-.25,.52-.51,.78-.75l.16-.16c.24-.23,.49-.46,.73-.7l.23-.21c.24-.22,.48-.44,.72-.66l.22-.21c.23-.2,.46-.41,.69-.61l.3-.27c.23-.2,.46-.4,.69-.6l.27-.23c.22-.19,.44-.37,.66-.56l.34-.28c.22-.18,.44-.36,.66-.54l.33-.27c.22-.18,.45-.36,.68-.54l.04-.03Z"/><path class="cls-61" d="M50.55,171.97l19.07-40.9c-15.61,5.23-29.77,13.62-41.72,24.42-6.85,6.21-12.96,13.23-18.21,20.91l25.11,11.64c.25-.33,.51-.66,.77-.99l.04-.05c.25-.32,.51-.65,.77-.96l.03-.04c.25-.32,.51-.63,.77-.94l.04-.05c.25-.3,.5-.6,.76-.9l.11-.13c.25-.28,.5-.57,.75-.85l.11-.12c.24-.27,.47-.53,.71-.8l.15-.16c.23-.26,.47-.51,.7-.77l.2-.21c.22-.23,.43-.46,.65-.69l.27-.27c.2-.21,.4-.42,.61-.63l.32-.32c.19-.19,.37-.37,.56-.56l.35-.35c.18-.17,.37-.35,.55-.53,.14-.13,.28-.27,.42-.4,.15-.14,.3-.29,.46-.43,.18-.17,.36-.34,.55-.51l.36-.33c.23-.21,.46-.41,.69-.62l.14-.13c.28-.25,.57-.5,.85-.75l.16-.14c.25-.22,.5-.43,.75-.64l.27-.23c.63-.53,1.27-1.05,1.91-1.56Z"/><path class="cls-92" d="M50.25,172.2l19.15-41.07c-15.51,5.23-29.58,13.58-41.46,24.3-6.86,6.23-13,13.25-18.26,20.95l25.11,11.64c.25-.33,.51-.66,.77-.99l.04-.05c.25-.32,.51-.64,.77-.96l.03-.04c.26-.32,.52-.64,.79-.96l.02-.03c.26-.31,.51-.61,.78-.92l.07-.08c.25-.3,.51-.59,.77-.89l.08-.09c.26-.29,.51-.58,.77-.86l.1-.11c.24-.26,.48-.53,.73-.79l.17-.18c.23-.25,.47-.5,.7-.74l.17-.18c.23-.24,.46-.47,.69-.71l.24-.24c.22-.22,.43-.43,.65-.65l.28-.28c.21-.21,.42-.41,.64-.62l.31-.3c.19-.19,.39-.37,.58-.55,.12-.11,.24-.23,.37-.34,.18-.16,.36-.33,.54-.49,.15-.13,.29-.27,.44-.4,.17-.15,.34-.3,.51-.46,.16-.14,.32-.28,.48-.42,.14-.13,.29-.25,.44-.38,.19-.16,.38-.33,.57-.49,.13-.11,.27-.22,.4-.34,.21-.18,.42-.36,.64-.53l.35-.29c.19-.16,.38-.31,.57-.46Z"/><path class="cls-79" d="M49.95,172.44l19.23-41.23c-15.38,5.22-29.33,13.51-41.14,24.15-6.9,6.24-13.07,13.3-18.35,21.03l25.11,11.64c.26-.34,.52-.67,.78-1.01h.01c.26-.34,.52-.67,.78-.99l.03-.04c.26-.32,.52-.64,.79-.96l.02-.02c.27-.32,.53-.64,.8-.95l.02-.02,.02-.02c.27-.31,.54-.62,.81-.94l.02-.02c.27-.32,.55-.62,.83-.93l.03-.03c.27-.3,.55-.6,.83-.9l.05-.06c.28-.3,.56-.59,.84-.89l.02-.03c.29-.3,.58-.59,.86-.89h.02l.02-.03c.29-.29,.58-.58,.87-.87l.03-.03c.29-.29,.58-.57,.88-.86l.05-.05c.29-.28,.59-.56,.89-.83l.05-.05c.3-.28,.59-.55,.89-.82l.02-.02h0l.02-.02c.3-.27,.6-.53,.89-.8l.08-.07c.3-.27,.6-.53,.91-.79l.05-.04c.3-.26,.6-.51,.9-.76l.11-.09c.3-.25,.61-.5,.92-.75h0Z"/><path class="cls-22" d="M49.64,172.7h0l19.31-41.41c-15.28,5.22-29.16,13.48-40.91,24.06-6.9,6.25-13.08,13.31-18.36,21.04l25.11,11.64c.26-.34,.51-.67,.77-1l.03-.03c.25-.32,.51-.65,.77-.97l.04-.04c.26-.32,.52-.63,.78-.95l.04-.05c.25-.3,.51-.6,.77-.9l.09-.1c.25-.29,.51-.58,.76-.87l.09-.1c.25-.28,.49-.55,.74-.83l.13-.14c.23-.25,.46-.51,.7-.76l.2-.22c.22-.24,.44-.47,.67-.7l.23-.24c.21-.22,.43-.44,.64-.66l.29-.29c.2-.2,.4-.4,.6-.6l.34-.33c.18-.18,.36-.35,.54-.52,.13-.12,.26-.25,.39-.37,.17-.16,.34-.32,.51-.48,.17-.16,.34-.32,.5-.47l.42-.38c.2-.18,.39-.36,.59-.54l.28-.25c.22-.19,.43-.38,.65-.58l.32-.28c.23-.2,.46-.39,.68-.58l.02-.02,.26-.22h0c.24-.21,.48-.42,.73-.62l.03-.03,.26-.21Z"/><path class="cls-15" d="M49.34,172.95l19.39-41.58c-15.19,5.22-28.97,13.44-40.66,23.96-6.92,6.25-13.09,13.32-18.39,21.06l25.11,11.64c.26-.34,.52-.68,.79-1.02h0c.26-.33,.51-.65,.78-.97l.05-.06c.25-.31,.51-.62,.76-.92l.07-.08c.25-.3,.5-.59,.75-.89l.08-.1c.25-.29,.49-.57,.75-.86l.11-.13c.24-.28,.49-.55,.73-.82l.13-.15c.23-.25,.46-.51,.7-.75l.21-.22c.22-.23,.43-.46,.65-.69l.25-.26c.2-.21,.41-.42,.61-.62l.32-.32c.19-.19,.38-.38,.56-.56,.12-.12,.25-.24,.37-.36,.18-.17,.35-.35,.53-.52,.14-.13,.28-.27,.42-.4,.15-.14,.3-.29,.46-.43,.17-.16,.34-.32,.51-.47,.13-.12,.26-.24,.39-.36,.2-.18,.4-.36,.6-.54l.31-.28c.27-.24,.54-.48,.81-.71l.13-.12c.24-.2,.47-.41,.71-.61l.25-.21h0c.25-.22,.5-.42,.75-.63Z"/><path class="cls-16" d="M49.03,173.19l19.47-41.75c-15.11,5.23-28.84,13.43-40.47,23.92-6.9,6.24-13.06,13.3-18.35,21.03l25.11,11.64c.26-.34,.52-.67,.78-1h0v-.02h.01c.26-.34,.52-.66,.78-.99h0v-.02c.27-.33,.53-.65,.8-.97l.02-.02h0c.26-.32,.52-.63,.78-.94l.07-.08c.26-.31,.53-.61,.8-.92h.02l.02-.03c.27-.31,.55-.61,.82-.92l.02-.02,.02-.02c.27-.3,.53-.58,.8-.87l.08-.09c.26-.28,.53-.56,.79-.84l.11-.11c.26-.27,.52-.54,.79-.81l.1-.11c.27-.27,.54-.54,.81-.81l.09-.09c.27-.26,.54-.53,.81-.78l.14-.13c.26-.25,.52-.49,.78-.74l.16-.15c.26-.24,.53-.49,.79-.73l.14-.13c.26-.24,.53-.48,.8-.71l.18-.16c.27-.23,.53-.46,.8-.7l.15-.13c.27-.23,.54-.46,.81-.69l.16-.13Z"/><path class="cls-9" d="M48.73,173.45l19.55-41.93c-15.04,5.24-28.69,13.42-40.28,23.86-6.89,6.24-13.04,13.29-18.32,21l25.11,11.64c.26-.34,.51-.67,.77-1v-.02h.02c.26-.34,.52-.66,.78-.99l.03-.04c.25-.32,.51-.63,.77-.95l.05-.06c.25-.3,.51-.6,.76-.9l.08-.09c.25-.3,.5-.59,.76-.87l.08-.1c.25-.28,.5-.56,.75-.84l.11-.13c.24-.27,.49-.53,.73-.79l.17-.18c.23-.25,.47-.5,.7-.75l.18-.18c.23-.24,.46-.48,.7-.72l.22-.22c.22-.22,.45-.45,.67-.67l.27-.27c.2-.21,.41-.41,.62-.61l.33-.32c.19-.18,.39-.37,.58-.55,.12-.12,.25-.23,.38-.35,.18-.17,.36-.34,.55-.51l.41-.37c.16-.14,.32-.29,.48-.43,.16-.14,.32-.29,.49-.43,.17-.15,.34-.3,.51-.44,.15-.13,.3-.27,.46-.4,.16-.14,.32-.28,.49-.41h.01Z"/><path class="cls-13" d="M48.42,173.72l19.64-42.12c-14.96,5.24-28.54,13.4-40.07,23.8-6.88,6.23-13.03,13.27-18.3,20.99l25.11,11.64c.26-.34,.52-.67,.78-1l.02-.03c.25-.32,.51-.65,.77-.97l.03-.04c.25-.32,.51-.63,.77-.94l.06-.07c.25-.29,.49-.59,.74-.88l.11-.13c.24-.28,.48-.55,.73-.83l.12-.14c.23-.27,.47-.53,.71-.79l.19-.21c.22-.24,.44-.48,.65-.71l.24-.26c.2-.22,.4-.43,.61-.64l.29-.3c.19-.2,.38-.39,.57-.59,.12-.12,.25-.25,.37-.37,.17-.17,.34-.34,.51-.51,.15-.15,.3-.29,.45-.44,.15-.14,.3-.29,.44-.43,.17-.16,.34-.32,.51-.49l.36-.34c.19-.18,.38-.36,.58-.54l.23-.21,.06-.05c.26-.24,.53-.48,.8-.72l.12-.11c.28-.25,.57-.5,.85-.75l.05-.05c.3-.26,.6-.52,.91-.78Z"/><path class="cls-20" d="M48.11,173.98l19.72-42.3c-14.56,5.14-27.82,13.05-39.13,23.09l-.03,.03c-.23,.2-.45,.4-.68,.61-6.88,6.23-13.03,13.27-18.3,20.98l25.11,11.64c.26-.34,.52-.67,.78-1l.02-.03c.26-.33,.52-.65,.78-.97l.02-.02c.26-.32,.52-.64,.78-.96l.04-.05c.26-.31,.52-.62,.78-.92l.06-.07c.26-.31,.53-.61,.8-.92l.04-.05c.27-.3,.53-.6,.81-.9l.05-.06c.26-.29,.52-.57,.79-.86l.1-.11c.26-.27,.52-.54,.78-.82l.11-.11c.26-.27,.52-.54,.78-.8l.13-.13c.25-.26,.51-.52,.77-.77l.15-.14c.25-.25,.5-.49,.76-.73l.16-.16c.24-.23,.49-.47,.74-.7l.22-.21c.24-.22,.48-.44,.72-.66l.23-.21c.24-.21,.47-.42,.71-.64l.25-.22c.24-.22,.49-.43,.74-.65l.21-.18h0Z"/><path class="cls-21" d="M47.79,174.25l19.81-42.49c-14.48,5.14-27.66,13.02-38.91,23.01l-.14,.13c-.19,.17-.38,.34-.57,.51-6.88,6.23-13.03,13.27-18.3,20.99l25.11,11.64c.26-.34,.51-.67,.78-1l.03-.04c.26-.32,.52-.65,.78-.97l.02-.03c.26-.32,.52-.64,.78-.95l.04-.05c.25-.3,.51-.61,.77-.91l.09-.1c.25-.29,.5-.58,.76-.87l.07-.08c.25-.29,.51-.57,.76-.85l.12-.13c.24-.27,.49-.54,.74-.8l.15-.16c.23-.25,.47-.5,.71-.75l.17-.18c.23-.24,.46-.48,.7-.72l.24-.25,.65-.65,.26-.25c.22-.22,.44-.43,.66-.64l.29-.28c.21-.2,.41-.39,.62-.59l.33-.31c.19-.18,.38-.35,.57-.52,.13-.12,.26-.24,.39-.35,.18-.16,.36-.33,.55-.49,.14-.13,.28-.25,.42-.38,.19-.16,.37-.32,.56-.49Z"/><path class="cls-19" d="M47.48,174.52l19.9-42.68c-14.38,5.14-27.47,12.98-38.66,22.91l-.27,.24c-.15,.13-.29,.26-.43,.39-6.89,6.24-13.05,13.29-18.33,21.01l25.11,11.64c.26-.34,.51-.67,.77-1l.03-.04c.25-.32,.51-.64,.77-.96l.03-.04c.26-.32,.52-.63,.78-.94l.06-.08c.24-.29,.49-.58,.74-.87l.11-.13c.24-.28,.48-.55,.72-.83l.14-.16c.23-.26,.46-.52,.69-.78l.17-.19c.22-.24,.43-.47,.64-.7l.29-.3c.18-.2,.37-.39,.56-.59,.12-.12,.24-.25,.35-.37,.16-.17,.33-.34,.49-.51,.15-.15,.29-.29,.43-.44,.15-.15,.31-.31,.46-.46,.17-.17,.35-.34,.52-.51l.33-.32c.23-.22,.45-.43,.68-.65l.19-.18c.25-.24,.51-.48,.77-.71l.02-.02c.63-.58,1.28-1.16,1.93-1.73Z"/><path class="cls-24" d="M47.16,174.79l19.99-42.87c-14.62,5.26-27.9,13.31-39.2,23.51-6.87,6.23-13,13.26-18.27,20.95l25.11,11.64c.26-.34,.51-.67,.77-1l.03-.03c.26-.32,.52-.65,.78-.97h0v-.02c.26-.32,.53-.64,.79-.95l.05-.06c.26-.31,.51-.61,.77-.92l.07-.08c.25-.3,.51-.59,.77-.88l.07-.09c.26-.29,.52-.58,.78-.87l.09-.1c.25-.27,.49-.54,.74-.81l.15-.16c.24-.26,.48-.51,.73-.77l.16-.17c.24-.24,.48-.49,.72-.73l.2-.2c.23-.23,.46-.46,.7-.7l.22-.22c.23-.22,.46-.45,.69-.67l.24-.23c.22-.21,.45-.43,.67-.63l.27-.26c.22-.2,.44-.41,.67-.61l.3-.27c.21-.19,.41-.37,.62-.55l.31-.28Z"/><path class="cls-7" d="M46.84,175.08l20.08-43.08c-14.54,5.27-27.76,13.3-39.02,23.47-6.85,6.22-12.97,13.24-18.23,20.92l25.11,11.64c.26-.34,.51-.67,.77-1l.03-.03c.26-.33,.51-.65,.78-.97l.03-.03c.26-.32,.52-.64,.78-.96v-.02l.03-.02c.26-.3,.51-.61,.77-.91l.08-.09c.25-.3,.51-.59,.77-.88l.08-.1c.25-.28,.5-.56,.75-.83l.11-.13c.24-.27,.49-.53,.73-.8l.17-.18c.22-.24,.45-.48,.68-.72l.22-.23c.22-.23,.44-.45,.66-.68l.25-.26c.21-.21,.43-.43,.64-.64l.29-.28c.21-.2,.41-.4,.62-.6l.32-.31c.19-.18,.38-.36,.58-.54,.13-.12,.26-.24,.38-.36,.18-.17,.36-.33,.54-.49,.13-.12,.26-.24,.39-.36,.19-.17,.38-.34,.56-.51l.03-.02Z"/><path class="cls-6" d="M46.52,175.37l20.18-43.28c-14.46,5.27-27.61,13.28-38.81,23.4-6.84,6.21-12.96,13.22-18.21,20.9l25.11,11.64c.26-.34,.51-.67,.78-1l.02-.03c.25-.32,.51-.65,.77-.97l.03-.04c.26-.32,.51-.63,.77-.94l.06-.07c.24-.29,.49-.58,.74-.87l.12-.14c.23-.27,.47-.55,.71-.81l.14-.16c.23-.26,.47-.52,.7-.78l.18-.19c.21-.23,.42-.46,.64-.69l.28-.3c.19-.2,.38-.4,.57-.61,.12-.12,.23-.24,.35-.36,.16-.17,.33-.35,.5-.52,.14-.15,.29-.3,.43-.44,.15-.14,.29-.29,.44-.44,.17-.17,.34-.34,.51-.51l.35-.33c.21-.2,.42-.41,.63-.6l.02-.02,.2-.19,.04-.04c.25-.23,.49-.46,.74-.69h0l.2-.19c.26-.24,.53-.49,.8-.73Z"/><path class="cls-33" d="M46.2,175.65l20.28-43.48c-14.37,5.27-27.44,13.25-38.58,23.32-6.85,6.21-12.96,13.23-18.21,20.91l25.11,11.64c.26-.34,.51-.67,.78-1v-.02l.03-.03c.26-.32,.51-.64,.77-.96l.03-.03c.26-.32,.52-.64,.78-.95l.04-.05c.26-.31,.51-.61,.78-.92l.07-.08c.26-.3,.51-.59,.77-.89l.07-.08c.26-.29,.52-.58,.78-.87l.08-.09c.25-.27,.5-.54,.75-.81l.16-.17c.24-.25,.47-.5,.71-.75l.18-.19c.23-.24,.47-.49,.7-.73l.2-.2c.23-.23,.46-.46,.69-.69l.23-.23c.23-.22,.46-.45,.69-.67l.23-.22c.22-.22,.45-.43,.68-.64l.27-.25c.22-.2,.44-.4,.66-.6l.28-.25Z"/><path class="cls-35" d="M45.87,175.95l20.38-43.7c-14.26,5.26-27.23,13.19-38.3,23.19-6.87,6.22-13,13.25-18.26,20.95l25.11,11.64c.26-.34,.51-.67,.77-1v-.02h.01v-.02c.27-.32,.53-.64,.78-.96l.04-.05c.25-.31,.51-.62,.77-.94l.05-.07c.25-.3,.5-.6,.75-.89l.1-.12c.24-.28,.49-.56,.73-.84l.11-.12c.24-.27,.49-.54,.73-.82l.15-.16c.23-.25,.46-.5,.69-.75l.21-.22c.22-.23,.43-.46,.65-.69l.25-.25c.21-.22,.42-.43,.62-.65l.29-.3c.2-.2,.4-.4,.6-.6,.11-.1,.21-.21,.32-.31,.19-.19,.38-.38,.58-.57,.12-.11,.24-.23,.35-.34,.19-.18,.38-.35,.56-.53l.4-.37c.18-.17,.36-.33,.54-.49h0Z"/><path class="cls-38" d="M45.54,176.25l20.48-43.92c-14.14,5.25-27,13.13-38,23.04-6.9,6.24-13.05,13.29-18.34,21.02l25.11,11.64c.26-.34,.52-.68,.78-1.01h0c.26-.34,.52-.67,.79-1l.02-.03c.25-.31,.51-.63,.77-.94l.07-.09c.24-.29,.49-.59,.74-.87l.11-.13c.23-.27,.47-.54,.7-.81l.17-.19c.22-.25,.45-.5,.67-.75l.21-.23c.2-.22,.4-.44,.6-.66l.34-.36c.17-.18,.34-.36,.51-.54,.14-.15,.28-.29,.42-.43,.14-.15,.28-.29,.43-.44,.17-.17,.35-.35,.52-.52l.35-.34c.21-.22,.43-.43,.64-.64l.27-.26c.23-.22,.45-.43,.68-.65l.11-.1c.28-.27,.57-.53,.85-.8Z"/><path class="cls-10" d="M45.21,176.56l20.58-44.14c-13.65,5.1-26.11,12.65-36.84,22.12l-.22,.19c-.21,.19-.43,.38-.64,.57-6.93,6.26-13.11,13.34-18.42,21.09l25.11,11.64c.26-.34,.51-.67,.77-1l.03-.04c.26-.32,.51-.65,.77-.97l.03-.03c.26-.32,.52-.65,.79-.97h.01l.02-.04c.26-.31,.52-.62,.78-.92l.06-.07c.26-.3,.52-.6,.78-.9l.06-.07c.26-.3,.52-.59,.79-.88l.06-.06c.26-.29,.52-.57,.78-.85l.12-.13c.26-.27,.51-.55,.77-.81l.11-.12c.26-.26,.51-.53,.77-.79l.13-.13c.25-.25,.51-.51,.76-.76l.17-.16c.25-.25,.5-.49,.75-.73l.18-.17c.25-.24,.5-.48,.75-.71l.18-.16Z"/><path class="cls-8" d="M44.88,176.87l20.69-44.36c-13.6,5.11-26.01,12.66-36.7,22.11l-.12,.11c-.23,.2-.46,.41-.68,.61-6.91,6.25-13.09,13.32-18.38,21.06l25.11,11.64c.26-.34,.51-.67,.77-1l.03-.03c.25-.32,.51-.64,.77-.97l.02-.02v-.02c.27-.32,.53-.63,.79-.94l.06-.07c.25-.29,.49-.58,.74-.88l.11-.12c.24-.27,.47-.55,.72-.82l.16-.17c.23-.26,.46-.51,.69-.77l.19-.21c.21-.23,.42-.46,.63-.68l.26-.28c.2-.21,.4-.42,.6-.63,.11-.12,.22-.24,.34-.35,.18-.18,.35-.36,.52-.54,.13-.13,.27-.27,.4-.4,.15-.16,.31-.31,.47-.47,.16-.15,.31-.31,.47-.46,.14-.14,.29-.28,.44-.43,.16-.16,.33-.32,.49-.48,.14-.13,.29-.27,.43-.41h0Z"/><path class="cls-34" d="M44.54,177.18l20.8-44.6c-13.56,5.13-25.93,12.68-36.58,22.12h0c-.25,.23-.5,.45-.74,.67-6.89,6.24-13.05,13.29-18.33,21.01l25.11,11.64c.25-.33,.51-.66,.77-1l.03-.04c.25-.32,.51-.64,.76-.95l.05-.06c.25-.3,.49-.6,.74-.9l.1-.12c.23-.28,.46-.55,.7-.83l.15-.18c.22-.26,.44-.51,.67-.77l.21-.24c.21-.23,.42-.47,.62-.7l.28-.3c.17-.19,.35-.38,.52-.57,.13-.15,.27-.29,.41-.43,.14-.16,.29-.31,.43-.46,.17-.18,.34-.35,.51-.53l.32-.33c.21-.22,.42-.43,.64-.65l.04-.05,.16-.16,.03-.03c.22-.22,.43-.43,.65-.64l.24-.24c.24-.23,.47-.46,.71-.68Z"/><path class="cls-66" d="M44.21,177.5l20.9-44.82c-13.8,5.26-26.37,13.02-37.14,22.74-6.87,6.23-13.02,13.27-18.28,20.97l25.11,11.64c.26-.34,.51-.67,.77-1v-.02l.04-.03c.25-.32,.51-.65,.77-.97h0c.27-.34,.53-.66,.8-.99l.02-.02c.27-.32,.53-.63,.8-.94l.05-.05c.26-.31,.53-.61,.79-.92l.04-.05c.27-.31,.55-.61,.82-.92h.01l.02-.04c.27-.3,.54-.59,.82-.89l.06-.06c.27-.3,.55-.59,.83-.88l.04-.05c.28-.29,.56-.58,.84-.87l.06-.06c.29-.29,.57-.58,.86-.86l.04-.03c.29-.29,.58-.57,.88-.85l.03-.04Z"/><path class="cls-65" d="M43.86,177.84l21.02-45.07c-13.72,5.26-26.23,13-36.94,22.68-6.86,6.22-13,13.25-18.26,20.94l25.11,11.64c.26-.34,.52-.68,.78-1.01h0c.26-.33,.52-.66,.78-.99h.01v-.02l.02-.02c.25-.31,.5-.61,.75-.92l.1-.12c.24-.28,.46-.55,.7-.83l.16-.19c.22-.25,.44-.51,.66-.76l.2-.23c.21-.23,.41-.46,.62-.69l.27-.3c.18-.19,.35-.38,.53-.57,.14-.15,.28-.3,.42-.45,.14-.14,.27-.29,.41-.43,.17-.18,.35-.36,.52-.54,.11-.11,.22-.22,.34-.34,.22-.23,.44-.45,.66-.67l.21-.21c.23-.23,.47-.46,.71-.7l.17-.16,.04-.04Z"/><path class="cls-12" d="M43.52,178.17l21.13-45.32c-13.64,5.26-26.06,12.97-36.72,22.6-6.86,6.22-12.99,13.25-18.25,20.94l25.11,11.64c.26-.34,.52-.67,.78-1.01l.02-.02c.25-.32,.51-.65,.77-.97l.04-.05c.25-.31,.5-.61,.75-.92l.08-.1c.24-.28,.47-.56,.71-.84l.17-.19c.22-.25,.43-.5,.65-.75l.2-.23c.2-.23,.41-.46,.62-.69l.28-.3c.18-.2,.37-.4,.55-.6,.12-.13,.24-.26,.36-.38,.16-.17,.32-.34,.48-.5,.15-.16,.31-.32,.46-.48,.13-.13,.26-.27,.4-.41,.17-.17,.34-.35,.51-.52,.13-.13,.25-.25,.38-.37,.17-.17,.35-.35,.52-.52Z"/><path class="cls-14" d="M43.17,178.51l21.25-45.57c-13.54,5.26-25.88,12.93-36.48,22.5-6.86,6.23-13,13.25-18.26,20.95l25.11,11.64c.26-.34,.51-.67,.77-1l.03-.03c.25-.32,.51-.64,.77-.97l.02-.02h0v-.02c.27-.32,.52-.63,.78-.94l.06-.07c.25-.3,.5-.59,.75-.89l.1-.11c.24-.28,.48-.56,.73-.84l.11-.13c.24-.27,.49-.54,.73-.81l.15-.16c.23-.25,.47-.51,.7-.76l.19-.21c.23-.24,.46-.48,.69-.72l.2-.21c.22-.23,.45-.47,.68-.7l.21-.22c.23-.24,.47-.47,.7-.7h0Z"/><path class="cls-41" d="M42.82,178.86l21.37-45.83c-13.44,5.25-25.69,12.88-36.21,22.38-6.88,6.23-13.02,13.27-18.29,20.98l25.11,11.64c.26-.34,.52-.67,.78-1.01v-.02c.27-.32,.52-.65,.78-.97l.05-.07c.24-.3,.49-.6,.73-.89l.11-.14c.22-.27,.45-.53,.67-.8l.21-.24c.2-.23,.39-.46,.59-.68l.28-.32c.18-.2,.36-.4,.54-.6,.12-.13,.24-.26,.36-.4,.14-.15,.28-.31,.43-.46,.17-.19,.35-.37,.52-.56l.31-.33c.22-.23,.45-.47,.67-.7l.04-.04,.13-.13h0c.22-.23,.44-.46,.66-.68l.13-.14Z"/><path class="cls-40" d="M42.47,179.21h0l21.49-46.09c-13.34,5.24-25.5,12.83-35.97,22.27-6.88,6.24-13.04,13.28-18.31,21l25.11,11.64c.26-.34,.52-.68,.79-1.01h0c.26-.33,.52-.66,.78-.98l.04-.05c.26-.32,.51-.63,.78-.94l.04-.05c.25-.3,.5-.6,.75-.89l.11-.13c.24-.28,.49-.56,.73-.84l.12-.13c.24-.27,.49-.54,.73-.81l.13-.15c.23-.25,.47-.51,.7-.76l.2-.21c.22-.24,.45-.47,.67-.71l.22-.23c.22-.23,.45-.46,.67-.69l.22-.22Z"/><path class="cls-37" d="M42.11,179.58l21.62-46.37c-13.27,5.25-25.36,12.82-35.77,22.22-6.87,6.23-13.01,13.26-18.28,20.96l25.11,11.64c.26-.34,.52-.67,.78-1l.02-.03c.25-.32,.51-.64,.76-.95l.06-.07c.24-.3,.49-.6,.73-.89l.11-.13c.23-.27,.45-.54,.68-.81l.18-.21c.21-.24,.42-.48,.63-.72l.24-.27c.2-.22,.39-.44,.59-.66,.1-.11,.21-.23,.31-.34,.17-.19,.34-.37,.51-.55,.14-.15,.28-.3,.41-.44,.14-.15,.28-.3,.43-.45,.16-.18,.33-.35,.5-.52,.12-.13,.25-.26,.37-.39Z"/><path class="cls-31" d="M41.75,179.95l21.75-46.65c-13.19,5.25-25.21,12.79-35.57,22.15-6.86,6.22-12.99,13.24-18.24,20.93l25.11,11.64c.26-.34,.52-.67,.78-1.01l.02-.02c.26-.32,.51-.65,.77-.97l.04-.05c.24-.3,.49-.6,.73-.89l.12-.15c.22-.26,.44-.52,.66-.78l.22-.26c.19-.23,.39-.45,.59-.68l.28-.32c.18-.2,.36-.4,.54-.6,.13-.14,.26-.29,.39-.43,.13-.14,.27-.29,.4-.44,.18-.19,.35-.38,.53-.56l.32-.34c.19-.2,.38-.4,.57-.59Z"/><path class="cls-39" d="M41.39,180.33l21.88-46.93c-13.09,5.24-25.03,12.75-35.32,22.04-6.87,6.22-13,13.26-18.27,20.95l25.11,11.64c.26-.34,.52-.67,.78-1h0c.26-.34,.52-.67,.78-.99l.02-.02h.01c.26-.34,.52-.66,.79-.98l.03-.04c.25-.3,.51-.61,.77-.91l.08-.09c.25-.29,.5-.58,.76-.87l.08-.1c.25-.29,.51-.57,.76-.85l.1-.11c.24-.27,.49-.54,.74-.81l.16-.17c.24-.25,.48-.51,.72-.76Z"/><path class="cls-36" d="M41.02,180.72l22.02-47.23c-12.96,5.22-24.79,12.67-35.01,21.87-6.9,6.24-13.06,13.3-18.35,21.03l25.11,11.64c.25-.33,.51-.66,.77-1l.04-.04c.24-.32,.49-.62,.74-.93l.08-.1c.23-.29,.46-.57,.7-.86l.16-.2c.2-.24,.4-.48,.6-.71l.3-.35c.16-.19,.33-.38,.49-.57,.13-.15,.27-.3,.4-.45,.14-.16,.27-.31,.41-.46,.17-.18,.34-.37,.51-.55l.1-.11,.1-.11,.1-.11c.21-.22,.41-.44,.62-.66l.11-.11Z"/><path class="cls-91" d="M40.27,181.52l22.31-47.85c-12.48,5.09-23.9,12.24-33.83,21.05l-.14,.12c-.19,.17-.39,.35-.59,.52-6.9,6.24-13.05,13.29-18.34,21.02l25.11,11.64c.26-.34,.51-.67,.77-1v-.02l.04-.04c.24-.31,.49-.61,.73-.92l.08-.1c.23-.28,.46-.56,.68-.83l.19-.23c.19-.23,.38-.46,.58-.69l.33-.39c.15-.18,.31-.35,.46-.53,.14-.16,.28-.32,.43-.48,.11-.13,.23-.26,.35-.38,.19-.21,.37-.41,.56-.62l.09-.1,.09-.1,.09-.1Z"/><path class="cls-90" d="M39.88,181.93h0c-.11,.12-.22,.25-.33,.37l.33-.37h0Zm0,0l-.33,.37c-.18,.2-.35,.4-.53,.59l-.32,.36c-.19,.22-.38,.43-.56,.65l-.24,.28c-.21,.25-.41,.49-.62,.74l-.16,.19c-.24,.28-.47,.57-.7,.86l-.07,.09c-.25,.31-.5,.62-.75,.93l-.04,.05c-.26,.33-.51,.66-.77,.99l-25.11-11.64c5.29-7.73,11.45-14.79,18.36-21.04,.15-.13,.3-.27,.46-.41l.26-.23c9.86-8.74,21.2-15.86,33.58-20.94l-22.46,48.17Z"/><path class="cls-94" d="M39.5,182.36l22.61-48.5c-12.63,5.21-24.16,12.54-34.14,21.55-6.87,6.23-13.02,13.27-18.28,20.97l25.11,11.64c.25-.33,.51-.66,.77-.99l.04-.05c.24-.3,.49-.61,.73-.91l.11-.13c.22-.27,.43-.53,.65-.79l.23-.27c.18-.22,.37-.43,.55-.65l.37-.43c.14-.16,.28-.32,.42-.48,.15-.17,.3-.34,.44-.5,.13-.15,.27-.3,.4-.45Z"/><path class="cls-95" d="M39.11,182.8l22.77-48.84c-12.56,5.21-24.02,12.52-33.95,21.49-6.86,6.22-12.98,13.24-18.24,20.93l25.11,11.64c.26-.34,.51-.67,.77-1h0v-.02l.02-.02c.24-.3,.48-.61,.73-.91l.13-.16c.21-.26,.42-.51,.63-.77l.25-.3c.17-.21,.34-.41,.52-.61,.13-.16,.26-.31,.39-.46,.13-.15,.27-.31,.4-.46,.16-.18,.31-.36,.47-.53Z"/><path class="cls-95" d="M38.71,183.25l22.94-49.19c-12.47,5.21-23.87,12.49-33.75,21.42-6.85,6.21-12.96,13.23-18.21,20.91l25.11,11.64c.25-.33,.51-.66,.77-1l.02-.02,.02-.02c.24-.31,.49-.62,.74-.93l.09-.12c.22-.27,.45-.55,.67-.82l.21-.25c.19-.23,.38-.46,.58-.68l.28-.33c.18-.2,.35-.41,.53-.61Z"/><path class="cls-94" d="M38.3,183.72l23.11-49.56c-12.38,5.2-23.69,12.45-33.5,21.32-6.85,6.21-12.97,13.23-18.22,20.91l25.11,11.64c.25-.33,.5-.65,.76-.98l.06-.08c.23-.29,.46-.57,.69-.86l.16-.2,.05-.07c.17-.21,.33-.41,.51-.62,.14-.17,.28-.33,.41-.5,.11-.13,.21-.25,.32-.38,.18-.21,.36-.42,.55-.63Z"/><path class="cls-94" d="M37.89,184.19l23.28-49.94c-12.27,5.19-23.49,12.39-33.24,21.19-6.86,6.23-13,13.25-18.26,20.95l25.11,11.64c.25-.33,.51-.66,.76-.99l.05-.06c.23-.29,.47-.59,.7-.88l.14-.18c.21-.25,.41-.51,.62-.76l.25-.3c.17-.21,.35-.42,.53-.62l.04-.05Z"/><path class="cls-94" d="M37.47,184.69l23.47-50.33c-12.14,5.16-23.24,12.29-32.89,20.99-6.91,6.25-13.08,13.31-18.37,21.05l25.11,11.64c.25-.32,.49-.64,.74-.96l.1-.12c.21-.26,.41-.53,.63-.78l.28-.34,.04-.05c.13-.16,.25-.31,.38-.46,.17-.21,.34-.41,.51-.62Z"/><path class="cls-94" d="M37.05,185.19l23.66-50.74c-11.68,4.99-22.4,11.82-31.78,20.11l-.31,.27c-.17,.15-.34,.3-.51,.46-6.93,6.26-13.12,13.34-18.42,21.1l25.11,11.64c.25-.33,.5-.65,.75-.97l.07-.1c.22-.28,.45-.56,.67-.84l.19-.23,.04-.05c.18-.22,.36-.44,.54-.66Z"/><path class="cls-93" d="M36.61,185.73h0l23.86-51.17c-11.65,5.01-22.34,11.85-31.7,20.15l-.05,.04c-.23,.2-.45,.41-.68,.61-6.9,6.24-13.07,13.3-18.36,21.04l25.11,11.64c.24-.32,.48-.63,.73-.94l.12-.15,.03-.04h0c.17-.22,.34-.43,.51-.65l.03-.04c.13-.16,.25-.31,.38-.46l.03-.04Z"/><path class="cls-93" d="M36.17,186.27l24.07-51.61c-11.89,5.15-22.77,12.19-32.25,20.75-6.88,6.23-13.03,13.27-18.3,20.99l25.11,11.64c.23-.3,.47-.61,.7-.91l.2-.25,.02-.03,.02-.03c.14-.17,.27-.35,.41-.52l.02-.03Z"/><path class="cls-93" d="M35.72,186.84l24.28-52.07c-11.81,5.14-22.62,12.16-32.05,20.67-6.87,6.22-13,13.26-18.27,20.95l25.11,11.64c.22-.29,.44-.57,.66-.86l.02-.02v-.02l.22-.26,.02-.02v-.02Z"/><path class="cls-93" d="M34.79,188.03c.14-.19,.29-.37,.43-.56h0v-.02h.02v-.02l24.52-52.57c-11.74,5.14-22.48,12.13-31.86,20.61-6.85,6.22-12.97,13.24-18.23,20.92l25.11,11.64Z"/></g><polygon class="cls-2" points="122.47 0 34.76 188.08 9.68 176.39 91.94 0 122.47 0"/><g class="cls-97"><polygon class="cls-85" points="97.84 52.81 82.56 20.12 91.94 0 122.47 0 97.84 52.81"/><polygon class="cls-84" points="97.98 52.5 82.67 19.86 91.94 0 122.47 0 97.98 52.5"/><polygon class="cls-4" points="98.13 52.2 82.79 19.61 91.94 0 122.47 0 98.13 52.2"/><polygon class="cls-5" points="98.27 51.9 82.91 19.35 91.94 0 122.47 0 98.27 51.9"/><polygon class="cls-83" points="98.41 51.59 83.03 19.1 91.94 0 122.47 0 98.41 51.59"/><polygon class="cls-81" points="98.55 51.29 83.15 18.85 91.94 0 122.47 0 98.55 51.29"/><polygon class="cls-82" points="98.69 50.98 83.27 18.59 91.94 0 122.47 0 98.69 50.98"/><polygon class="cls-80" points="98.84 50.67 83.39 18.34 91.94 0 122.47 0 98.84 50.67"/><polygon class="cls-86" points="98.98 50.37 83.5 18.08 91.94 0 122.47 0 98.98 50.37"/><polygon class="cls-87" points="99.13 50.06 83.62 17.83 91.94 0 122.47 0 99.13 50.06"/><polygon class="cls-89" points="120.68 0 122.25 .45 99.27 49.75 83.74 17.58 91.94 0 120.68 0"/><polygon class="cls-88" points="116.14 0 121.65 1.74 99.41 49.44 83.86 17.32 91.94 0 116.14 0"/><polygon class="cls-48" points="112.33 0 121.08 2.98 99.56 49.13 83.98 17.07 91.94 0 112.33 0"/><polygon class="cls-52" points="109.1 0 120.52 4.18 99.7 48.82 84.09 16.82 91.94 0 109.1 0"/><polygon class="cls-43" points="106.34 0 119.98 5.34 99.85 48.5 84.21 16.57 91.94 0 106.34 0"/><polygon class="cls-45" points="103.95 0 119.46 6.45 99.99 48.19 84.33 16.31 91.94 0 103.95 0"/><polygon class="cls-44" points="101.88 0 118.95 7.54 100.14 47.88 84.44 16.06 91.94 0 101.88 0"/><polygon class="cls-50" points="100.06 0 118.47 8.58 100.29 47.56 84.56 15.81 91.94 0 100.06 0"/><polygon class="cls-49" points="98.46 0 118 9.58 100.44 47.24 84.68 15.56 91.94 0 98.46 0"/><polygon class="cls-53" points="97.04 0 117.54 10.56 100.59 46.93 84.8 15.31 91.94 0 97.04 0"/><polygon class="cls-51" points="95.79 0 117.1 11.5 100.73 46.61 84.91 15.06 91.94 0 95.79 0"/><polygon class="cls-47" points="94.67 0 116.68 12.4 100.88 46.29 85.03 14.81 91.94 0 94.67 0"/><polygon class="cls-42" points="93.67 0 116.27 13.28 101.03 45.97 85.15 14.56 91.94 0 93.67 0"/><polygon class="cls-75" points="92.77 0 115.88 14.13 101.18 45.64 85.26 14.31 91.94 0 92.77 0"/><polygon class="cls-78" points="91.97 0 115.5 14.95 101.33 45.32 85.38 14.06 91.94 0 91.97 0"/><polygon class="cls-55" points="91.77 .35 115.13 15.74 101.49 45 85.5 13.81 91.77 .35"/><polygon class="cls-59" points="91.61 .7 114.77 16.51 101.64 44.67 85.61 13.56 91.61 .7"/><polygon class="cls-74" points="91.46 1.02 114.43 17.25 101.79 44.34 85.73 13.31 91.46 1.02"/><polygon class="cls-77" points="91.31 1.34 114.09 17.96 101.94 44.01 85.84 13.06 91.31 1.34"/><polygon class="cls-60" points="91.17 1.64 113.77 18.65 102.1 43.68 85.96 12.81 91.17 1.64"/><polygon class="cls-58" points="91.04 1.92 113.46 19.31 102.25 43.35 86.08 12.57 91.04 1.92"/><polygon class="cls-46" points="90.92 2.18 113.16 19.96 102.41 43.01 86.19 12.32 90.92 2.18"/><polygon class="cls-54" points="90.8 2.44 112.87 20.58 102.56 42.68 86.3 12.08 90.8 2.44"/><polygon class="cls-57" points="90.69 2.68 112.59 21.18 102.72 42.34 86.42 11.83 90.69 2.68"/><polygon class="cls-56" points="90.58 2.9 112.32 21.76 102.88 42 86.54 11.58 90.58 2.9"/><polygon class="cls-29" points="90.48 3.11 112.06 22.31 103.04 41.66 86.65 11.34 90.48 3.11"/><polygon class="cls-71" points="90.39 3.31 111.81 22.85 103.2 41.32 86.76 11.09 90.39 3.31"/><polygon class="cls-72" points="90.3 3.5 111.57 23.37 103.36 40.98 86.88 10.85 90.3 3.5"/><polygon class="cls-73" points="90.22 3.68 111.33 23.87 103.52 40.63 86.99 10.6 90.22 3.68"/><polygon class="cls-64" points="90.15 3.84 111.11 24.35 103.68 40.28 87.11 10.36 90.15 3.84"/><polygon class="cls-28" points="90.08 3.99 110.89 24.82 103.85 39.93 87.22 10.11 90.08 3.99"/><polygon class="cls-69" points="90.01 4.13 110.68 25.27 104.01 39.58 87.33 9.87 90.01 4.13"/><polygon class="cls-76" points="89.95 4.26 110.48 25.7 104.18 39.22 87.45 9.63 89.95 4.26"/><polygon class="cls-67" points="89.89 4.38 110.29 26.12 104.34 38.86 87.56 9.39 89.89 4.38"/><polygon class="cls-70" points="89.84 4.49 110.1 26.52 104.51 38.5 87.67 9.15 89.84 4.49"/><polygon class="cls-26" points="89.8 4.59 109.92 26.91 104.68 38.14 87.78 8.91 89.8 4.59"/><polygon class="cls-68" points="89.75 4.68 109.75 27.27 104.85 37.77 87.89 8.67 89.75 4.68"/><polygon class="cls-11" points="89.72 4.75 109.58 27.63 105.03 37.4 88 8.43 89.72 4.75"/><polygon class="cls-25" points="89.68 4.82 109.42 27.97 105.2 37.03 88.11 8.19 89.68 4.82"/><polygon class="cls-62" points="89.66 4.89 109.27 28.3 105.37 36.65 88.23 7.95 89.66 4.89"/><polygon class="cls-23" points="89.63 4.94 109.12 28.61 105.55 36.27 88.34 7.72 89.63 4.94"/><polygon class="cls-17" points="89.61 4.99 108.98 28.92 105.73 35.89 88.45 7.48 89.61 4.99"/><polygon class="cls-18" points="89.59 5.02 108.85 29.2 105.91 35.51 88.56 7.25 89.59 5.02"/><polygon class="cls-63" points="89.58 5.05 108.72 29.48 106.09 35.11 88.67 7.01 89.58 5.05"/><polygon class="cls-30" points="89.57 5.07 108.6 29.75 106.28 34.72 88.77 6.78 89.57 5.07"/><polygon class="cls-27" points="89.57 5.08 108.48 30 106.46 34.32 88.88 6.55 89.57 5.08"/><polygon class="cls-61" points="89.56 5.09 108.36 30.25 106.65 33.92 88.99 6.31 89.56 5.09"/><polygon class="cls-92" points="89.56 5.09 108.26 30.47 106.84 33.52 89.1 6.09 89.56 5.09"/><polygon class="cls-79" points="89.57 5.08 108.15 30.7 107.03 33.1 89.2 5.86 89.57 5.08"/><polygon class="cls-22" points="89.57 5.06 108.05 30.91 107.23 32.69 89.31 5.63 89.57 5.06"/><polygon class="cls-15" points="89.59 5.04 107.96 31.11 107.42 32.27 89.41 5.4 89.59 5.04"/><polygon class="cls-16" points="89.6 5.01 107.87 31.29 107.62 31.84 89.52 5.18 89.6 5.01"/><polygon class="cls-9" points="89.61 4.98 107.79 31.47 107.82 31.4 89.62 4.96 89.61 4.98"/><polygon class="cls-13" points="89.63 4.94 107.71 31.64 108.03 30.96 89.73 4.73 89.63 4.94"/><polygon class="cls-20" points="89.66 4.89 107.64 31.8 108.24 30.52 89.83 4.51 89.66 4.89"/><polygon class="cls-21" points="89.68 4.84 107.57 31.95 108.45 30.06 89.93 4.29 89.68 4.84"/><polygon class="cls-19" points="89.71 4.77 107.5 32.1 108.66 29.6 90.03 4.08 89.71 4.77"/><polygon class="cls-24" points="89.74 4.71 107.44 32.23 108.88 29.13 90.14 3.86 89.74 4.71"/><polygon class="cls-7" points="89.77 4.64 107.38 32.36 109.11 28.65 90.23 3.65 89.77 4.64"/><polygon class="cls-6" points="89.81 4.56 107.32 32.47 109.33 28.16 90.33 3.44 89.81 4.56"/><polygon class="cls-33" points="89.85 4.48 107.27 32.58 109.57 27.67 90.43 3.23 89.85 4.48"/><polygon class="cls-35" points="89.89 4.39 107.23 32.68 109.8 27.16 90.53 3.02 89.89 4.39"/><polygon class="cls-38" points="89.93 4.3 107.18 32.77 110.04 26.64 90.62 2.82 89.93 4.3"/><polygon class="cls-10" points="89.98 4.2 107.14 32.86 110.29 26.11 90.72 2.62 89.98 4.2"/><polygon class="cls-8" points="90.02 4.1 107.11 32.94 110.54 25.57 90.81 2.42 90.02 4.1"/><polygon class="cls-34" points="90.07 4 107.08 33.01 110.8 25.02 90.9 2.23 90.07 4"/><polygon class="cls-66" points="90.13 3.88 107.05 33.07 111.07 24.45 90.99 2.04 90.13 3.88"/><polygon class="cls-65" points="90.18 3.77 107.02 33.12 111.34 23.87 91.08 1.85 90.18 3.77"/><polygon class="cls-12" points="90.24 3.65 107 33.17 111.62 23.27 91.16 1.66 90.24 3.65"/><polygon class="cls-14" points="90.29 3.52 106.98 33.22 111.91 22.65 91.25 1.48 90.29 3.52"/><polygon class="cls-41" points="90.35 3.39 106.96 33.25 112.2 22.01 91.33 1.31 90.35 3.39"/><polygon class="cls-40" points="90.42 3.26 106.95 33.28 112.51 21.35 91.41 1.13 90.42 3.26"/><polygon class="cls-37" points="90.48 3.12 106.94 33.3 112.83 20.67 91.48 .97 90.48 3.12"/><polygon class="cls-31" points="90.55 2.98 106.93 33.32 113.16 19.97 91.56 .81 90.55 2.98"/><polygon class="cls-39" points="90.62 2.83 106.93 33.33 113.5 19.23 91.63 .66 90.62 2.83"/><polygon class="cls-36" points="90.68 2.68 106.92 33.33 113.85 18.48 91.7 .51 90.68 2.68"/><polygon class="cls-32" points="90.75 2.53 106.92 33.33 114.22 17.68 91.76 .38 90.75 2.53"/><polygon class="cls-91" points="90.83 2.37 106.93 33.33 114.61 16.85 91.82 .25 90.83 2.37"/><polygon class="cls-90" points="90.91 2.21 106.93 33.31 115.01 15.98 91.88 .13 90.91 2.21"/><polygon class="cls-94" points="90.98 2.05 106.94 33.29 115.44 15.07 91.93 .02 90.98 2.05"/><polygon class="cls-95" points="91.06 1.88 106.95 33.27 115.89 14.11 92.11 0 91.94 0 91.06 1.88"/><polygon class="cls-95" points="91.14 1.71 106.97 33.24 116.36 13.1 92.32 0 91.94 0 91.14 1.71"/><polygon class="cls-94" points="91.22 1.53 106.98 33.2 116.86 12.03 92.54 0 91.94 0 91.22 1.53"/><polygon class="cls-94" points="91.31 1.35 107 33.16 117.39 10.89 92.75 0 91.94 0 91.31 1.35"/><polygon class="cls-94" points="91.39 1.17 107.02 33.12 117.96 9.67 92.96 0 91.94 0 91.39 1.17"/><polygon class="cls-94" points="91.47 .99 107.05 33.07 118.57 8.36 93.17 0 91.94 0 91.47 .99"/><polygon class="cls-93" points="91.56 .8 107.07 33.02 119.22 6.96 93.38 0 91.94 0 91.56 .8"/><polygon class="cls-93" points="91.65 .61 107.1 32.96 119.93 5.44 93.59 0 91.94 0 91.65 .61"/><polygon class="cls-93" points="91.74 .41 107.13 32.9 120.7 3.79 93.8 0 91.94 0 91.74 .41"/><polygon class="cls-93" points="91.83 .22 107.16 32.83 121.54 1.99 94.01 0 91.94 0 91.83 .22"/></g><polygon class="cls-2" points="91.92 0 179.63 188.08 204.7 176.39 122.45 0 91.92 0"/><g class="cls-97"><path class="cls-85" d="M144.73,113.24c14.18,4.1,27.4,10.47,39.24,18.69l20.73,44.46-25.08,11.69-34.9-74.84Z"/><path class="cls-84" d="M144.82,113.45c14.21,4.13,27.44,10.53,39.29,18.79l20.59,44.16-25.08,11.69-34.81-74.64Z"/><path class="cls-4" d="M144.92,113.66c14.23,4.15,27.48,10.59,39.34,18.89l20.45,43.85-25.08,11.69-34.71-74.43Z"/><path class="cls-5" d="M145.01,113.86c14.25,4.18,27.52,10.65,39.38,18.99l20.3,43.54-25.08,11.69-34.61-74.22Z"/><path class="cls-83" d="M145.11,114.07c14.28,4.2,27.57,10.7,39.43,19.09l20.16,43.24-25.08,11.69-34.52-74.02Z"/><path class="cls-81" d="M145.21,114.27c14.3,4.23,27.6,10.76,39.48,19.19l20.02,42.93-25.08,11.69-34.42-73.81Z"/><path class="cls-82" d="M145.3,114.48c14.32,4.25,27.65,10.82,39.53,19.3l19.87,42.62-25.08,11.69-34.32-73.6Z"/><path class="cls-80" d="M145.4,114.68c14.35,4.28,27.7,10.89,39.58,19.41l19.72,42.3-25.08,11.69-34.23-73.4Z"/><path class="cls-86" d="M145.5,114.89c14.37,4.3,27.74,10.95,39.63,19.52l19.57,41.98-25.08,11.69-34.13-73.19Z"/><path class="cls-87" d="M145.59,115.1c14.4,4.33,27.78,11.02,39.69,19.63l19.43,41.66-25.08,11.69-34.03-72.99Z"/><path class="cls-89" d="M145.69,115.3c14.43,4.35,27.83,11.09,39.74,19.75l19.28,41.34-25.08,11.69-33.94-72.78Z"/><path class="cls-88" d="M145.78,115.51c14.46,4.38,27.88,11.15,39.79,19.86l19.13,41.02-25.08,11.69-33.84-72.57Z"/><path class="cls-48" d="M145.88,115.72c14.49,4.41,27.92,11.22,39.84,19.98l18.98,40.7-25.08,11.69-33.75-72.37Z"/><path class="cls-52" d="M145.98,115.92c14.51,4.43,27.96,11.28,39.89,20.09l18.83,40.38-25.08,11.69-33.65-72.16Z"/><path class="cls-43" d="M146.07,116.13c14.54,4.46,28.02,11.35,39.95,20.2l18.68,40.06-25.08,11.69-33.55-71.95Z"/><path class="cls-45" d="M146.17,116.34c14.57,4.49,28.06,11.42,40,20.31l18.53,39.74-25.08,11.69-33.46-71.75Z"/><path class="cls-44" d="M146.27,116.54c14.59,4.51,28.11,11.48,40.06,20.43l18.38,39.42-25.08,11.69-33.36-71.54Z"/><path class="cls-50" d="M146.36,116.75c14.63,4.54,28.16,11.56,40.12,20.55l18.23,39.09-25.08,11.69-33.27-71.33Z"/><path class="cls-49" d="M146.46,116.96c14.65,4.57,28.21,11.63,40.17,20.68l18.07,38.75-25.08,11.69-33.17-71.13Z"/><path class="cls-53" d="M146.56,117.17c14.69,4.6,28.26,11.7,40.23,20.81l17.91,38.42-25.08,11.69-33.07-70.91Z"/><path class="cls-51" d="M146.66,117.38c14.71,4.63,28.31,11.77,40.29,20.93l17.76,38.08-25.08,11.69-32.97-70.7Z"/><path class="cls-47" d="M146.75,117.59c14.74,4.65,28.36,11.84,40.35,21.05l17.6,37.75-25.08,11.69-32.87-70.49Z"/><path class="cls-42" d="M146.85,117.8c14.77,4.68,28.41,11.92,40.4,21.17l17.45,37.41-25.08,11.69-32.77-70.28Z"/><path class="cls-75" d="M146.95,118.02c14.81,4.71,28.46,11.98,40.46,21.29l17.29,37.08-25.08,11.69-32.68-70.07Z"/><path class="cls-78" d="M147.05,118.22c14.83,4.74,28.51,12.06,40.52,21.42l17.13,36.75-25.08,11.69-32.58-69.86Z"/><path class="cls-55" d="M147.15,118.43c14.86,4.77,28.57,12.13,40.58,21.54l16.98,36.41-25.08,11.69-32.48-69.65Z"/><path class="cls-59" d="M147.25,118.65c14.89,4.8,28.62,12.2,40.64,21.68l16.82,36.07-25.08,11.69-32.38-69.43Z"/><path class="cls-74" d="M147.34,118.86c14.93,4.83,28.68,12.28,40.7,21.81l16.66,35.72-25.08,11.69-32.28-69.22Z"/><path class="cls-77" d="M147.44,119.07c14.96,4.86,28.73,12.36,40.77,21.95l16.49,35.37-25.08,11.69-32.18-69.01Z"/><path class="cls-60" d="M147.54,119.28c15,4.9,28.79,12.45,40.84,22.09l16.33,35.02-25.08,11.69-32.09-68.8Z"/><path class="cls-58" d="M147.64,119.49c15.03,4.93,28.85,12.52,40.9,22.23l16.16,34.67-25.08,11.69-31.98-68.59Z"/><path class="cls-46" d="M147.74,119.7c15.06,4.96,28.91,12.61,40.96,22.37l16,34.32-25.08,11.69-31.89-68.38Z"/><path class="cls-54" d="M147.84,119.91c15.1,4.99,28.96,12.69,41.03,22.51l15.84,33.97-25.08,11.69-31.79-68.17Z"/><path class="cls-57" d="M147.93,120.13c15.13,5.02,29.02,12.76,41.09,22.65l15.67,33.62-25.08,11.69-31.69-67.96Z"/><path class="cls-56" d="M148.03,120.33c15.17,5.06,29.08,12.85,41.16,22.79l15.51,33.27-25.08,11.69-31.59-67.75Z"/><path class="cls-29" d="M148.13,120.55c15.2,5.09,29.14,12.93,41.23,22.94l15.34,32.9-25.08,11.69-31.5-67.54Z"/><path class="cls-71" d="M148.23,120.76c15.24,5.12,29.2,13.02,41.3,23.1l15.17,32.54-25.08,11.69-31.39-67.33Z"/><path class="cls-72" d="M148.33,120.97c15.28,5.16,29.27,13.11,41.38,23.25l15,32.17-25.08,11.69-31.3-67.11Z"/><path class="cls-73" d="M148.43,121.18c15.32,5.19,29.34,13.21,41.44,23.41l14.83,31.8-25.08,11.69-31.2-66.9Z"/><path class="cls-64" d="M148.53,121.4c15.36,5.23,29.4,13.3,41.52,23.56l14.66,31.43-25.08,11.69-31.1-66.68Z"/><path class="cls-28" d="M148.63,121.61c15.4,5.26,29.47,13.38,41.59,23.71l14.48,31.06-25.08,11.69-31-66.47Z"/><path class="cls-69" d="M148.73,121.83c15.43,5.3,29.53,13.47,41.66,23.86l14.32,30.7-25.08,11.69-30.9-66.25Z"/><path class="cls-76" d="M148.83,122.04c15.47,5.34,29.6,13.56,41.73,24.02l14.14,30.33-25.08,11.69-30.8-66.04Z"/><path class="cls-67" d="M148.93,122.26c15.51,5.37,29.66,13.64,41.8,24.17l13.97,29.96-25.08,11.69-30.69-65.82Z"/><path class="cls-70" d="M149.03,122.48c15.55,5.41,29.73,13.74,41.88,24.35l13.79,29.57-25.08,11.69-30.59-65.6Z"/><path class="cls-26" d="M149.13,122.69c15.6,5.45,29.8,13.84,41.96,24.52l13.61,29.18-25.08,11.69-30.49-65.39Z"/><path class="cls-68" d="M149.23,122.91c15.64,5.48,29.88,13.94,42.04,24.69l13.43,28.79-25.08,11.69-30.39-65.17Z"/><path class="cls-11" d="M149.34,123.13c15.68,5.52,29.95,14.04,42.12,24.86l13.24,28.4-25.08,11.69-30.29-64.96Z"/><path class="cls-25" d="M149.43,123.34c15.72,5.56,30.03,14.14,42.2,25.04l13.06,28.01-25.08,11.69-30.19-64.74Z"/><path class="cls-62" d="M149.54,123.56c15.77,5.6,30.09,14.24,42.28,25.21l12.88,27.62-25.08,11.69-30.09-64.52Z"/><path class="cls-23" d="M149.64,123.77c15.81,5.64,30.17,14.34,42.37,25.38l12.7,27.24-25.08,11.69-29.99-64.31Z"/><path class="cls-17" d="M149.74,123.99c15.86,5.68,30.25,14.44,42.45,25.56l12.51,26.84-25.08,11.69-29.89-64.09Z"/><path class="cls-18" d="M149.84,124.21c15.91,5.72,30.33,14.55,42.54,25.76l12.32,26.43-25.08,11.69-29.79-63.88Z"/><path class="cls-63" d="M149.94,124.42c15.96,5.77,30.42,14.67,42.63,25.95l12.13,26.02-25.08,11.69-29.69-63.66Z"/><path class="cls-30" d="M150.04,124.64c16.01,5.81,30.5,14.78,42.72,26.15l11.94,25.6-25.08,11.69-29.58-63.44Z"/><path class="cls-27" d="M150.14,124.85c16.06,5.85,30.58,14.89,42.82,26.35l11.75,25.19-25.08,11.69-29.48-63.23Z"/><path class="cls-61" d="M150.24,125.07c16.11,5.89,30.67,15,42.91,26.54l11.55,24.78-25.08,11.69-29.39-63.01Z"/><path class="cls-92" d="M150.34,125.29c16.15,5.94,30.75,15.11,42.99,26.73l11.36,24.37-25.08,11.69-29.28-62.79Z"/><path class="cls-79" d="M150.45,125.51c16.21,5.98,30.84,15.22,43.09,26.93l11.17,23.95-25.08,11.69-29.18-62.57Z"/><path class="cls-22" d="M150.55,125.73c16.26,6.03,30.93,15.34,43.19,27.14l10.96,23.51-25.08,11.69-29.07-62.35Z"/><path class="cls-15" d="M150.66,125.96c16.32,6.07,31.02,15.47,43.29,27.36l10.76,23.08-25.08,11.69-28.97-62.13Z"/><path class="cls-16" d="M150.76,126.18c16.38,6.12,31.12,15.59,43.39,27.58l10.56,22.64-25.08,11.69-28.87-61.91Z"/><path class="cls-9" d="M150.86,126.4c16.43,6.17,31.21,15.71,43.49,27.79l10.35,22.2-25.08,11.69-28.76-61.68Z"/><path class="cls-13" d="M150.96,126.62c16.48,6.22,31.3,15.84,43.59,28.01l10.15,21.76-25.08,11.69-28.66-61.46Z"/><path class="cls-20" d="M151.07,126.84c16.54,6.26,31.4,15.96,43.69,28.22l9.95,21.33-25.08,11.69-28.56-61.24Z"/><path class="cls-21" d="M151.17,127.06c16.61,6.31,31.5,16.09,43.8,28.45l9.73,20.87-25.08,11.69-28.46-61.02Z"/><path class="cls-19" d="M151.27,127.28c16.67,6.37,31.6,16.23,43.91,28.7l9.52,20.41-25.08,11.69-28.35-60.8Z"/><path class="cls-24" d="M151.38,127.51c16.73,6.42,31.71,16.37,44.03,28.94l9.3,19.94-25.08,11.69-28.25-60.57Z"/><path class="cls-7" d="M151.48,127.73c16.8,6.47,31.82,16.51,44.14,29.19l9.08,19.47-25.08,11.69-28.14-60.35Z"/><path class="cls-6" d="M151.58,127.95c16.86,6.52,31.93,16.65,44.26,29.43l8.86,19.01-25.08,11.69-28.04-60.13Z"/><path class="cls-33" d="M151.69,128.17c16.93,6.58,32.04,16.79,44.37,29.68l8.65,18.54-25.08,11.69-27.94-59.91Z"/><path class="cls-35" d="M151.79,128.4c16.99,6.63,32.16,16.93,44.49,29.94l8.42,18.05-25.08,11.69-27.83-59.69Z"/><path class="cls-38" d="M151.89,128.62c17.07,6.69,32.27,17.1,44.62,30.22l8.18,17.55-25.08,11.69-27.73-59.47Z"/><path class="cls-10" d="M152,128.84c17.15,6.75,32.4,17.26,44.76,30.5l7.95,17.05-25.08,11.69-27.63-59.25Z"/><path class="cls-8" d="M152.1,129.06c17.22,6.81,32.52,17.41,44.88,30.78l7.72,16.55-25.08,11.69-27.52-59.02Z"/><path class="cls-34" d="M152.21,129.29c17.29,6.86,32.65,17.57,45.01,31.05l7.48,16.05-25.08,11.69-27.42-58.79Z"/><path class="cls-66" d="M152.31,129.51c17.36,6.93,32.77,17.72,45.14,31.33l7.25,15.55-25.08,11.69-27.31-58.57Z"/><path class="cls-65" d="M152.42,129.74c17.45,6.99,32.91,17.9,45.29,31.64l7,15.01-25.08,11.69-27.21-58.34Z"/><path class="cls-12" d="M152.53,129.97c17.54,7.05,33.05,18.07,45.43,31.95l6.74,14.47-25.08,11.69-27.1-58.11Z"/><path class="cls-14" d="M152.63,130.2c17.62,7.12,33.19,18.25,45.58,32.26l6.49,13.93-25.08,11.69-26.99-57.88Z"/><path class="cls-41" d="M152.74,130.43c17.71,7.18,33.33,18.43,45.72,32.58l6.24,13.38-25.08,11.69-26.89-57.66Z"/><path class="cls-40" d="M152.84,130.65c17.8,7.25,33.48,18.6,45.87,32.89l5.99,12.84-25.08,11.69-26.78-57.43Z"/><path class="cls-37" d="M152.95,130.88c17.89,7.32,33.64,18.81,46.03,33.25l5.72,12.26-25.08,11.69-26.67-57.2Z"/><path class="cls-31" d="M153.06,131.11c17.99,7.4,33.8,19.01,46.2,33.61l5.44,11.67-25.08,11.69-26.57-56.98Z"/><path class="cls-39" d="M153.16,131.34c18.09,7.47,33.97,19.21,46.37,33.97l5.17,11.08-25.08,11.69-26.46-56.75Z"/><path class="cls-36" d="M153.27,131.56c18.19,7.54,34.13,19.41,46.54,34.33l4.9,10.5-25.08,11.69-26.36-56.52Z"/><path class="cls-32" d="M153.37,131.79c18.3,7.62,34.31,19.63,46.72,34.71l4.61,9.89-25.08,11.69-26.25-56.29Z"/><path class="cls-91" d="M153.48,132.02c18.41,7.7,34.5,19.86,46.91,35.13l4.31,9.25-25.08,11.69-26.14-56.07Z"/><path class="cls-90" d="M153.59,132.24c18.53,7.79,34.69,20.1,47.11,35.54l4.01,8.6-25.08,11.69-26.04-55.84Z"/><path class="cls-94" d="M153.69,132.47c18.65,7.87,34.89,20.33,47.3,35.96l3.71,7.96-25.08,11.69-25.94-55.61Z"/><path class="cls-95" d="M153.8,132.7c18.77,7.95,35.08,20.56,47.49,36.38l3.41,7.31-25.08,11.69-25.82-55.38Z"/><path class="cls-95" d="M153.91,132.94c18.9,8.05,35.3,20.84,47.72,36.86l3.07,6.59-25.08,11.69-25.72-55.15Z"/><path class="cls-94" d="M154.02,133.17c19.04,8.15,35.53,21.11,47.94,37.35l2.74,5.88-25.08,11.69-25.61-54.91Z"/><path class="cls-94" d="M154.13,133.4c19.18,8.24,35.76,21.37,48.17,37.83l2.41,5.16-25.08,11.69-25.5-54.68Z"/><path class="cls-94" d="M154.24,133.64c19.33,8.34,36,21.66,48.41,38.34l2.06,4.41-25.08,11.69-25.39-54.44Z"/><path class="cls-94" d="M154.34,133.87c19.49,8.45,36.27,21.98,48.67,38.91l1.68,3.61-25.08,11.69-25.28-54.21Z"/><path class="cls-93" d="M154.45,134.1c19.66,8.56,36.54,22.29,48.94,39.48l1.31,2.81-25.08,11.69-25.17-53.98Z"/><path class="cls-93" d="M154.56,134.34c19.83,8.67,36.82,22.61,49.21,40.05l.93,2-25.08,11.69-25.06-53.74Z"/><path class="cls-93" d="M154.67,134.57c20.03,8.8,37.15,22.99,49.53,40.73l.51,1.09-25.08,11.69-24.96-53.51Z"/><path class="cls-93" d="M154.78,134.8c20.23,8.93,37.48,23.37,49.84,41.41l.08,.17-25.08,11.69-24.85-53.28Z"/></g><path class="cls-2" d="M107.19,124.97c40.56,0,76.35,20.42,97.67,51.53l-25.23,11.58c-16.65-21.73-42.95-35.88-72.43-35.88v-27.23Z"/></g><text class="cls-1" transform="translate(0 242.36)"><tspan class="cls-98" x="0" y="0">Ado</tspan><tspan class="cls-3" x="80.81" y="0">script</tspan></text></g></g></g></svg>